M48
; DRILL file {KiCad (6.0.7)} date Fri Apr 14 09:22:36 2023
; FORMAT={-:-/ absolute / inch / decimal}
; #@! TF.CreationDate,2023-04-14T09:22:36+03:00
; #@! TF.GenerationSoftware,Kicad,Pcbnew,(6.0.7)
; #@! TF.FileFunction,Plated,1,2,PTH
FMAT,2
INCH
; #@! TA.AperFunction,Plated,PTH,ViaDrill
T1C0.0157
; #@! TA.AperFunction,Plated,PTH,ComponentDrill
T2C0.0197
; #@! TA.AperFunction,Plated,PTH,ComponentDrill
T3C0.0374
; #@! TA.AperFunction,Plated,PTH,ComponentDrill
T4C0.0386
; #@! TA.AperFunction,Plated,PTH,ComponentDrill
T5C0.0394
; #@! TA.AperFunction,Plated,PTH,ComponentDrill
T6C0.0402
; #@! TA.AperFunction,Plated,PTH,ComponentDrill
T7C0.0421
; #@! TA.AperFunction,Plated,PTH,ComponentDrill
T8C0.1260
%
G90
G05
T1
X4.6654Y-4.2126
X4.8031Y-4.2126
X4.8819Y-3.7205
X5.0394Y-2.4803
X5.6299Y-4.5079
X6.0236Y-4.8031
X6.2008Y-3.7402
X6.3189Y-4.0945
X6.6929Y-3.937
X6.7717Y-4.3504
X6.9488Y-2.3819
X6.9488Y-3.3661
X6.9488Y-3.9764
X6.9882Y-3.1307
X7.2638Y-3.2874
X7.3228Y-4.2717
X7.3622Y-3.7992
X7.4319Y-4.4988
X7.5197Y-3.4646
X7.5394Y-2.8937
T2
X4.2362Y-2.3622
X4.2362Y-5.1181
X4.2639Y-2.2954
X4.2639Y-2.429
X4.2639Y-5.0513
X4.2639Y-5.1849
X4.3307Y-2.2677
X4.3307Y-2.4567
X4.3307Y-5.0236
X4.3307Y-5.2126
X4.3975Y-2.2954
X4.3975Y-2.429
X4.3975Y-5.0513
X4.3975Y-5.1849
X4.4252Y-2.3622
X4.4252Y-5.1181
X7.3858Y-2.3622
X7.3858Y-5.1181
X7.4135Y-2.2954
X7.4135Y-2.429
X7.4135Y-5.0513
X7.4135Y-5.1849
X7.4803Y-2.2677
X7.4803Y-2.4567
X7.4803Y-5.0236
X7.4803Y-5.2126
X7.5471Y-2.2954
X7.5471Y-2.429
X7.5471Y-5.0513
X7.5471Y-5.1849
X7.5748Y-2.3622
X7.5748Y-5.1181
T3
X4.2598Y-2.7362
X4.2598Y-2.8346
X4.2598Y-2.9331
X4.2598Y-3.2874
X4.2598Y-3.3858
X4.2598Y-3.4843
T5
X4.6555Y-2.2638
X4.6555Y-2.3638
X4.6555Y-2.4638
X4.6555Y-2.5638
X4.6555Y-2.6638
X4.6555Y-2.7638
X4.6555Y-2.8638
X4.6555Y-2.9638
X4.6555Y-3.0638
X4.6555Y-3.1638
X4.6555Y-3.2638
X4.6555Y-3.3638
X4.6555Y-3.4638
X4.6555Y-3.5638
X4.6555Y-3.6638
X4.6555Y-3.7638
X4.6555Y-3.8638
X4.6555Y-3.9638
X4.6555Y-4.0638
X4.7555Y-2.2638
X4.7555Y-2.3638
X4.7555Y-2.4638
X4.7555Y-2.5638
X4.7555Y-2.6638
X4.7555Y-2.7638
X4.7555Y-2.8638
X4.7555Y-2.9638
X4.7555Y-3.0638
X4.7555Y-3.1638
X4.7555Y-3.2638
X4.7555Y-3.3638
X4.7555Y-3.4638
X4.7555Y-3.5638
X4.7555Y-3.6638
X4.7555Y-3.7638
X4.7555Y-3.8638
X4.7555Y-3.9638
X4.7555Y-4.0638
X6.7815Y-5.1171
X6.8799Y-5.1171
X7.0551Y-2.2638
X7.0551Y-2.3638
X7.0551Y-2.4638
X7.0551Y-2.5638
X7.0551Y-2.6638
X7.0551Y-2.7638
X7.0551Y-2.8638
X7.0551Y-2.9638
X7.0551Y-3.0638
X7.0551Y-3.1638
X7.0551Y-3.2638
X7.0551Y-3.3638
X7.0551Y-3.4638
X7.0551Y-3.5638
X7.0551Y-3.6638
X7.0551Y-3.7638
X7.0551Y-3.8638
X7.0551Y-3.9638
X7.0551Y-4.0638
X7.1551Y-2.2638
X7.1551Y-2.3638
X7.1551Y-2.4638
X7.1551Y-2.5638
X7.1551Y-2.6638
X7.1551Y-2.7638
X7.1551Y-2.8638
X7.1551Y-2.9638
X7.1551Y-3.0638
X7.1551Y-3.1638
X7.1551Y-3.2638
X7.1551Y-3.3638
X7.1551Y-3.4638
X7.1551Y-3.5638
X7.1551Y-3.6638
X7.1551Y-3.7638
X7.1551Y-3.8638
X7.1551Y-3.9638
X7.1551Y-4.0638
X7.5486Y-4.1988
X7.5486Y-4.2988
X7.5486Y-4.3988
X7.5486Y-4.4988
X7.5486Y-4.5988
X7.5486Y-4.6988
X7.6378Y-2.6996
X7.6378Y-2.7996
X7.6378Y-2.8996
X7.6378Y-2.9996
X7.6378Y-3.0996
X7.6378Y-3.1996
X7.6378Y-3.4583
X7.6378Y-3.5583
X7.6378Y-3.6583
X7.6378Y-3.7583
X7.6378Y-3.8583
X7.6378Y-3.9583
X7.6486Y-4.1988
X7.6486Y-4.2988
X7.6486Y-4.3988
X7.6486Y-4.4988
X7.6486Y-4.5988
X7.6486Y-4.6988
T6
X1.2106Y-2.2437
X1.2106Y-2.3437
X1.2106Y-2.4437
X1.2106Y-2.5437
X1.2106Y-2.6437
X1.2106Y-2.7437
X1.2106Y-2.8437
X1.2106Y-2.9437
X1.2106Y-3.0437
X1.2106Y-3.1437
X1.2106Y-3.2437
X1.2106Y-3.3437
X1.2106Y-3.4437
X1.2106Y-3.5437
X1.2106Y-3.6437
X1.2106Y-3.7437
X1.2106Y-3.8437
X1.2106Y-3.9437
X1.2106Y-4.0437
X1.3106Y-2.2437
X1.3106Y-2.3437
X1.3106Y-2.4437
X1.3106Y-2.5437
X1.3106Y-2.6437
X1.3106Y-2.7437
X1.3106Y-2.8437
X1.3106Y-2.9437
X1.3106Y-3.0437
X1.3106Y-3.1437
X1.3106Y-3.2437
X1.3106Y-3.3437
X1.3106Y-3.4437
X1.3106Y-3.5437
X1.3106Y-3.6437
X1.3106Y-3.7437
X1.3106Y-3.8437
X1.3106Y-3.9437
X1.3106Y-4.0437
X3.6106Y-2.2437
X3.6106Y-2.3437
X3.6106Y-2.4437
X3.6106Y-2.5437
X3.6106Y-2.6437
X3.6106Y-2.7437
X3.6106Y-2.8437
X3.6106Y-2.9437
X3.6106Y-3.0437
X3.6106Y-3.1437
X3.6106Y-3.2437
X3.6106Y-3.3437
X3.6106Y-3.4437
X3.6106Y-3.5437
X3.6106Y-3.6437
X3.6106Y-3.7437
X3.6106Y-3.8437
X3.6106Y-3.9437
X3.6106Y-4.0437
X3.7106Y-2.2437
X3.7106Y-2.3437
X3.7106Y-2.4437
X3.7106Y-2.5437
X3.7106Y-2.6437
X3.7106Y-2.7437
X3.7106Y-2.8437
X3.7106Y-2.9437
X3.7106Y-3.0437
X3.7106Y-3.1437
X3.7106Y-3.2437
X3.7106Y-3.3437
X3.7106Y-3.4437
X3.7106Y-3.5437
X3.7106Y-3.6437
X3.7106Y-3.7437
X3.7106Y-3.8437
X3.7106Y-3.9437
X3.7106Y-4.0437
T7
X1.5106Y-2.6437
X1.5106Y-2.7437
X1.5106Y-2.8437
X1.5106Y-2.9437
X1.5106Y-3.0437
X1.5106Y-3.1437
X1.5106Y-3.2437
X1.5106Y-3.3437
X1.5106Y-3.5437
X1.5106Y-3.6437
X1.5106Y-3.7437
X1.5106Y-3.8437
X1.5106Y-3.9437
X1.5106Y-4.0437
X3.4106Y-2.2839
X3.4106Y-2.3839
X3.4106Y-2.4839
X3.4106Y-2.5839
X3.4106Y-2.6839
X3.4106Y-2.7839
X3.4106Y-2.8839
X3.4106Y-2.9839
X3.4106Y-3.0839
X3.4106Y-3.1839
X3.4106Y-3.3437
X3.4106Y-3.4437
X3.4106Y-3.5437
X3.4106Y-3.6437
X3.4106Y-3.7437
X3.4106Y-3.8437
X3.4106Y-3.9437
X3.4106Y-4.0437
T8
X4.3307Y-2.3622
X4.3307Y-5.1181
X7.4803Y-2.3622
X7.4803Y-5.1181
T4
G00X6.1811Y-4.8976
M15
G01X6.1811Y-4.7087
M16
G05
G00X6.4567Y-4.8976
M15
G01X6.4567Y-4.7087
M16
G05
T0
M30
