%TF.GenerationSoftware,KiCad,Pcbnew,(6.0.7)*%
%TF.CreationDate,2023-04-14T09:22:38+03:00*%
%TF.ProjectId,KiCAD design,4b694341-4420-4646-9573-69676e2e6b69,rev?*%
%TF.SameCoordinates,Original*%
%TF.FileFunction,Drillmap*%
%TF.FilePolarity,Positive*%
%FSLAX45Y45*%
G04 Gerber Fmt 4.5, Leading zero omitted, Abs format (unit mm)*
G04 Created by KiCad (PCBNEW (6.0.7)) date 2023-04-14 09:22:38*
%MOMM*%
%LPD*%
G01*
G04 APERTURE LIST*
%ADD10C,0.100000*%
%ADD11C,0.200000*%
%ADD12C,0.300000*%
G04 APERTURE END LIST*
D10*
X19700000Y-13700000D02*
X19700000Y-5300000D01*
X10300000Y-13700000D02*
X10300000Y-13500000D01*
X19700000Y-5300000D02*
X10300000Y-5300000D01*
X10300000Y-5300000D02*
X10300000Y-6000000D01*
X11000000Y-13700000D02*
X10300000Y-13700000D01*
X10300000Y-6000000D02*
X10300000Y-13500000D01*
X11000000Y-13700000D02*
X19700000Y-13700000D01*
D11*
D12*
X3687000Y-5168000D02*
X3987000Y-5468000D01*
X3987000Y-5168000D02*
X3687000Y-5468000D01*
X6989000Y-10375000D02*
X7289000Y-10675000D01*
X7289000Y-10375000D02*
X6989000Y-10675000D01*
X8513000Y-5295000D02*
X8813000Y-5595000D01*
X8813000Y-5295000D02*
X8513000Y-5595000D01*
D11*
X10552619Y-14015476D02*
X10552619Y-13815476D01*
X10600238Y-13815476D01*
X10628810Y-13825000D01*
X10647857Y-13844048D01*
X10657381Y-13863095D01*
X10666905Y-13901190D01*
X10666905Y-13929762D01*
X10657381Y-13967857D01*
X10647857Y-13986905D01*
X10628810Y-14005952D01*
X10600238Y-14015476D01*
X10552619Y-14015476D01*
X10752619Y-14015476D02*
X10752619Y-13882143D01*
X10752619Y-13920238D02*
X10762143Y-13901190D01*
X10771667Y-13891667D01*
X10790714Y-13882143D01*
X10809762Y-13882143D01*
X10876429Y-14015476D02*
X10876429Y-13882143D01*
X10876429Y-13815476D02*
X10866905Y-13825000D01*
X10876429Y-13834524D01*
X10885952Y-13825000D01*
X10876429Y-13815476D01*
X10876429Y-13834524D01*
X11000238Y-14015476D02*
X10981190Y-14005952D01*
X10971667Y-13986905D01*
X10971667Y-13815476D01*
X11105000Y-14015476D02*
X11085952Y-14005952D01*
X11076429Y-13986905D01*
X11076429Y-13815476D01*
X11333571Y-14015476D02*
X11333571Y-13815476D01*
X11400238Y-13958333D01*
X11466905Y-13815476D01*
X11466905Y-14015476D01*
X11647857Y-14015476D02*
X11647857Y-13910714D01*
X11638333Y-13891667D01*
X11619286Y-13882143D01*
X11581190Y-13882143D01*
X11562143Y-13891667D01*
X11647857Y-14005952D02*
X11628809Y-14015476D01*
X11581190Y-14015476D01*
X11562143Y-14005952D01*
X11552619Y-13986905D01*
X11552619Y-13967857D01*
X11562143Y-13948809D01*
X11581190Y-13939286D01*
X11628809Y-13939286D01*
X11647857Y-13929762D01*
X11743095Y-13882143D02*
X11743095Y-14082143D01*
X11743095Y-13891667D02*
X11762143Y-13882143D01*
X11800238Y-13882143D01*
X11819286Y-13891667D01*
X11828809Y-13901190D01*
X11838333Y-13920238D01*
X11838333Y-13977381D01*
X11828809Y-13996428D01*
X11819286Y-14005952D01*
X11800238Y-14015476D01*
X11762143Y-14015476D01*
X11743095Y-14005952D01*
X11924048Y-13996428D02*
X11933571Y-14005952D01*
X11924048Y-14015476D01*
X11914524Y-14005952D01*
X11924048Y-13996428D01*
X11924048Y-14015476D01*
X11924048Y-13891667D02*
X11933571Y-13901190D01*
X11924048Y-13910714D01*
X11914524Y-13901190D01*
X11924048Y-13891667D01*
X11924048Y-13910714D01*
X10095000Y-14245000D02*
X10295000Y-14445000D01*
X10295000Y-14245000D02*
X10095000Y-14445000D01*
X10533571Y-14235476D02*
X10657381Y-14235476D01*
X10590714Y-14311667D01*
X10619286Y-14311667D01*
X10638333Y-14321190D01*
X10647857Y-14330714D01*
X10657381Y-14349762D01*
X10657381Y-14397381D01*
X10647857Y-14416428D01*
X10638333Y-14425952D01*
X10619286Y-14435476D01*
X10562143Y-14435476D01*
X10543095Y-14425952D01*
X10533571Y-14416428D01*
X10743095Y-14416428D02*
X10752619Y-14425952D01*
X10743095Y-14435476D01*
X10733571Y-14425952D01*
X10743095Y-14416428D01*
X10743095Y-14435476D01*
X10876429Y-14235476D02*
X10895476Y-14235476D01*
X10914524Y-14245000D01*
X10924048Y-14254524D01*
X10933571Y-14273571D01*
X10943095Y-14311667D01*
X10943095Y-14359286D01*
X10933571Y-14397381D01*
X10924048Y-14416428D01*
X10914524Y-14425952D01*
X10895476Y-14435476D01*
X10876429Y-14435476D01*
X10857381Y-14425952D01*
X10847857Y-14416428D01*
X10838333Y-14397381D01*
X10828810Y-14359286D01*
X10828810Y-14311667D01*
X10838333Y-14273571D01*
X10847857Y-14254524D01*
X10857381Y-14245000D01*
X10876429Y-14235476D01*
X11066905Y-14235476D02*
X11085952Y-14235476D01*
X11105000Y-14245000D01*
X11114524Y-14254524D01*
X11124048Y-14273571D01*
X11133571Y-14311667D01*
X11133571Y-14359286D01*
X11124048Y-14397381D01*
X11114524Y-14416428D01*
X11105000Y-14425952D01*
X11085952Y-14435476D01*
X11066905Y-14435476D01*
X11047857Y-14425952D01*
X11038333Y-14416428D01*
X11028810Y-14397381D01*
X11019286Y-14359286D01*
X11019286Y-14311667D01*
X11028810Y-14273571D01*
X11038333Y-14254524D01*
X11047857Y-14245000D01*
X11066905Y-14235476D01*
X11257381Y-14235476D02*
X11276428Y-14235476D01*
X11295476Y-14245000D01*
X11305000Y-14254524D01*
X11314524Y-14273571D01*
X11324048Y-14311667D01*
X11324048Y-14359286D01*
X11314524Y-14397381D01*
X11305000Y-14416428D01*
X11295476Y-14425952D01*
X11276428Y-14435476D01*
X11257381Y-14435476D01*
X11238333Y-14425952D01*
X11228809Y-14416428D01*
X11219286Y-14397381D01*
X11209762Y-14359286D01*
X11209762Y-14311667D01*
X11219286Y-14273571D01*
X11228809Y-14254524D01*
X11238333Y-14245000D01*
X11257381Y-14235476D01*
X11409762Y-14435476D02*
X11409762Y-14302143D01*
X11409762Y-14321190D02*
X11419286Y-14311667D01*
X11438333Y-14302143D01*
X11466905Y-14302143D01*
X11485952Y-14311667D01*
X11495476Y-14330714D01*
X11495476Y-14435476D01*
X11495476Y-14330714D02*
X11505000Y-14311667D01*
X11524048Y-14302143D01*
X11552619Y-14302143D01*
X11571667Y-14311667D01*
X11581190Y-14330714D01*
X11581190Y-14435476D01*
X11676428Y-14435476D02*
X11676428Y-14302143D01*
X11676428Y-14321190D02*
X11685952Y-14311667D01*
X11705000Y-14302143D01*
X11733571Y-14302143D01*
X11752619Y-14311667D01*
X11762143Y-14330714D01*
X11762143Y-14435476D01*
X11762143Y-14330714D02*
X11771667Y-14311667D01*
X11790714Y-14302143D01*
X11819286Y-14302143D01*
X11838333Y-14311667D01*
X11847857Y-14330714D01*
X11847857Y-14435476D01*
X12238333Y-14225952D02*
X12066905Y-14483095D01*
X12495476Y-14235476D02*
X12514524Y-14235476D01*
X12533571Y-14245000D01*
X12543095Y-14254524D01*
X12552619Y-14273571D01*
X12562143Y-14311667D01*
X12562143Y-14359286D01*
X12552619Y-14397381D01*
X12543095Y-14416428D01*
X12533571Y-14425952D01*
X12514524Y-14435476D01*
X12495476Y-14435476D01*
X12476428Y-14425952D01*
X12466905Y-14416428D01*
X12457381Y-14397381D01*
X12447857Y-14359286D01*
X12447857Y-14311667D01*
X12457381Y-14273571D01*
X12466905Y-14254524D01*
X12476428Y-14245000D01*
X12495476Y-14235476D01*
X12647857Y-14416428D02*
X12657381Y-14425952D01*
X12647857Y-14435476D01*
X12638333Y-14425952D01*
X12647857Y-14416428D01*
X12647857Y-14435476D01*
X12847857Y-14435476D02*
X12733571Y-14435476D01*
X12790714Y-14435476D02*
X12790714Y-14235476D01*
X12771667Y-14264048D01*
X12752619Y-14283095D01*
X12733571Y-14292619D01*
X13038333Y-14435476D02*
X12924048Y-14435476D01*
X12981190Y-14435476D02*
X12981190Y-14235476D01*
X12962143Y-14264048D01*
X12943095Y-14283095D01*
X12924048Y-14292619D01*
X13152619Y-14321190D02*
X13133571Y-14311667D01*
X13124048Y-14302143D01*
X13114524Y-14283095D01*
X13114524Y-14273571D01*
X13124048Y-14254524D01*
X13133571Y-14245000D01*
X13152619Y-14235476D01*
X13190714Y-14235476D01*
X13209762Y-14245000D01*
X13219286Y-14254524D01*
X13228809Y-14273571D01*
X13228809Y-14283095D01*
X13219286Y-14302143D01*
X13209762Y-14311667D01*
X13190714Y-14321190D01*
X13152619Y-14321190D01*
X13133571Y-14330714D01*
X13124048Y-14340238D01*
X13114524Y-14359286D01*
X13114524Y-14397381D01*
X13124048Y-14416428D01*
X13133571Y-14425952D01*
X13152619Y-14435476D01*
X13190714Y-14435476D01*
X13209762Y-14425952D01*
X13219286Y-14416428D01*
X13228809Y-14397381D01*
X13228809Y-14359286D01*
X13219286Y-14340238D01*
X13209762Y-14330714D01*
X13190714Y-14321190D01*
X13419286Y-14435476D02*
X13305000Y-14435476D01*
X13362143Y-14435476D02*
X13362143Y-14235476D01*
X13343095Y-14264048D01*
X13324048Y-14283095D01*
X13305000Y-14292619D01*
X13495476Y-14235476D02*
X13495476Y-14273571D01*
X13571667Y-14235476D02*
X13571667Y-14273571D01*
X13866905Y-14511667D02*
X13857381Y-14502143D01*
X13838333Y-14473571D01*
X13828809Y-14454524D01*
X13819286Y-14425952D01*
X13809762Y-14378333D01*
X13809762Y-14340238D01*
X13819286Y-14292619D01*
X13828809Y-14264048D01*
X13838333Y-14245000D01*
X13857381Y-14216428D01*
X13866905Y-14206905D01*
X13924048Y-14235476D02*
X14047857Y-14235476D01*
X13981190Y-14311667D01*
X14009762Y-14311667D01*
X14028809Y-14321190D01*
X14038333Y-14330714D01*
X14047857Y-14349762D01*
X14047857Y-14397381D01*
X14038333Y-14416428D01*
X14028809Y-14425952D01*
X14009762Y-14435476D01*
X13952619Y-14435476D01*
X13933571Y-14425952D01*
X13924048Y-14416428D01*
X14285952Y-14435476D02*
X14285952Y-14235476D01*
X14371667Y-14435476D02*
X14371667Y-14330714D01*
X14362143Y-14311667D01*
X14343095Y-14302143D01*
X14314524Y-14302143D01*
X14295476Y-14311667D01*
X14285952Y-14321190D01*
X14495476Y-14435476D02*
X14476428Y-14425952D01*
X14466905Y-14416428D01*
X14457381Y-14397381D01*
X14457381Y-14340238D01*
X14466905Y-14321190D01*
X14476428Y-14311667D01*
X14495476Y-14302143D01*
X14524048Y-14302143D01*
X14543095Y-14311667D01*
X14552619Y-14321190D01*
X14562143Y-14340238D01*
X14562143Y-14397381D01*
X14552619Y-14416428D01*
X14543095Y-14425952D01*
X14524048Y-14435476D01*
X14495476Y-14435476D01*
X14676428Y-14435476D02*
X14657381Y-14425952D01*
X14647857Y-14406905D01*
X14647857Y-14235476D01*
X14828809Y-14425952D02*
X14809762Y-14435476D01*
X14771667Y-14435476D01*
X14752619Y-14425952D01*
X14743095Y-14406905D01*
X14743095Y-14330714D01*
X14752619Y-14311667D01*
X14771667Y-14302143D01*
X14809762Y-14302143D01*
X14828809Y-14311667D01*
X14838333Y-14330714D01*
X14838333Y-14349762D01*
X14743095Y-14368809D01*
X14914524Y-14425952D02*
X14933571Y-14435476D01*
X14971667Y-14435476D01*
X14990714Y-14425952D01*
X15000238Y-14406905D01*
X15000238Y-14397381D01*
X14990714Y-14378333D01*
X14971667Y-14368809D01*
X14943095Y-14368809D01*
X14924048Y-14359286D01*
X14914524Y-14340238D01*
X14914524Y-14330714D01*
X14924048Y-14311667D01*
X14943095Y-14302143D01*
X14971667Y-14302143D01*
X14990714Y-14311667D01*
X15066905Y-14511667D02*
X15076428Y-14502143D01*
X15095476Y-14473571D01*
X15105000Y-14454524D01*
X15114524Y-14425952D01*
X15124048Y-14378333D01*
X15124048Y-14340238D01*
X15114524Y-14292619D01*
X15105000Y-14264048D01*
X15095476Y-14245000D01*
X15076428Y-14216428D01*
X15066905Y-14206905D01*
X15428809Y-14511667D02*
X15419286Y-14502143D01*
X15400238Y-14473571D01*
X15390714Y-14454524D01*
X15381190Y-14425952D01*
X15371667Y-14378333D01*
X15371667Y-14340238D01*
X15381190Y-14292619D01*
X15390714Y-14264048D01*
X15400238Y-14245000D01*
X15419286Y-14216428D01*
X15428809Y-14206905D01*
X15505000Y-14302143D02*
X15505000Y-14435476D01*
X15505000Y-14321190D02*
X15514524Y-14311667D01*
X15533571Y-14302143D01*
X15562143Y-14302143D01*
X15581190Y-14311667D01*
X15590714Y-14330714D01*
X15590714Y-14435476D01*
X15714524Y-14435476D02*
X15695476Y-14425952D01*
X15685952Y-14416428D01*
X15676428Y-14397381D01*
X15676428Y-14340238D01*
X15685952Y-14321190D01*
X15695476Y-14311667D01*
X15714524Y-14302143D01*
X15743095Y-14302143D01*
X15762143Y-14311667D01*
X15771667Y-14321190D01*
X15781190Y-14340238D01*
X15781190Y-14397381D01*
X15771667Y-14416428D01*
X15762143Y-14425952D01*
X15743095Y-14435476D01*
X15714524Y-14435476D01*
X15838333Y-14302143D02*
X15914524Y-14302143D01*
X15866905Y-14235476D02*
X15866905Y-14406905D01*
X15876428Y-14425952D01*
X15895476Y-14435476D01*
X15914524Y-14435476D01*
X16133571Y-14302143D02*
X16133571Y-14502143D01*
X16133571Y-14311667D02*
X16152619Y-14302143D01*
X16190714Y-14302143D01*
X16209762Y-14311667D01*
X16219286Y-14321190D01*
X16228809Y-14340238D01*
X16228809Y-14397381D01*
X16219286Y-14416428D01*
X16209762Y-14425952D01*
X16190714Y-14435476D01*
X16152619Y-14435476D01*
X16133571Y-14425952D01*
X16343095Y-14435476D02*
X16324048Y-14425952D01*
X16314524Y-14406905D01*
X16314524Y-14235476D01*
X16505000Y-14435476D02*
X16505000Y-14330714D01*
X16495476Y-14311667D01*
X16476428Y-14302143D01*
X16438333Y-14302143D01*
X16419286Y-14311667D01*
X16505000Y-14425952D02*
X16485952Y-14435476D01*
X16438333Y-14435476D01*
X16419286Y-14425952D01*
X16409762Y-14406905D01*
X16409762Y-14387857D01*
X16419286Y-14368809D01*
X16438333Y-14359286D01*
X16485952Y-14359286D01*
X16505000Y-14349762D01*
X16571667Y-14302143D02*
X16647857Y-14302143D01*
X16600238Y-14235476D02*
X16600238Y-14406905D01*
X16609762Y-14425952D01*
X16628809Y-14435476D01*
X16647857Y-14435476D01*
X16790714Y-14425952D02*
X16771667Y-14435476D01*
X16733571Y-14435476D01*
X16714524Y-14425952D01*
X16705000Y-14406905D01*
X16705000Y-14330714D01*
X16714524Y-14311667D01*
X16733571Y-14302143D01*
X16771667Y-14302143D01*
X16790714Y-14311667D01*
X16800238Y-14330714D01*
X16800238Y-14349762D01*
X16705000Y-14368809D01*
X16971667Y-14435476D02*
X16971667Y-14235476D01*
X16971667Y-14425952D02*
X16952619Y-14435476D01*
X16914524Y-14435476D01*
X16895476Y-14425952D01*
X16885952Y-14416428D01*
X16876429Y-14397381D01*
X16876429Y-14340238D01*
X16885952Y-14321190D01*
X16895476Y-14311667D01*
X16914524Y-14302143D01*
X16952619Y-14302143D01*
X16971667Y-14311667D01*
X17047857Y-14511667D02*
X17057381Y-14502143D01*
X17076429Y-14473571D01*
X17085952Y-14454524D01*
X17095476Y-14425952D01*
X17105000Y-14378333D01*
X17105000Y-14340238D01*
X17095476Y-14292619D01*
X17085952Y-14264048D01*
X17076429Y-14245000D01*
X17057381Y-14216428D01*
X17047857Y-14206905D01*
M02*
