%TF.GenerationSoftware,KiCad,Pcbnew,(6.0.7)*%
%TF.CreationDate,2023-04-14T09:22:28+03:00*%
%TF.ProjectId,KiCAD design,4b694341-4420-4646-9573-69676e2e6b69,rev?*%
%TF.SameCoordinates,Original*%
%TF.FileFunction,Paste,Top*%
%TF.FilePolarity,Positive*%
%FSLAX46Y46*%
G04 Gerber Fmt 4.6, Leading zero omitted, Abs format (unit mm)*
G04 Created by KiCad (PCBNEW (6.0.7)) date 2023-04-14 09:22:28*
%MOMM*%
%LPD*%
G01*
G04 APERTURE LIST*
G04 Aperture macros list*
%AMRoundRect*
0 Rectangle with rounded corners*
0 $1 Rounding radius*
0 $2 $3 $4 $5 $6 $7 $8 $9 X,Y pos of 4 corners*
0 Add a 4 corners polygon primitive as box body*
4,1,4,$2,$3,$4,$5,$6,$7,$8,$9,$2,$3,0*
0 Add four circle primitives for the rounded corners*
1,1,$1+$1,$2,$3*
1,1,$1+$1,$4,$5*
1,1,$1+$1,$6,$7*
1,1,$1+$1,$8,$9*
0 Add four rect primitives between the rounded corners*
20,1,$1+$1,$2,$3,$4,$5,0*
20,1,$1+$1,$4,$5,$6,$7,0*
20,1,$1+$1,$6,$7,$8,$9,0*
20,1,$1+$1,$8,$9,$2,$3,0*%
G04 Aperture macros list end*
%ADD10RoundRect,0.250000X-0.475000X0.250000X-0.475000X-0.250000X0.475000X-0.250000X0.475000X0.250000X0*%
%ADD11RoundRect,0.250000X-0.450000X0.262500X-0.450000X-0.262500X0.450000X-0.262500X0.450000X0.262500X0*%
%ADD12RoundRect,0.150000X0.825000X0.150000X-0.825000X0.150000X-0.825000X-0.150000X0.825000X-0.150000X0*%
%ADD13RoundRect,0.250000X-0.250000X-0.475000X0.250000X-0.475000X0.250000X0.475000X-0.250000X0.475000X0*%
%ADD14RoundRect,0.250000X0.250000X0.475000X-0.250000X0.475000X-0.250000X-0.475000X0.250000X-0.475000X0*%
%ADD15R,2.000000X1.500000*%
%ADD16R,2.000000X3.800000*%
%ADD17RoundRect,0.250000X0.625000X-0.375000X0.625000X0.375000X-0.625000X0.375000X-0.625000X-0.375000X0*%
%ADD18RoundRect,0.250000X0.450000X-0.262500X0.450000X0.262500X-0.450000X0.262500X-0.450000X-0.262500X0*%
%ADD19RoundRect,0.250000X0.475000X-0.250000X0.475000X0.250000X-0.475000X0.250000X-0.475000X-0.250000X0*%
%ADD20RoundRect,0.250000X0.262500X0.450000X-0.262500X0.450000X-0.262500X-0.450000X0.262500X-0.450000X0*%
%ADD21RoundRect,0.150000X0.150000X-0.512500X0.150000X0.512500X-0.150000X0.512500X-0.150000X-0.512500X0*%
G04 APERTURE END LIST*
D10*
%TO.C,C402*%
X133000000Y-110050000D03*
X133000000Y-111950000D03*
%TD*%
D11*
%TO.C,R402*%
X120500000Y-131687500D03*
X120500000Y-133512500D03*
%TD*%
D12*
%TO.C,U401*%
X140475000Y-117905000D03*
X140475000Y-116635000D03*
X140475000Y-115365000D03*
X140475000Y-114095000D03*
X135525000Y-114095000D03*
X135525000Y-115365000D03*
X135525000Y-116635000D03*
X135525000Y-117905000D03*
%TD*%
D13*
%TO.C,C401*%
X130050000Y-118000000D03*
X131950000Y-118000000D03*
%TD*%
D14*
%TO.C,C302*%
X147400000Y-95000000D03*
X145500000Y-95000000D03*
%TD*%
D13*
%TO.C,C301*%
X147550000Y-107500000D03*
X149450000Y-107500000D03*
%TD*%
D11*
%TO.C,R403*%
X125500000Y-131687500D03*
X125500000Y-133512500D03*
%TD*%
D15*
%TO.C,U301*%
X147350000Y-98700000D03*
X147350000Y-101000000D03*
D16*
X153650000Y-101000000D03*
D15*
X147350000Y-103300000D03*
%TD*%
D10*
%TO.C,C303*%
X162000000Y-106000000D03*
X162000000Y-107900000D03*
%TD*%
D17*
%TO.C,D402*%
X120500000Y-129000000D03*
X120500000Y-126200000D03*
%TD*%
D11*
%TO.C,R401*%
X182500000Y-132587500D03*
X182500000Y-134412500D03*
%TD*%
D18*
%TO.C,R405*%
X130000000Y-111912500D03*
X130000000Y-110087500D03*
%TD*%
D17*
%TO.C,D401*%
X182500000Y-129900000D03*
X182500000Y-127100000D03*
%TD*%
%TO.C,D403*%
X125500000Y-129000000D03*
X125500000Y-126200000D03*
%TD*%
D19*
%TO.C,C304*%
X159000000Y-96950000D03*
X159000000Y-95050000D03*
%TD*%
D20*
%TO.C,R404*%
X131912500Y-115000000D03*
X130087500Y-115000000D03*
%TD*%
D21*
%TO.C,U302*%
X159775000Y-102087500D03*
X160725000Y-102087500D03*
X161675000Y-102087500D03*
X161675000Y-99812500D03*
X159775000Y-99812500D03*
%TD*%
M02*
