%TF.GenerationSoftware,KiCad,Pcbnew,(6.0.10)*%
%TF.CreationDate,2023-04-21T16:10:55+03:00*%
%TF.ProjectId,KiCAD design,4b694341-4420-4646-9573-69676e2e6b69,rev?*%
%TF.SameCoordinates,Original*%
%TF.FileFunction,Legend,Bot*%
%TF.FilePolarity,Positive*%
%FSLAX46Y46*%
G04 Gerber Fmt 4.6, Leading zero omitted, Abs format (unit mm)*
G04 Created by KiCad (PCBNEW (6.0.10)) date 2023-04-21 16:10:55*
%MOMM*%
%LPD*%
G01*
G04 APERTURE LIST*
%ADD10C,0.150000*%
G04 APERTURE END LIST*
D10*
%TO.C,H101*%
X193714285Y-55702380D02*
X193714285Y-54702380D01*
X193714285Y-55178571D02*
X193142857Y-55178571D01*
X193142857Y-55702380D02*
X193142857Y-54702380D01*
X192142857Y-55702380D02*
X192714285Y-55702380D01*
X192428571Y-55702380D02*
X192428571Y-54702380D01*
X192523809Y-54845238D01*
X192619047Y-54940476D01*
X192714285Y-54988095D01*
X191523809Y-54702380D02*
X191428571Y-54702380D01*
X191333333Y-54750000D01*
X191285714Y-54797619D01*
X191238095Y-54892857D01*
X191190476Y-55083333D01*
X191190476Y-55321428D01*
X191238095Y-55511904D01*
X191285714Y-55607142D01*
X191333333Y-55654761D01*
X191428571Y-55702380D01*
X191523809Y-55702380D01*
X191619047Y-55654761D01*
X191666666Y-55607142D01*
X191714285Y-55511904D01*
X191761904Y-55321428D01*
X191761904Y-55083333D01*
X191714285Y-54892857D01*
X191666666Y-54797619D01*
X191619047Y-54750000D01*
X191523809Y-54702380D01*
X190238095Y-55702380D02*
X190809523Y-55702380D01*
X190523809Y-55702380D02*
X190523809Y-54702380D01*
X190619047Y-54845238D01*
X190714285Y-54940476D01*
X190809523Y-54988095D01*
%TD*%
M02*
