M48
; DRILL file {KiCad (6.0.10)} date Fri Apr 21 16:11:14 2023
; FORMAT={-:-/ absolute / metric / decimal}
; #@! TF.CreationDate,2023-04-21T16:11:14+03:00
; #@! TF.GenerationSoftware,Kicad,Pcbnew,(6.0.10)
; #@! TF.FileFunction,Plated,1,2,PTH
FMAT,2
METRIC
; #@! TA.AperFunction,Plated,PTH,ViaDrill
T1C0.400
; #@! TA.AperFunction,Plated,PTH,ComponentDrill
T2C0.950
; #@! TA.AperFunction,Plated,PTH,ComponentDrill
T3C0.980
; #@! TA.AperFunction,Plated,PTH,ComponentDrill
T4C1.000
; #@! TA.AperFunction,Plated,PTH,ComponentDrill
T5C4.300
; #@! TA.AperFunction,Plated,PTH,ComponentDrill
T6C4.500
%
G90
G05
T1
X118.5Y-107.0
X122.0Y-107.0
X124.0Y-94.5
X128.0Y-63.0
X143.0Y-114.5
X153.0Y-122.0
X160.5Y-94.0
X160.5Y-104.0
X170.0Y-101.0
X172.0Y-110.5
X176.5Y-60.5
X176.5Y-85.5
X176.5Y-101.0
X177.5Y-79.52
X184.5Y-83.5
X186.0Y-108.5
X187.0Y-96.5
X188.77Y-114.27
X191.0Y-88.0
X191.5Y-73.5
T2
X108.2Y-69.5
X108.2Y-72.0
X108.2Y-74.5
X108.2Y-83.5
X108.2Y-86.0
X108.2Y-88.5
T4
X118.25Y-57.5
X118.25Y-60.04
X118.25Y-62.58
X118.25Y-65.12
X118.25Y-67.66
X118.25Y-70.2
X118.25Y-72.74
X118.25Y-75.28
X118.25Y-77.82
X118.25Y-80.36
X118.25Y-82.9
X118.25Y-85.44
X118.25Y-87.98
X118.25Y-90.52
X118.25Y-93.06
X118.25Y-95.6
X118.25Y-98.14
X118.25Y-100.68
X118.25Y-103.22
X120.79Y-57.5
X120.79Y-60.04
X120.79Y-62.58
X120.79Y-65.12
X120.79Y-67.66
X120.79Y-70.2
X120.79Y-72.74
X120.79Y-75.28
X120.79Y-77.82
X120.79Y-80.36
X120.79Y-82.9
X120.79Y-85.44
X120.79Y-87.98
X120.79Y-90.52
X120.79Y-93.06
X120.79Y-95.6
X120.79Y-98.14
X120.79Y-100.68
X120.79Y-103.22
X179.2Y-57.5
X179.2Y-60.04
X179.2Y-62.58
X179.2Y-65.12
X179.2Y-67.66
X179.2Y-70.2
X179.2Y-72.74
X179.2Y-75.28
X179.2Y-77.82
X179.2Y-80.36
X179.2Y-82.9
X179.2Y-85.44
X179.2Y-87.98
X179.2Y-90.52
X179.2Y-93.06
X179.2Y-95.6
X179.2Y-98.14
X179.2Y-100.68
X179.2Y-103.22
X181.74Y-57.5
X181.74Y-60.04
X181.74Y-62.58
X181.74Y-65.12
X181.74Y-67.66
X181.74Y-70.2
X181.74Y-72.74
X181.74Y-75.28
X181.74Y-77.82
X181.74Y-80.36
X181.74Y-82.9
X181.74Y-85.44
X181.74Y-87.98
X181.74Y-90.52
X181.74Y-93.06
X181.74Y-95.6
X181.74Y-98.14
X181.74Y-100.68
X181.74Y-103.22
X191.735Y-106.65
X191.735Y-109.19
X191.735Y-111.73
X191.735Y-114.27
X191.735Y-116.81
X191.735Y-119.35
X194.0Y-68.57
X194.0Y-71.11
X194.0Y-73.65
X194.0Y-76.19
X194.0Y-78.73
X194.0Y-81.27
X194.0Y-87.84
X194.0Y-90.38
X194.0Y-92.92
X194.0Y-95.46
X194.0Y-98.0
X194.0Y-100.54
X194.275Y-106.65
X194.275Y-109.19
X194.275Y-111.73
X194.275Y-114.27
X194.275Y-116.81
X194.275Y-119.35
T5
X108.0Y-60.0
X108.0Y-132.0
X192.0Y-60.0
X192.0Y-132.0
T6
X175.0Y-124.8
X175.0Y-132.0
T3
G00X157.0Y-124.4
M15
G01X157.0Y-119.6
M16
G05
G00X164.0Y-124.4
M15
G01X164.0Y-119.6
M16
G05
T0
M30
