%TF.GenerationSoftware,KiCad,Pcbnew,(6.0.7)*%
%TF.CreationDate,2023-04-14T09:22:38+03:00*%
%TF.ProjectId,KiCAD design,4b694341-4420-4646-9573-69676e2e6b69,rev?*%
%TF.SameCoordinates,Original*%
%TF.FileFunction,Drillmap*%
%TF.FilePolarity,Positive*%
%FSLAX45Y45*%
G04 Gerber Fmt 4.5, Leading zero omitted, Abs format (unit mm)*
G04 Created by KiCad (PCBNEW (6.0.7)) date 2023-04-14 09:22:38*
%MOMM*%
%LPD*%
G01*
G04 APERTURE LIST*
%ADD10C,0.100000*%
%ADD11C,0.200000*%
%ADD12C,0.040000*%
%ADD13C,0.050000*%
%ADD14C,0.095000*%
%ADD15C,0.098000*%
%ADD16C,0.102000*%
%ADD17C,0.107000*%
%ADD18C,0.320000*%
G04 APERTURE END LIST*
D10*
X19700000Y-13700000D02*
X19700000Y-5300000D01*
X10300000Y-13700000D02*
X10300000Y-13500000D01*
X19700000Y-5300000D02*
X10300000Y-5300000D01*
X10300000Y-5300000D02*
X10300000Y-6000000D01*
X11000000Y-13700000D02*
X10300000Y-13700000D01*
X10300000Y-6000000D02*
X10300000Y-13500000D01*
X11000000Y-13700000D02*
X19700000Y-13700000D01*
D11*
D12*
X11830000Y-10680000D02*
X11870000Y-10720000D01*
X11870000Y-10680000D02*
X11830000Y-10720000D01*
X12180000Y-10680000D02*
X12220000Y-10720000D01*
X12220000Y-10680000D02*
X12180000Y-10720000D01*
X12380000Y-9430000D02*
X12420000Y-9470000D01*
X12420000Y-9430000D02*
X12380000Y-9470000D01*
X12780000Y-6280000D02*
X12820000Y-6320000D01*
X12820000Y-6280000D02*
X12780000Y-6320000D01*
X14280000Y-11430000D02*
X14320000Y-11470000D01*
X14320000Y-11430000D02*
X14280000Y-11470000D01*
X15280000Y-12180000D02*
X15320000Y-12220000D01*
X15320000Y-12180000D02*
X15280000Y-12220000D01*
X15730000Y-9480000D02*
X15770000Y-9520000D01*
X15770000Y-9480000D02*
X15730000Y-9520000D01*
X16030000Y-10380000D02*
X16070000Y-10420000D01*
X16070000Y-10380000D02*
X16030000Y-10420000D01*
X16980000Y-9980000D02*
X17020000Y-10020000D01*
X17020000Y-9980000D02*
X16980000Y-10020000D01*
X17180000Y-11030000D02*
X17220000Y-11070000D01*
X17220000Y-11030000D02*
X17180000Y-11070000D01*
X17630000Y-6030000D02*
X17670000Y-6070000D01*
X17670000Y-6030000D02*
X17630000Y-6070000D01*
X17630000Y-8530000D02*
X17670000Y-8570000D01*
X17670000Y-8530000D02*
X17630000Y-8570000D01*
X17630000Y-10080000D02*
X17670000Y-10120000D01*
X17670000Y-10080000D02*
X17630000Y-10120000D01*
X17730000Y-7932000D02*
X17770000Y-7972000D01*
X17770000Y-7932000D02*
X17730000Y-7972000D01*
X18430000Y-8330000D02*
X18470000Y-8370000D01*
X18470000Y-8330000D02*
X18430000Y-8370000D01*
X18580000Y-10830000D02*
X18620000Y-10870000D01*
X18620000Y-10830000D02*
X18580000Y-10870000D01*
X18680000Y-9630000D02*
X18720000Y-9670000D01*
X18720000Y-9630000D02*
X18680000Y-9670000D01*
X18857000Y-11407000D02*
X18897000Y-11447000D01*
X18897000Y-11407000D02*
X18857000Y-11447000D01*
X19080000Y-8780000D02*
X19120000Y-8820000D01*
X19120000Y-8780000D02*
X19080000Y-8820000D01*
X19130000Y-7330000D02*
X19170000Y-7370000D01*
X19170000Y-7330000D02*
X19130000Y-7370000D01*
D13*
X10785000Y-6000000D02*
G75*
G03*
X10785000Y-6000000I-25000J0D01*
G01*
X10785000Y-13000000D02*
G75*
G03*
X10785000Y-13000000I-25000J0D01*
G01*
X10855294Y-5830294D02*
G75*
G03*
X10855294Y-5830294I-25000J0D01*
G01*
X10855294Y-6169706D02*
G75*
G03*
X10855294Y-6169706I-25000J0D01*
G01*
X10855294Y-12830294D02*
G75*
G03*
X10855294Y-12830294I-25000J0D01*
G01*
X10855294Y-13169706D02*
G75*
G03*
X10855294Y-13169706I-25000J0D01*
G01*
X11025000Y-5760000D02*
G75*
G03*
X11025000Y-5760000I-25000J0D01*
G01*
X11025000Y-6240000D02*
G75*
G03*
X11025000Y-6240000I-25000J0D01*
G01*
X11025000Y-12760000D02*
G75*
G03*
X11025000Y-12760000I-25000J0D01*
G01*
X11025000Y-13240000D02*
G75*
G03*
X11025000Y-13240000I-25000J0D01*
G01*
X11194706Y-5830294D02*
G75*
G03*
X11194706Y-5830294I-25000J0D01*
G01*
X11194706Y-6169706D02*
G75*
G03*
X11194706Y-6169706I-25000J0D01*
G01*
X11194706Y-12830294D02*
G75*
G03*
X11194706Y-12830294I-25000J0D01*
G01*
X11194706Y-13169706D02*
G75*
G03*
X11194706Y-13169706I-25000J0D01*
G01*
X11265000Y-6000000D02*
G75*
G03*
X11265000Y-6000000I-25000J0D01*
G01*
X11265000Y-13000000D02*
G75*
G03*
X11265000Y-13000000I-25000J0D01*
G01*
X18785000Y-6000000D02*
G75*
G03*
X18785000Y-6000000I-25000J0D01*
G01*
X18785000Y-13000000D02*
G75*
G03*
X18785000Y-13000000I-25000J0D01*
G01*
X18855294Y-5830294D02*
G75*
G03*
X18855294Y-5830294I-25000J0D01*
G01*
X18855294Y-6169706D02*
G75*
G03*
X18855294Y-6169706I-25000J0D01*
G01*
X18855294Y-12830294D02*
G75*
G03*
X18855294Y-12830294I-25000J0D01*
G01*
X18855294Y-13169706D02*
G75*
G03*
X18855294Y-13169706I-25000J0D01*
G01*
X19025000Y-5760000D02*
G75*
G03*
X19025000Y-5760000I-25000J0D01*
G01*
X19025000Y-6240000D02*
G75*
G03*
X19025000Y-6240000I-25000J0D01*
G01*
X19025000Y-12760000D02*
G75*
G03*
X19025000Y-12760000I-25000J0D01*
G01*
X19025000Y-13240000D02*
G75*
G03*
X19025000Y-13240000I-25000J0D01*
G01*
X19194706Y-5830294D02*
G75*
G03*
X19194706Y-5830294I-25000J0D01*
G01*
X19194706Y-6169706D02*
G75*
G03*
X19194706Y-6169706I-25000J0D01*
G01*
X19194706Y-12830294D02*
G75*
G03*
X19194706Y-12830294I-25000J0D01*
G01*
X19194706Y-13169706D02*
G75*
G03*
X19194706Y-13169706I-25000J0D01*
G01*
X19265000Y-6000000D02*
G75*
G03*
X19265000Y-6000000I-25000J0D01*
G01*
X19265000Y-13000000D02*
G75*
G03*
X19265000Y-13000000I-25000J0D01*
G01*
D14*
X10820000Y-6902500D02*
X10820000Y-6997500D01*
X10772500Y-6950000D02*
X10867500Y-6950000D01*
X10820000Y-7152500D02*
X10820000Y-7247500D01*
X10772500Y-7200000D02*
X10867500Y-7200000D01*
X10820000Y-7402500D02*
X10820000Y-7497500D01*
X10772500Y-7450000D02*
X10867500Y-7450000D01*
X10820000Y-8302500D02*
X10820000Y-8397500D01*
X10772500Y-8350000D02*
X10867500Y-8350000D01*
X10820000Y-8552500D02*
X10820000Y-8647500D01*
X10772500Y-8600000D02*
X10867500Y-8600000D01*
X10820000Y-8802500D02*
X10820000Y-8897500D01*
X10772500Y-8850000D02*
X10867500Y-8850000D01*
D15*
X15734649Y-12234649D02*
X15734649Y-12165351D01*
X15665351Y-12165351D01*
X15665351Y-12234649D01*
X15734649Y-12234649D01*
D11*
X15749000Y-12440000D02*
X15749000Y-11960000D01*
X15651000Y-12440000D02*
X15651000Y-11960000D01*
X15749000Y-11960000D02*
G75*
G03*
X15651000Y-11960000I-49000J0D01*
G01*
X15651000Y-12440000D02*
G75*
G03*
X15749000Y-12440000I49000J0D01*
G01*
D15*
X16434649Y-12234649D02*
X16434649Y-12165351D01*
X16365351Y-12165351D01*
X16365351Y-12234649D01*
X16434649Y-12234649D01*
D11*
X16449000Y-12440000D02*
X16449000Y-11960000D01*
X16351000Y-12440000D02*
X16351000Y-11960000D01*
X16449000Y-11960000D02*
G75*
G03*
X16351000Y-11960000I-49000J0D01*
G01*
X16351000Y-12440000D02*
G75*
G03*
X16449000Y-12440000I49000J0D01*
G01*
D10*
X11825000Y-5800000D02*
X11875000Y-5750000D01*
X11825000Y-5700000D01*
X11775000Y-5750000D01*
X11825000Y-5800000D01*
X11825000Y-6054000D02*
X11875000Y-6004000D01*
X11825000Y-5954000D01*
X11775000Y-6004000D01*
X11825000Y-6054000D01*
X11825000Y-6308000D02*
X11875000Y-6258000D01*
X11825000Y-6208000D01*
X11775000Y-6258000D01*
X11825000Y-6308000D01*
X11825000Y-6562000D02*
X11875000Y-6512000D01*
X11825000Y-6462000D01*
X11775000Y-6512000D01*
X11825000Y-6562000D01*
X11825000Y-6816000D02*
X11875000Y-6766000D01*
X11825000Y-6716000D01*
X11775000Y-6766000D01*
X11825000Y-6816000D01*
X11825000Y-7070000D02*
X11875000Y-7020000D01*
X11825000Y-6970000D01*
X11775000Y-7020000D01*
X11825000Y-7070000D01*
X11825000Y-7324000D02*
X11875000Y-7274000D01*
X11825000Y-7224000D01*
X11775000Y-7274000D01*
X11825000Y-7324000D01*
X11825000Y-7578000D02*
X11875000Y-7528000D01*
X11825000Y-7478000D01*
X11775000Y-7528000D01*
X11825000Y-7578000D01*
X11825000Y-7832000D02*
X11875000Y-7782000D01*
X11825000Y-7732000D01*
X11775000Y-7782000D01*
X11825000Y-7832000D01*
X11825000Y-8086000D02*
X11875000Y-8036000D01*
X11825000Y-7986000D01*
X11775000Y-8036000D01*
X11825000Y-8086000D01*
X11825000Y-8340000D02*
X11875000Y-8290000D01*
X11825000Y-8240000D01*
X11775000Y-8290000D01*
X11825000Y-8340000D01*
X11825000Y-8594000D02*
X11875000Y-8544000D01*
X11825000Y-8494000D01*
X11775000Y-8544000D01*
X11825000Y-8594000D01*
X11825000Y-8848000D02*
X11875000Y-8798000D01*
X11825000Y-8748000D01*
X11775000Y-8798000D01*
X11825000Y-8848000D01*
X11825000Y-9102000D02*
X11875000Y-9052000D01*
X11825000Y-9002000D01*
X11775000Y-9052000D01*
X11825000Y-9102000D01*
X11825000Y-9356000D02*
X11875000Y-9306000D01*
X11825000Y-9256000D01*
X11775000Y-9306000D01*
X11825000Y-9356000D01*
X11825000Y-9610000D02*
X11875000Y-9560000D01*
X11825000Y-9510000D01*
X11775000Y-9560000D01*
X11825000Y-9610000D01*
X11825000Y-9864000D02*
X11875000Y-9814000D01*
X11825000Y-9764000D01*
X11775000Y-9814000D01*
X11825000Y-9864000D01*
X11825000Y-10118000D02*
X11875000Y-10068000D01*
X11825000Y-10018000D01*
X11775000Y-10068000D01*
X11825000Y-10118000D01*
X11825000Y-10372000D02*
X11875000Y-10322000D01*
X11825000Y-10272000D01*
X11775000Y-10322000D01*
X11825000Y-10372000D01*
X12079000Y-5800000D02*
X12129000Y-5750000D01*
X12079000Y-5700000D01*
X12029000Y-5750000D01*
X12079000Y-5800000D01*
X12079000Y-6054000D02*
X12129000Y-6004000D01*
X12079000Y-5954000D01*
X12029000Y-6004000D01*
X12079000Y-6054000D01*
X12079000Y-6308000D02*
X12129000Y-6258000D01*
X12079000Y-6208000D01*
X12029000Y-6258000D01*
X12079000Y-6308000D01*
X12079000Y-6562000D02*
X12129000Y-6512000D01*
X12079000Y-6462000D01*
X12029000Y-6512000D01*
X12079000Y-6562000D01*
X12079000Y-6816000D02*
X12129000Y-6766000D01*
X12079000Y-6716000D01*
X12029000Y-6766000D01*
X12079000Y-6816000D01*
X12079000Y-7070000D02*
X12129000Y-7020000D01*
X12079000Y-6970000D01*
X12029000Y-7020000D01*
X12079000Y-7070000D01*
X12079000Y-7324000D02*
X12129000Y-7274000D01*
X12079000Y-7224000D01*
X12029000Y-7274000D01*
X12079000Y-7324000D01*
X12079000Y-7578000D02*
X12129000Y-7528000D01*
X12079000Y-7478000D01*
X12029000Y-7528000D01*
X12079000Y-7578000D01*
X12079000Y-7832000D02*
X12129000Y-7782000D01*
X12079000Y-7732000D01*
X12029000Y-7782000D01*
X12079000Y-7832000D01*
X12079000Y-8086000D02*
X12129000Y-8036000D01*
X12079000Y-7986000D01*
X12029000Y-8036000D01*
X12079000Y-8086000D01*
X12079000Y-8340000D02*
X12129000Y-8290000D01*
X12079000Y-8240000D01*
X12029000Y-8290000D01*
X12079000Y-8340000D01*
X12079000Y-8594000D02*
X12129000Y-8544000D01*
X12079000Y-8494000D01*
X12029000Y-8544000D01*
X12079000Y-8594000D01*
X12079000Y-8848000D02*
X12129000Y-8798000D01*
X12079000Y-8748000D01*
X12029000Y-8798000D01*
X12079000Y-8848000D01*
X12079000Y-9102000D02*
X12129000Y-9052000D01*
X12079000Y-9002000D01*
X12029000Y-9052000D01*
X12079000Y-9102000D01*
X12079000Y-9356000D02*
X12129000Y-9306000D01*
X12079000Y-9256000D01*
X12029000Y-9306000D01*
X12079000Y-9356000D01*
X12079000Y-9610000D02*
X12129000Y-9560000D01*
X12079000Y-9510000D01*
X12029000Y-9560000D01*
X12079000Y-9610000D01*
X12079000Y-9864000D02*
X12129000Y-9814000D01*
X12079000Y-9764000D01*
X12029000Y-9814000D01*
X12079000Y-9864000D01*
X12079000Y-10118000D02*
X12129000Y-10068000D01*
X12079000Y-10018000D01*
X12029000Y-10068000D01*
X12079000Y-10118000D01*
X12079000Y-10372000D02*
X12129000Y-10322000D01*
X12079000Y-10272000D01*
X12029000Y-10322000D01*
X12079000Y-10372000D01*
X17225000Y-13047500D02*
X17275000Y-12997500D01*
X17225000Y-12947500D01*
X17175000Y-12997500D01*
X17225000Y-13047500D01*
X17475000Y-13047500D02*
X17525000Y-12997500D01*
X17475000Y-12947500D01*
X17425000Y-12997500D01*
X17475000Y-13047500D01*
X17920000Y-5800000D02*
X17970000Y-5750000D01*
X17920000Y-5700000D01*
X17870000Y-5750000D01*
X17920000Y-5800000D01*
X17920000Y-6054000D02*
X17970000Y-6004000D01*
X17920000Y-5954000D01*
X17870000Y-6004000D01*
X17920000Y-6054000D01*
X17920000Y-6308000D02*
X17970000Y-6258000D01*
X17920000Y-6208000D01*
X17870000Y-6258000D01*
X17920000Y-6308000D01*
X17920000Y-6562000D02*
X17970000Y-6512000D01*
X17920000Y-6462000D01*
X17870000Y-6512000D01*
X17920000Y-6562000D01*
X17920000Y-6816000D02*
X17970000Y-6766000D01*
X17920000Y-6716000D01*
X17870000Y-6766000D01*
X17920000Y-6816000D01*
X17920000Y-7070000D02*
X17970000Y-7020000D01*
X17920000Y-6970000D01*
X17870000Y-7020000D01*
X17920000Y-7070000D01*
X17920000Y-7324000D02*
X17970000Y-7274000D01*
X17920000Y-7224000D01*
X17870000Y-7274000D01*
X17920000Y-7324000D01*
X17920000Y-7578000D02*
X17970000Y-7528000D01*
X17920000Y-7478000D01*
X17870000Y-7528000D01*
X17920000Y-7578000D01*
X17920000Y-7832000D02*
X17970000Y-7782000D01*
X17920000Y-7732000D01*
X17870000Y-7782000D01*
X17920000Y-7832000D01*
X17920000Y-8086000D02*
X17970000Y-8036000D01*
X17920000Y-7986000D01*
X17870000Y-8036000D01*
X17920000Y-8086000D01*
X17920000Y-8340000D02*
X17970000Y-8290000D01*
X17920000Y-8240000D01*
X17870000Y-8290000D01*
X17920000Y-8340000D01*
X17920000Y-8594000D02*
X17970000Y-8544000D01*
X17920000Y-8494000D01*
X17870000Y-8544000D01*
X17920000Y-8594000D01*
X17920000Y-8848000D02*
X17970000Y-8798000D01*
X17920000Y-8748000D01*
X17870000Y-8798000D01*
X17920000Y-8848000D01*
X17920000Y-9102000D02*
X17970000Y-9052000D01*
X17920000Y-9002000D01*
X17870000Y-9052000D01*
X17920000Y-9102000D01*
X17920000Y-9356000D02*
X17970000Y-9306000D01*
X17920000Y-9256000D01*
X17870000Y-9306000D01*
X17920000Y-9356000D01*
X17920000Y-9610000D02*
X17970000Y-9560000D01*
X17920000Y-9510000D01*
X17870000Y-9560000D01*
X17920000Y-9610000D01*
X17920000Y-9864000D02*
X17970000Y-9814000D01*
X17920000Y-9764000D01*
X17870000Y-9814000D01*
X17920000Y-9864000D01*
X17920000Y-10118000D02*
X17970000Y-10068000D01*
X17920000Y-10018000D01*
X17870000Y-10068000D01*
X17920000Y-10118000D01*
X17920000Y-10372000D02*
X17970000Y-10322000D01*
X17920000Y-10272000D01*
X17870000Y-10322000D01*
X17920000Y-10372000D01*
X18174000Y-5800000D02*
X18224000Y-5750000D01*
X18174000Y-5700000D01*
X18124000Y-5750000D01*
X18174000Y-5800000D01*
X18174000Y-6054000D02*
X18224000Y-6004000D01*
X18174000Y-5954000D01*
X18124000Y-6004000D01*
X18174000Y-6054000D01*
X18174000Y-6308000D02*
X18224000Y-6258000D01*
X18174000Y-6208000D01*
X18124000Y-6258000D01*
X18174000Y-6308000D01*
X18174000Y-6562000D02*
X18224000Y-6512000D01*
X18174000Y-6462000D01*
X18124000Y-6512000D01*
X18174000Y-6562000D01*
X18174000Y-6816000D02*
X18224000Y-6766000D01*
X18174000Y-6716000D01*
X18124000Y-6766000D01*
X18174000Y-6816000D01*
X18174000Y-7070000D02*
X18224000Y-7020000D01*
X18174000Y-6970000D01*
X18124000Y-7020000D01*
X18174000Y-7070000D01*
X18174000Y-7324000D02*
X18224000Y-7274000D01*
X18174000Y-7224000D01*
X18124000Y-7274000D01*
X18174000Y-7324000D01*
X18174000Y-7578000D02*
X18224000Y-7528000D01*
X18174000Y-7478000D01*
X18124000Y-7528000D01*
X18174000Y-7578000D01*
X18174000Y-7832000D02*
X18224000Y-7782000D01*
X18174000Y-7732000D01*
X18124000Y-7782000D01*
X18174000Y-7832000D01*
X18174000Y-8086000D02*
X18224000Y-8036000D01*
X18174000Y-7986000D01*
X18124000Y-8036000D01*
X18174000Y-8086000D01*
X18174000Y-8340000D02*
X18224000Y-8290000D01*
X18174000Y-8240000D01*
X18124000Y-8290000D01*
X18174000Y-8340000D01*
X18174000Y-8594000D02*
X18224000Y-8544000D01*
X18174000Y-8494000D01*
X18124000Y-8544000D01*
X18174000Y-8594000D01*
X18174000Y-8848000D02*
X18224000Y-8798000D01*
X18174000Y-8748000D01*
X18124000Y-8798000D01*
X18174000Y-8848000D01*
X18174000Y-9102000D02*
X18224000Y-9052000D01*
X18174000Y-9002000D01*
X18124000Y-9052000D01*
X18174000Y-9102000D01*
X18174000Y-9356000D02*
X18224000Y-9306000D01*
X18174000Y-9256000D01*
X18124000Y-9306000D01*
X18174000Y-9356000D01*
X18174000Y-9610000D02*
X18224000Y-9560000D01*
X18174000Y-9510000D01*
X18124000Y-9560000D01*
X18174000Y-9610000D01*
X18174000Y-9864000D02*
X18224000Y-9814000D01*
X18174000Y-9764000D01*
X18124000Y-9814000D01*
X18174000Y-9864000D01*
X18174000Y-10118000D02*
X18224000Y-10068000D01*
X18174000Y-10018000D01*
X18124000Y-10068000D01*
X18174000Y-10118000D01*
X18174000Y-10372000D02*
X18224000Y-10322000D01*
X18174000Y-10272000D01*
X18124000Y-10322000D01*
X18174000Y-10372000D01*
X19173500Y-10715000D02*
X19223500Y-10665000D01*
X19173500Y-10615000D01*
X19123500Y-10665000D01*
X19173500Y-10715000D01*
X19173500Y-10969000D02*
X19223500Y-10919000D01*
X19173500Y-10869000D01*
X19123500Y-10919000D01*
X19173500Y-10969000D01*
X19173500Y-11223000D02*
X19223500Y-11173000D01*
X19173500Y-11123000D01*
X19123500Y-11173000D01*
X19173500Y-11223000D01*
X19173500Y-11477000D02*
X19223500Y-11427000D01*
X19173500Y-11377000D01*
X19123500Y-11427000D01*
X19173500Y-11477000D01*
X19173500Y-11731000D02*
X19223500Y-11681000D01*
X19173500Y-11631000D01*
X19123500Y-11681000D01*
X19173500Y-11731000D01*
X19173500Y-11985000D02*
X19223500Y-11935000D01*
X19173500Y-11885000D01*
X19123500Y-11935000D01*
X19173500Y-11985000D01*
X19400000Y-6907000D02*
X19450000Y-6857000D01*
X19400000Y-6807000D01*
X19350000Y-6857000D01*
X19400000Y-6907000D01*
X19400000Y-7161000D02*
X19450000Y-7111000D01*
X19400000Y-7061000D01*
X19350000Y-7111000D01*
X19400000Y-7161000D01*
X19400000Y-7415000D02*
X19450000Y-7365000D01*
X19400000Y-7315000D01*
X19350000Y-7365000D01*
X19400000Y-7415000D01*
X19400000Y-7669000D02*
X19450000Y-7619000D01*
X19400000Y-7569000D01*
X19350000Y-7619000D01*
X19400000Y-7669000D01*
X19400000Y-7923000D02*
X19450000Y-7873000D01*
X19400000Y-7823000D01*
X19350000Y-7873000D01*
X19400000Y-7923000D01*
X19400000Y-8177000D02*
X19450000Y-8127000D01*
X19400000Y-8077000D01*
X19350000Y-8127000D01*
X19400000Y-8177000D01*
X19400000Y-8834000D02*
X19450000Y-8784000D01*
X19400000Y-8734000D01*
X19350000Y-8784000D01*
X19400000Y-8834000D01*
X19400000Y-9088000D02*
X19450000Y-9038000D01*
X19400000Y-8988000D01*
X19350000Y-9038000D01*
X19400000Y-9088000D01*
X19400000Y-9342000D02*
X19450000Y-9292000D01*
X19400000Y-9242000D01*
X19350000Y-9292000D01*
X19400000Y-9342000D01*
X19400000Y-9596000D02*
X19450000Y-9546000D01*
X19400000Y-9496000D01*
X19350000Y-9546000D01*
X19400000Y-9596000D01*
X19400000Y-9850000D02*
X19450000Y-9800000D01*
X19400000Y-9750000D01*
X19350000Y-9800000D01*
X19400000Y-9850000D01*
X19400000Y-10104000D02*
X19450000Y-10054000D01*
X19400000Y-10004000D01*
X19350000Y-10054000D01*
X19400000Y-10104000D01*
X19427500Y-10715000D02*
X19477500Y-10665000D01*
X19427500Y-10615000D01*
X19377500Y-10665000D01*
X19427500Y-10715000D01*
X19427500Y-10969000D02*
X19477500Y-10919000D01*
X19427500Y-10869000D01*
X19377500Y-10919000D01*
X19427500Y-10969000D01*
X19427500Y-11223000D02*
X19477500Y-11173000D01*
X19427500Y-11123000D01*
X19377500Y-11173000D01*
X19427500Y-11223000D01*
X19427500Y-11477000D02*
X19477500Y-11427000D01*
X19427500Y-11377000D01*
X19377500Y-11427000D01*
X19427500Y-11477000D01*
X19427500Y-11731000D02*
X19477500Y-11681000D01*
X19427500Y-11631000D01*
X19377500Y-11681000D01*
X19427500Y-11731000D01*
X19427500Y-11985000D02*
X19477500Y-11935000D01*
X19427500Y-11885000D01*
X19377500Y-11935000D01*
X19427500Y-11985000D01*
D16*
X3024000Y-5648000D02*
X3126000Y-5750000D01*
X3126000Y-5648000D02*
X3024000Y-5750000D01*
X3126000Y-5699000D02*
G75*
G03*
X3126000Y-5699000I-51000J0D01*
G01*
X3024000Y-5902000D02*
X3126000Y-6004000D01*
X3126000Y-5902000D02*
X3024000Y-6004000D01*
X3126000Y-5953000D02*
G75*
G03*
X3126000Y-5953000I-51000J0D01*
G01*
X3024000Y-6156000D02*
X3126000Y-6258000D01*
X3126000Y-6156000D02*
X3024000Y-6258000D01*
X3126000Y-6207000D02*
G75*
G03*
X3126000Y-6207000I-51000J0D01*
G01*
X3024000Y-6410000D02*
X3126000Y-6512000D01*
X3126000Y-6410000D02*
X3024000Y-6512000D01*
X3126000Y-6461000D02*
G75*
G03*
X3126000Y-6461000I-51000J0D01*
G01*
X3024000Y-6664000D02*
X3126000Y-6766000D01*
X3126000Y-6664000D02*
X3024000Y-6766000D01*
X3126000Y-6715000D02*
G75*
G03*
X3126000Y-6715000I-51000J0D01*
G01*
X3024000Y-6918000D02*
X3126000Y-7020000D01*
X3126000Y-6918000D02*
X3024000Y-7020000D01*
X3126000Y-6969000D02*
G75*
G03*
X3126000Y-6969000I-51000J0D01*
G01*
X3024000Y-7172000D02*
X3126000Y-7274000D01*
X3126000Y-7172000D02*
X3024000Y-7274000D01*
X3126000Y-7223000D02*
G75*
G03*
X3126000Y-7223000I-51000J0D01*
G01*
X3024000Y-7426000D02*
X3126000Y-7528000D01*
X3126000Y-7426000D02*
X3024000Y-7528000D01*
X3126000Y-7477000D02*
G75*
G03*
X3126000Y-7477000I-51000J0D01*
G01*
X3024000Y-7680000D02*
X3126000Y-7782000D01*
X3126000Y-7680000D02*
X3024000Y-7782000D01*
X3126000Y-7731000D02*
G75*
G03*
X3126000Y-7731000I-51000J0D01*
G01*
X3024000Y-7934000D02*
X3126000Y-8036000D01*
X3126000Y-7934000D02*
X3024000Y-8036000D01*
X3126000Y-7985000D02*
G75*
G03*
X3126000Y-7985000I-51000J0D01*
G01*
X3024000Y-8188000D02*
X3126000Y-8290000D01*
X3126000Y-8188000D02*
X3024000Y-8290000D01*
X3126000Y-8239000D02*
G75*
G03*
X3126000Y-8239000I-51000J0D01*
G01*
X3024000Y-8442000D02*
X3126000Y-8544000D01*
X3126000Y-8442000D02*
X3024000Y-8544000D01*
X3126000Y-8493000D02*
G75*
G03*
X3126000Y-8493000I-51000J0D01*
G01*
X3024000Y-8696000D02*
X3126000Y-8798000D01*
X3126000Y-8696000D02*
X3024000Y-8798000D01*
X3126000Y-8747000D02*
G75*
G03*
X3126000Y-8747000I-51000J0D01*
G01*
X3024000Y-8950000D02*
X3126000Y-9052000D01*
X3126000Y-8950000D02*
X3024000Y-9052000D01*
X3126000Y-9001000D02*
G75*
G03*
X3126000Y-9001000I-51000J0D01*
G01*
X3024000Y-9204000D02*
X3126000Y-9306000D01*
X3126000Y-9204000D02*
X3024000Y-9306000D01*
X3126000Y-9255000D02*
G75*
G03*
X3126000Y-9255000I-51000J0D01*
G01*
X3024000Y-9458000D02*
X3126000Y-9560000D01*
X3126000Y-9458000D02*
X3024000Y-9560000D01*
X3126000Y-9509000D02*
G75*
G03*
X3126000Y-9509000I-51000J0D01*
G01*
X3024000Y-9712000D02*
X3126000Y-9814000D01*
X3126000Y-9712000D02*
X3024000Y-9814000D01*
X3126000Y-9763000D02*
G75*
G03*
X3126000Y-9763000I-51000J0D01*
G01*
X3024000Y-9966000D02*
X3126000Y-10068000D01*
X3126000Y-9966000D02*
X3024000Y-10068000D01*
X3126000Y-10017000D02*
G75*
G03*
X3126000Y-10017000I-51000J0D01*
G01*
X3024000Y-10220000D02*
X3126000Y-10322000D01*
X3126000Y-10220000D02*
X3024000Y-10322000D01*
X3126000Y-10271000D02*
G75*
G03*
X3126000Y-10271000I-51000J0D01*
G01*
X3278000Y-5648000D02*
X3380000Y-5750000D01*
X3380000Y-5648000D02*
X3278000Y-5750000D01*
X3380000Y-5699000D02*
G75*
G03*
X3380000Y-5699000I-51000J0D01*
G01*
X3278000Y-5902000D02*
X3380000Y-6004000D01*
X3380000Y-5902000D02*
X3278000Y-6004000D01*
X3380000Y-5953000D02*
G75*
G03*
X3380000Y-5953000I-51000J0D01*
G01*
X3278000Y-6156000D02*
X3380000Y-6258000D01*
X3380000Y-6156000D02*
X3278000Y-6258000D01*
X3380000Y-6207000D02*
G75*
G03*
X3380000Y-6207000I-51000J0D01*
G01*
X3278000Y-6410000D02*
X3380000Y-6512000D01*
X3380000Y-6410000D02*
X3278000Y-6512000D01*
X3380000Y-6461000D02*
G75*
G03*
X3380000Y-6461000I-51000J0D01*
G01*
X3278000Y-6664000D02*
X3380000Y-6766000D01*
X3380000Y-6664000D02*
X3278000Y-6766000D01*
X3380000Y-6715000D02*
G75*
G03*
X3380000Y-6715000I-51000J0D01*
G01*
X3278000Y-6918000D02*
X3380000Y-7020000D01*
X3380000Y-6918000D02*
X3278000Y-7020000D01*
X3380000Y-6969000D02*
G75*
G03*
X3380000Y-6969000I-51000J0D01*
G01*
X3278000Y-7172000D02*
X3380000Y-7274000D01*
X3380000Y-7172000D02*
X3278000Y-7274000D01*
X3380000Y-7223000D02*
G75*
G03*
X3380000Y-7223000I-51000J0D01*
G01*
X3278000Y-7426000D02*
X3380000Y-7528000D01*
X3380000Y-7426000D02*
X3278000Y-7528000D01*
X3380000Y-7477000D02*
G75*
G03*
X3380000Y-7477000I-51000J0D01*
G01*
X3278000Y-7680000D02*
X3380000Y-7782000D01*
X3380000Y-7680000D02*
X3278000Y-7782000D01*
X3380000Y-7731000D02*
G75*
G03*
X3380000Y-7731000I-51000J0D01*
G01*
X3278000Y-7934000D02*
X3380000Y-8036000D01*
X3380000Y-7934000D02*
X3278000Y-8036000D01*
X3380000Y-7985000D02*
G75*
G03*
X3380000Y-7985000I-51000J0D01*
G01*
X3278000Y-8188000D02*
X3380000Y-8290000D01*
X3380000Y-8188000D02*
X3278000Y-8290000D01*
X3380000Y-8239000D02*
G75*
G03*
X3380000Y-8239000I-51000J0D01*
G01*
X3278000Y-8442000D02*
X3380000Y-8544000D01*
X3380000Y-8442000D02*
X3278000Y-8544000D01*
X3380000Y-8493000D02*
G75*
G03*
X3380000Y-8493000I-51000J0D01*
G01*
X3278000Y-8696000D02*
X3380000Y-8798000D01*
X3380000Y-8696000D02*
X3278000Y-8798000D01*
X3380000Y-8747000D02*
G75*
G03*
X3380000Y-8747000I-51000J0D01*
G01*
X3278000Y-8950000D02*
X3380000Y-9052000D01*
X3380000Y-8950000D02*
X3278000Y-9052000D01*
X3380000Y-9001000D02*
G75*
G03*
X3380000Y-9001000I-51000J0D01*
G01*
X3278000Y-9204000D02*
X3380000Y-9306000D01*
X3380000Y-9204000D02*
X3278000Y-9306000D01*
X3380000Y-9255000D02*
G75*
G03*
X3380000Y-9255000I-51000J0D01*
G01*
X3278000Y-9458000D02*
X3380000Y-9560000D01*
X3380000Y-9458000D02*
X3278000Y-9560000D01*
X3380000Y-9509000D02*
G75*
G03*
X3380000Y-9509000I-51000J0D01*
G01*
X3278000Y-9712000D02*
X3380000Y-9814000D01*
X3380000Y-9712000D02*
X3278000Y-9814000D01*
X3380000Y-9763000D02*
G75*
G03*
X3380000Y-9763000I-51000J0D01*
G01*
X3278000Y-9966000D02*
X3380000Y-10068000D01*
X3380000Y-9966000D02*
X3278000Y-10068000D01*
X3380000Y-10017000D02*
G75*
G03*
X3380000Y-10017000I-51000J0D01*
G01*
X3278000Y-10220000D02*
X3380000Y-10322000D01*
X3380000Y-10220000D02*
X3278000Y-10322000D01*
X3380000Y-10271000D02*
G75*
G03*
X3380000Y-10271000I-51000J0D01*
G01*
X9120000Y-5648000D02*
X9222000Y-5750000D01*
X9222000Y-5648000D02*
X9120000Y-5750000D01*
X9222000Y-5699000D02*
G75*
G03*
X9222000Y-5699000I-51000J0D01*
G01*
X9120000Y-5902000D02*
X9222000Y-6004000D01*
X9222000Y-5902000D02*
X9120000Y-6004000D01*
X9222000Y-5953000D02*
G75*
G03*
X9222000Y-5953000I-51000J0D01*
G01*
X9120000Y-6156000D02*
X9222000Y-6258000D01*
X9222000Y-6156000D02*
X9120000Y-6258000D01*
X9222000Y-6207000D02*
G75*
G03*
X9222000Y-6207000I-51000J0D01*
G01*
X9120000Y-6410000D02*
X9222000Y-6512000D01*
X9222000Y-6410000D02*
X9120000Y-6512000D01*
X9222000Y-6461000D02*
G75*
G03*
X9222000Y-6461000I-51000J0D01*
G01*
X9120000Y-6664000D02*
X9222000Y-6766000D01*
X9222000Y-6664000D02*
X9120000Y-6766000D01*
X9222000Y-6715000D02*
G75*
G03*
X9222000Y-6715000I-51000J0D01*
G01*
X9120000Y-6918000D02*
X9222000Y-7020000D01*
X9222000Y-6918000D02*
X9120000Y-7020000D01*
X9222000Y-6969000D02*
G75*
G03*
X9222000Y-6969000I-51000J0D01*
G01*
X9120000Y-7172000D02*
X9222000Y-7274000D01*
X9222000Y-7172000D02*
X9120000Y-7274000D01*
X9222000Y-7223000D02*
G75*
G03*
X9222000Y-7223000I-51000J0D01*
G01*
X9120000Y-7426000D02*
X9222000Y-7528000D01*
X9222000Y-7426000D02*
X9120000Y-7528000D01*
X9222000Y-7477000D02*
G75*
G03*
X9222000Y-7477000I-51000J0D01*
G01*
X9120000Y-7680000D02*
X9222000Y-7782000D01*
X9222000Y-7680000D02*
X9120000Y-7782000D01*
X9222000Y-7731000D02*
G75*
G03*
X9222000Y-7731000I-51000J0D01*
G01*
X9120000Y-7934000D02*
X9222000Y-8036000D01*
X9222000Y-7934000D02*
X9120000Y-8036000D01*
X9222000Y-7985000D02*
G75*
G03*
X9222000Y-7985000I-51000J0D01*
G01*
X9120000Y-8188000D02*
X9222000Y-8290000D01*
X9222000Y-8188000D02*
X9120000Y-8290000D01*
X9222000Y-8239000D02*
G75*
G03*
X9222000Y-8239000I-51000J0D01*
G01*
X9120000Y-8442000D02*
X9222000Y-8544000D01*
X9222000Y-8442000D02*
X9120000Y-8544000D01*
X9222000Y-8493000D02*
G75*
G03*
X9222000Y-8493000I-51000J0D01*
G01*
X9120000Y-8696000D02*
X9222000Y-8798000D01*
X9222000Y-8696000D02*
X9120000Y-8798000D01*
X9222000Y-8747000D02*
G75*
G03*
X9222000Y-8747000I-51000J0D01*
G01*
X9120000Y-8950000D02*
X9222000Y-9052000D01*
X9222000Y-8950000D02*
X9120000Y-9052000D01*
X9222000Y-9001000D02*
G75*
G03*
X9222000Y-9001000I-51000J0D01*
G01*
X9120000Y-9204000D02*
X9222000Y-9306000D01*
X9222000Y-9204000D02*
X9120000Y-9306000D01*
X9222000Y-9255000D02*
G75*
G03*
X9222000Y-9255000I-51000J0D01*
G01*
X9120000Y-9458000D02*
X9222000Y-9560000D01*
X9222000Y-9458000D02*
X9120000Y-9560000D01*
X9222000Y-9509000D02*
G75*
G03*
X9222000Y-9509000I-51000J0D01*
G01*
X9120000Y-9712000D02*
X9222000Y-9814000D01*
X9222000Y-9712000D02*
X9120000Y-9814000D01*
X9222000Y-9763000D02*
G75*
G03*
X9222000Y-9763000I-51000J0D01*
G01*
X9120000Y-9966000D02*
X9222000Y-10068000D01*
X9222000Y-9966000D02*
X9120000Y-10068000D01*
X9222000Y-10017000D02*
G75*
G03*
X9222000Y-10017000I-51000J0D01*
G01*
X9120000Y-10220000D02*
X9222000Y-10322000D01*
X9222000Y-10220000D02*
X9120000Y-10322000D01*
X9222000Y-10271000D02*
G75*
G03*
X9222000Y-10271000I-51000J0D01*
G01*
X9374000Y-5648000D02*
X9476000Y-5750000D01*
X9476000Y-5648000D02*
X9374000Y-5750000D01*
X9476000Y-5699000D02*
G75*
G03*
X9476000Y-5699000I-51000J0D01*
G01*
X9374000Y-5902000D02*
X9476000Y-6004000D01*
X9476000Y-5902000D02*
X9374000Y-6004000D01*
X9476000Y-5953000D02*
G75*
G03*
X9476000Y-5953000I-51000J0D01*
G01*
X9374000Y-6156000D02*
X9476000Y-6258000D01*
X9476000Y-6156000D02*
X9374000Y-6258000D01*
X9476000Y-6207000D02*
G75*
G03*
X9476000Y-6207000I-51000J0D01*
G01*
X9374000Y-6410000D02*
X9476000Y-6512000D01*
X9476000Y-6410000D02*
X9374000Y-6512000D01*
X9476000Y-6461000D02*
G75*
G03*
X9476000Y-6461000I-51000J0D01*
G01*
X9374000Y-6664000D02*
X9476000Y-6766000D01*
X9476000Y-6664000D02*
X9374000Y-6766000D01*
X9476000Y-6715000D02*
G75*
G03*
X9476000Y-6715000I-51000J0D01*
G01*
X9374000Y-6918000D02*
X9476000Y-7020000D01*
X9476000Y-6918000D02*
X9374000Y-7020000D01*
X9476000Y-6969000D02*
G75*
G03*
X9476000Y-6969000I-51000J0D01*
G01*
X9374000Y-7172000D02*
X9476000Y-7274000D01*
X9476000Y-7172000D02*
X9374000Y-7274000D01*
X9476000Y-7223000D02*
G75*
G03*
X9476000Y-7223000I-51000J0D01*
G01*
X9374000Y-7426000D02*
X9476000Y-7528000D01*
X9476000Y-7426000D02*
X9374000Y-7528000D01*
X9476000Y-7477000D02*
G75*
G03*
X9476000Y-7477000I-51000J0D01*
G01*
X9374000Y-7680000D02*
X9476000Y-7782000D01*
X9476000Y-7680000D02*
X9374000Y-7782000D01*
X9476000Y-7731000D02*
G75*
G03*
X9476000Y-7731000I-51000J0D01*
G01*
X9374000Y-7934000D02*
X9476000Y-8036000D01*
X9476000Y-7934000D02*
X9374000Y-8036000D01*
X9476000Y-7985000D02*
G75*
G03*
X9476000Y-7985000I-51000J0D01*
G01*
X9374000Y-8188000D02*
X9476000Y-8290000D01*
X9476000Y-8188000D02*
X9374000Y-8290000D01*
X9476000Y-8239000D02*
G75*
G03*
X9476000Y-8239000I-51000J0D01*
G01*
X9374000Y-8442000D02*
X9476000Y-8544000D01*
X9476000Y-8442000D02*
X9374000Y-8544000D01*
X9476000Y-8493000D02*
G75*
G03*
X9476000Y-8493000I-51000J0D01*
G01*
X9374000Y-8696000D02*
X9476000Y-8798000D01*
X9476000Y-8696000D02*
X9374000Y-8798000D01*
X9476000Y-8747000D02*
G75*
G03*
X9476000Y-8747000I-51000J0D01*
G01*
X9374000Y-8950000D02*
X9476000Y-9052000D01*
X9476000Y-8950000D02*
X9374000Y-9052000D01*
X9476000Y-9001000D02*
G75*
G03*
X9476000Y-9001000I-51000J0D01*
G01*
X9374000Y-9204000D02*
X9476000Y-9306000D01*
X9476000Y-9204000D02*
X9374000Y-9306000D01*
X9476000Y-9255000D02*
G75*
G03*
X9476000Y-9255000I-51000J0D01*
G01*
X9374000Y-9458000D02*
X9476000Y-9560000D01*
X9476000Y-9458000D02*
X9374000Y-9560000D01*
X9476000Y-9509000D02*
G75*
G03*
X9476000Y-9509000I-51000J0D01*
G01*
X9374000Y-9712000D02*
X9476000Y-9814000D01*
X9476000Y-9712000D02*
X9374000Y-9814000D01*
X9476000Y-9763000D02*
G75*
G03*
X9476000Y-9763000I-51000J0D01*
G01*
X9374000Y-9966000D02*
X9476000Y-10068000D01*
X9476000Y-9966000D02*
X9374000Y-10068000D01*
X9476000Y-10017000D02*
G75*
G03*
X9476000Y-10017000I-51000J0D01*
G01*
X9374000Y-10220000D02*
X9476000Y-10322000D01*
X9476000Y-10220000D02*
X9374000Y-10322000D01*
X9476000Y-10271000D02*
G75*
G03*
X9476000Y-10271000I-51000J0D01*
G01*
D17*
X3783500Y-6661500D02*
X3890500Y-6768500D01*
X3890500Y-6661500D02*
X3783500Y-6768500D01*
X3837000Y-6661500D02*
X3837000Y-6768500D01*
X3783500Y-6715000D02*
X3890500Y-6715000D01*
X3783500Y-6915500D02*
X3890500Y-7022500D01*
X3890500Y-6915500D02*
X3783500Y-7022500D01*
X3837000Y-6915500D02*
X3837000Y-7022500D01*
X3783500Y-6969000D02*
X3890500Y-6969000D01*
X3783500Y-7169500D02*
X3890500Y-7276500D01*
X3890500Y-7169500D02*
X3783500Y-7276500D01*
X3837000Y-7169500D02*
X3837000Y-7276500D01*
X3783500Y-7223000D02*
X3890500Y-7223000D01*
X3783500Y-7423500D02*
X3890500Y-7530500D01*
X3890500Y-7423500D02*
X3783500Y-7530500D01*
X3837000Y-7423500D02*
X3837000Y-7530500D01*
X3783500Y-7477000D02*
X3890500Y-7477000D01*
X3783500Y-7677500D02*
X3890500Y-7784500D01*
X3890500Y-7677500D02*
X3783500Y-7784500D01*
X3837000Y-7677500D02*
X3837000Y-7784500D01*
X3783500Y-7731000D02*
X3890500Y-7731000D01*
X3783500Y-7931500D02*
X3890500Y-8038500D01*
X3890500Y-7931500D02*
X3783500Y-8038500D01*
X3837000Y-7931500D02*
X3837000Y-8038500D01*
X3783500Y-7985000D02*
X3890500Y-7985000D01*
X3783500Y-8185500D02*
X3890500Y-8292500D01*
X3890500Y-8185500D02*
X3783500Y-8292500D01*
X3837000Y-8185500D02*
X3837000Y-8292500D01*
X3783500Y-8239000D02*
X3890500Y-8239000D01*
X3783500Y-8439500D02*
X3890500Y-8546500D01*
X3890500Y-8439500D02*
X3783500Y-8546500D01*
X3837000Y-8439500D02*
X3837000Y-8546500D01*
X3783500Y-8493000D02*
X3890500Y-8493000D01*
X3783500Y-8947500D02*
X3890500Y-9054500D01*
X3890500Y-8947500D02*
X3783500Y-9054500D01*
X3837000Y-8947500D02*
X3837000Y-9054500D01*
X3783500Y-9001000D02*
X3890500Y-9001000D01*
X3783500Y-9201500D02*
X3890500Y-9308500D01*
X3890500Y-9201500D02*
X3783500Y-9308500D01*
X3837000Y-9201500D02*
X3837000Y-9308500D01*
X3783500Y-9255000D02*
X3890500Y-9255000D01*
X3783500Y-9455500D02*
X3890500Y-9562500D01*
X3890500Y-9455500D02*
X3783500Y-9562500D01*
X3837000Y-9455500D02*
X3837000Y-9562500D01*
X3783500Y-9509000D02*
X3890500Y-9509000D01*
X3783500Y-9709500D02*
X3890500Y-9816500D01*
X3890500Y-9709500D02*
X3783500Y-9816500D01*
X3837000Y-9709500D02*
X3837000Y-9816500D01*
X3783500Y-9763000D02*
X3890500Y-9763000D01*
X3783500Y-9963500D02*
X3890500Y-10070500D01*
X3890500Y-9963500D02*
X3783500Y-10070500D01*
X3837000Y-9963500D02*
X3837000Y-10070500D01*
X3783500Y-10017000D02*
X3890500Y-10017000D01*
X3783500Y-10217500D02*
X3890500Y-10324500D01*
X3890500Y-10217500D02*
X3783500Y-10324500D01*
X3837000Y-10217500D02*
X3837000Y-10324500D01*
X3783500Y-10271000D02*
X3890500Y-10271000D01*
X8609500Y-5747500D02*
X8716500Y-5854500D01*
X8716500Y-5747500D02*
X8609500Y-5854500D01*
X8663000Y-5747500D02*
X8663000Y-5854500D01*
X8609500Y-5801000D02*
X8716500Y-5801000D01*
X8609500Y-6001500D02*
X8716500Y-6108500D01*
X8716500Y-6001500D02*
X8609500Y-6108500D01*
X8663000Y-6001500D02*
X8663000Y-6108500D01*
X8609500Y-6055000D02*
X8716500Y-6055000D01*
X8609500Y-6255500D02*
X8716500Y-6362500D01*
X8716500Y-6255500D02*
X8609500Y-6362500D01*
X8663000Y-6255500D02*
X8663000Y-6362500D01*
X8609500Y-6309000D02*
X8716500Y-6309000D01*
X8609500Y-6509500D02*
X8716500Y-6616500D01*
X8716500Y-6509500D02*
X8609500Y-6616500D01*
X8663000Y-6509500D02*
X8663000Y-6616500D01*
X8609500Y-6563000D02*
X8716500Y-6563000D01*
X8609500Y-6763500D02*
X8716500Y-6870500D01*
X8716500Y-6763500D02*
X8609500Y-6870500D01*
X8663000Y-6763500D02*
X8663000Y-6870500D01*
X8609500Y-6817000D02*
X8716500Y-6817000D01*
X8609500Y-7017500D02*
X8716500Y-7124500D01*
X8716500Y-7017500D02*
X8609500Y-7124500D01*
X8663000Y-7017500D02*
X8663000Y-7124500D01*
X8609500Y-7071000D02*
X8716500Y-7071000D01*
X8609500Y-7271500D02*
X8716500Y-7378500D01*
X8716500Y-7271500D02*
X8609500Y-7378500D01*
X8663000Y-7271500D02*
X8663000Y-7378500D01*
X8609500Y-7325000D02*
X8716500Y-7325000D01*
X8609500Y-7525500D02*
X8716500Y-7632500D01*
X8716500Y-7525500D02*
X8609500Y-7632500D01*
X8663000Y-7525500D02*
X8663000Y-7632500D01*
X8609500Y-7579000D02*
X8716500Y-7579000D01*
X8609500Y-7779500D02*
X8716500Y-7886500D01*
X8716500Y-7779500D02*
X8609500Y-7886500D01*
X8663000Y-7779500D02*
X8663000Y-7886500D01*
X8609500Y-7833000D02*
X8716500Y-7833000D01*
X8609500Y-8033500D02*
X8716500Y-8140500D01*
X8716500Y-8033500D02*
X8609500Y-8140500D01*
X8663000Y-8033500D02*
X8663000Y-8140500D01*
X8609500Y-8087000D02*
X8716500Y-8087000D01*
X8609500Y-8439500D02*
X8716500Y-8546500D01*
X8716500Y-8439500D02*
X8609500Y-8546500D01*
X8663000Y-8439500D02*
X8663000Y-8546500D01*
X8609500Y-8493000D02*
X8716500Y-8493000D01*
X8609500Y-8693500D02*
X8716500Y-8800500D01*
X8716500Y-8693500D02*
X8609500Y-8800500D01*
X8663000Y-8693500D02*
X8663000Y-8800500D01*
X8609500Y-8747000D02*
X8716500Y-8747000D01*
X8609500Y-8947500D02*
X8716500Y-9054500D01*
X8716500Y-8947500D02*
X8609500Y-9054500D01*
X8663000Y-8947500D02*
X8663000Y-9054500D01*
X8609500Y-9001000D02*
X8716500Y-9001000D01*
X8609500Y-9201500D02*
X8716500Y-9308500D01*
X8716500Y-9201500D02*
X8609500Y-9308500D01*
X8663000Y-9201500D02*
X8663000Y-9308500D01*
X8609500Y-9255000D02*
X8716500Y-9255000D01*
X8609500Y-9455500D02*
X8716500Y-9562500D01*
X8716500Y-9455500D02*
X8609500Y-9562500D01*
X8663000Y-9455500D02*
X8663000Y-9562500D01*
X8609500Y-9509000D02*
X8716500Y-9509000D01*
X8609500Y-9709500D02*
X8716500Y-9816500D01*
X8716500Y-9709500D02*
X8609500Y-9816500D01*
X8663000Y-9709500D02*
X8663000Y-9816500D01*
X8609500Y-9763000D02*
X8716500Y-9763000D01*
X8609500Y-9963500D02*
X8716500Y-10070500D01*
X8716500Y-9963500D02*
X8609500Y-10070500D01*
X8663000Y-9963500D02*
X8663000Y-10070500D01*
X8609500Y-10017000D02*
X8716500Y-10017000D01*
X8609500Y-10217500D02*
X8716500Y-10324500D01*
X8716500Y-10217500D02*
X8609500Y-10324500D01*
X8663000Y-10217500D02*
X8663000Y-10324500D01*
X8609500Y-10271000D02*
X8716500Y-10271000D01*
D18*
X10840000Y-5840000D02*
X11160000Y-6160000D01*
X11160000Y-5840000D02*
X10840000Y-6160000D01*
X11113138Y-6113138D02*
X11113138Y-5886862D01*
X10886862Y-5886862D01*
X10886862Y-6113138D01*
X11113138Y-6113138D01*
X10840000Y-12840000D02*
X11160000Y-13160000D01*
X11160000Y-12840000D02*
X10840000Y-13160000D01*
X11113138Y-13113138D02*
X11113138Y-12886862D01*
X10886862Y-12886862D01*
X10886862Y-13113138D01*
X11113138Y-13113138D01*
X18840000Y-5840000D02*
X19160000Y-6160000D01*
X19160000Y-5840000D02*
X18840000Y-6160000D01*
X19113138Y-6113138D02*
X19113138Y-5886862D01*
X18886862Y-5886862D01*
X18886862Y-6113138D01*
X19113138Y-6113138D01*
X18840000Y-12840000D02*
X19160000Y-13160000D01*
X19160000Y-12840000D02*
X18840000Y-13160000D01*
X19113138Y-13113138D02*
X19113138Y-12886862D01*
X18886862Y-12886862D01*
X18886862Y-13113138D01*
X19113138Y-13113138D01*
D11*
X10552619Y-14015476D02*
X10552619Y-13815476D01*
X10600238Y-13815476D01*
X10628810Y-13825000D01*
X10647857Y-13844048D01*
X10657381Y-13863095D01*
X10666905Y-13901190D01*
X10666905Y-13929762D01*
X10657381Y-13967857D01*
X10647857Y-13986905D01*
X10628810Y-14005952D01*
X10600238Y-14015476D01*
X10552619Y-14015476D01*
X10752619Y-14015476D02*
X10752619Y-13882143D01*
X10752619Y-13920238D02*
X10762143Y-13901190D01*
X10771667Y-13891667D01*
X10790714Y-13882143D01*
X10809762Y-13882143D01*
X10876429Y-14015476D02*
X10876429Y-13882143D01*
X10876429Y-13815476D02*
X10866905Y-13825000D01*
X10876429Y-13834524D01*
X10885952Y-13825000D01*
X10876429Y-13815476D01*
X10876429Y-13834524D01*
X11000238Y-14015476D02*
X10981190Y-14005952D01*
X10971667Y-13986905D01*
X10971667Y-13815476D01*
X11105000Y-14015476D02*
X11085952Y-14005952D01*
X11076429Y-13986905D01*
X11076429Y-13815476D01*
X11333571Y-14015476D02*
X11333571Y-13815476D01*
X11400238Y-13958333D01*
X11466905Y-13815476D01*
X11466905Y-14015476D01*
X11647857Y-14015476D02*
X11647857Y-13910714D01*
X11638333Y-13891667D01*
X11619286Y-13882143D01*
X11581190Y-13882143D01*
X11562143Y-13891667D01*
X11647857Y-14005952D02*
X11628809Y-14015476D01*
X11581190Y-14015476D01*
X11562143Y-14005952D01*
X11552619Y-13986905D01*
X11552619Y-13967857D01*
X11562143Y-13948809D01*
X11581190Y-13939286D01*
X11628809Y-13939286D01*
X11647857Y-13929762D01*
X11743095Y-13882143D02*
X11743095Y-14082143D01*
X11743095Y-13891667D02*
X11762143Y-13882143D01*
X11800238Y-13882143D01*
X11819286Y-13891667D01*
X11828809Y-13901190D01*
X11838333Y-13920238D01*
X11838333Y-13977381D01*
X11828809Y-13996428D01*
X11819286Y-14005952D01*
X11800238Y-14015476D01*
X11762143Y-14015476D01*
X11743095Y-14005952D01*
X11924048Y-13996428D02*
X11933571Y-14005952D01*
X11924048Y-14015476D01*
X11914524Y-14005952D01*
X11924048Y-13996428D01*
X11924048Y-14015476D01*
X11924048Y-13891667D02*
X11933571Y-13901190D01*
X11924048Y-13910714D01*
X11914524Y-13901190D01*
X11924048Y-13891667D01*
X11924048Y-13910714D01*
D12*
X10255000Y-14325000D02*
X10295000Y-14365000D01*
X10295000Y-14325000D02*
X10255000Y-14365000D01*
D11*
X10590714Y-14235476D02*
X10609762Y-14235476D01*
X10628810Y-14245000D01*
X10638333Y-14254524D01*
X10647857Y-14273571D01*
X10657381Y-14311667D01*
X10657381Y-14359286D01*
X10647857Y-14397381D01*
X10638333Y-14416428D01*
X10628810Y-14425952D01*
X10609762Y-14435476D01*
X10590714Y-14435476D01*
X10571667Y-14425952D01*
X10562143Y-14416428D01*
X10552619Y-14397381D01*
X10543095Y-14359286D01*
X10543095Y-14311667D01*
X10552619Y-14273571D01*
X10562143Y-14254524D01*
X10571667Y-14245000D01*
X10590714Y-14235476D01*
X10743095Y-14416428D02*
X10752619Y-14425952D01*
X10743095Y-14435476D01*
X10733571Y-14425952D01*
X10743095Y-14416428D01*
X10743095Y-14435476D01*
X10924048Y-14302143D02*
X10924048Y-14435476D01*
X10876429Y-14225952D02*
X10828810Y-14368809D01*
X10952619Y-14368809D01*
X11066905Y-14235476D02*
X11085952Y-14235476D01*
X11105000Y-14245000D01*
X11114524Y-14254524D01*
X11124048Y-14273571D01*
X11133571Y-14311667D01*
X11133571Y-14359286D01*
X11124048Y-14397381D01*
X11114524Y-14416428D01*
X11105000Y-14425952D01*
X11085952Y-14435476D01*
X11066905Y-14435476D01*
X11047857Y-14425952D01*
X11038333Y-14416428D01*
X11028810Y-14397381D01*
X11019286Y-14359286D01*
X11019286Y-14311667D01*
X11028810Y-14273571D01*
X11038333Y-14254524D01*
X11047857Y-14245000D01*
X11066905Y-14235476D01*
X11257381Y-14235476D02*
X11276428Y-14235476D01*
X11295476Y-14245000D01*
X11305000Y-14254524D01*
X11314524Y-14273571D01*
X11324048Y-14311667D01*
X11324048Y-14359286D01*
X11314524Y-14397381D01*
X11305000Y-14416428D01*
X11295476Y-14425952D01*
X11276428Y-14435476D01*
X11257381Y-14435476D01*
X11238333Y-14425952D01*
X11228809Y-14416428D01*
X11219286Y-14397381D01*
X11209762Y-14359286D01*
X11209762Y-14311667D01*
X11219286Y-14273571D01*
X11228809Y-14254524D01*
X11238333Y-14245000D01*
X11257381Y-14235476D01*
X11409762Y-14435476D02*
X11409762Y-14302143D01*
X11409762Y-14321190D02*
X11419286Y-14311667D01*
X11438333Y-14302143D01*
X11466905Y-14302143D01*
X11485952Y-14311667D01*
X11495476Y-14330714D01*
X11495476Y-14435476D01*
X11495476Y-14330714D02*
X11505000Y-14311667D01*
X11524048Y-14302143D01*
X11552619Y-14302143D01*
X11571667Y-14311667D01*
X11581190Y-14330714D01*
X11581190Y-14435476D01*
X11676428Y-14435476D02*
X11676428Y-14302143D01*
X11676428Y-14321190D02*
X11685952Y-14311667D01*
X11705000Y-14302143D01*
X11733571Y-14302143D01*
X11752619Y-14311667D01*
X11762143Y-14330714D01*
X11762143Y-14435476D01*
X11762143Y-14330714D02*
X11771667Y-14311667D01*
X11790714Y-14302143D01*
X11819286Y-14302143D01*
X11838333Y-14311667D01*
X11847857Y-14330714D01*
X11847857Y-14435476D01*
X12238333Y-14225952D02*
X12066905Y-14483095D01*
X12495476Y-14235476D02*
X12514524Y-14235476D01*
X12533571Y-14245000D01*
X12543095Y-14254524D01*
X12552619Y-14273571D01*
X12562143Y-14311667D01*
X12562143Y-14359286D01*
X12552619Y-14397381D01*
X12543095Y-14416428D01*
X12533571Y-14425952D01*
X12514524Y-14435476D01*
X12495476Y-14435476D01*
X12476428Y-14425952D01*
X12466905Y-14416428D01*
X12457381Y-14397381D01*
X12447857Y-14359286D01*
X12447857Y-14311667D01*
X12457381Y-14273571D01*
X12466905Y-14254524D01*
X12476428Y-14245000D01*
X12495476Y-14235476D01*
X12647857Y-14416428D02*
X12657381Y-14425952D01*
X12647857Y-14435476D01*
X12638333Y-14425952D01*
X12647857Y-14416428D01*
X12647857Y-14435476D01*
X12781190Y-14235476D02*
X12800238Y-14235476D01*
X12819286Y-14245000D01*
X12828809Y-14254524D01*
X12838333Y-14273571D01*
X12847857Y-14311667D01*
X12847857Y-14359286D01*
X12838333Y-14397381D01*
X12828809Y-14416428D01*
X12819286Y-14425952D01*
X12800238Y-14435476D01*
X12781190Y-14435476D01*
X12762143Y-14425952D01*
X12752619Y-14416428D01*
X12743095Y-14397381D01*
X12733571Y-14359286D01*
X12733571Y-14311667D01*
X12743095Y-14273571D01*
X12752619Y-14254524D01*
X12762143Y-14245000D01*
X12781190Y-14235476D01*
X13038333Y-14435476D02*
X12924048Y-14435476D01*
X12981190Y-14435476D02*
X12981190Y-14235476D01*
X12962143Y-14264048D01*
X12943095Y-14283095D01*
X12924048Y-14292619D01*
X13219286Y-14235476D02*
X13124048Y-14235476D01*
X13114524Y-14330714D01*
X13124048Y-14321190D01*
X13143095Y-14311667D01*
X13190714Y-14311667D01*
X13209762Y-14321190D01*
X13219286Y-14330714D01*
X13228809Y-14349762D01*
X13228809Y-14397381D01*
X13219286Y-14416428D01*
X13209762Y-14425952D01*
X13190714Y-14435476D01*
X13143095Y-14435476D01*
X13124048Y-14425952D01*
X13114524Y-14416428D01*
X13295476Y-14235476D02*
X13428809Y-14235476D01*
X13343095Y-14435476D01*
X13495476Y-14235476D02*
X13495476Y-14273571D01*
X13571667Y-14235476D02*
X13571667Y-14273571D01*
X13866905Y-14511667D02*
X13857381Y-14502143D01*
X13838333Y-14473571D01*
X13828809Y-14454524D01*
X13819286Y-14425952D01*
X13809762Y-14378333D01*
X13809762Y-14340238D01*
X13819286Y-14292619D01*
X13828809Y-14264048D01*
X13838333Y-14245000D01*
X13857381Y-14216428D01*
X13866905Y-14206905D01*
X13933571Y-14254524D02*
X13943095Y-14245000D01*
X13962143Y-14235476D01*
X14009762Y-14235476D01*
X14028809Y-14245000D01*
X14038333Y-14254524D01*
X14047857Y-14273571D01*
X14047857Y-14292619D01*
X14038333Y-14321190D01*
X13924048Y-14435476D01*
X14047857Y-14435476D01*
X14171667Y-14235476D02*
X14190714Y-14235476D01*
X14209762Y-14245000D01*
X14219286Y-14254524D01*
X14228809Y-14273571D01*
X14238333Y-14311667D01*
X14238333Y-14359286D01*
X14228809Y-14397381D01*
X14219286Y-14416428D01*
X14209762Y-14425952D01*
X14190714Y-14435476D01*
X14171667Y-14435476D01*
X14152619Y-14425952D01*
X14143095Y-14416428D01*
X14133571Y-14397381D01*
X14124048Y-14359286D01*
X14124048Y-14311667D01*
X14133571Y-14273571D01*
X14143095Y-14254524D01*
X14152619Y-14245000D01*
X14171667Y-14235476D01*
X14476428Y-14435476D02*
X14476428Y-14235476D01*
X14562143Y-14435476D02*
X14562143Y-14330714D01*
X14552619Y-14311667D01*
X14533571Y-14302143D01*
X14505000Y-14302143D01*
X14485952Y-14311667D01*
X14476428Y-14321190D01*
X14685952Y-14435476D02*
X14666905Y-14425952D01*
X14657381Y-14416428D01*
X14647857Y-14397381D01*
X14647857Y-14340238D01*
X14657381Y-14321190D01*
X14666905Y-14311667D01*
X14685952Y-14302143D01*
X14714524Y-14302143D01*
X14733571Y-14311667D01*
X14743095Y-14321190D01*
X14752619Y-14340238D01*
X14752619Y-14397381D01*
X14743095Y-14416428D01*
X14733571Y-14425952D01*
X14714524Y-14435476D01*
X14685952Y-14435476D01*
X14866905Y-14435476D02*
X14847857Y-14425952D01*
X14838333Y-14406905D01*
X14838333Y-14235476D01*
X15019286Y-14425952D02*
X15000238Y-14435476D01*
X14962143Y-14435476D01*
X14943095Y-14425952D01*
X14933571Y-14406905D01*
X14933571Y-14330714D01*
X14943095Y-14311667D01*
X14962143Y-14302143D01*
X15000238Y-14302143D01*
X15019286Y-14311667D01*
X15028809Y-14330714D01*
X15028809Y-14349762D01*
X14933571Y-14368809D01*
X15105000Y-14425952D02*
X15124048Y-14435476D01*
X15162143Y-14435476D01*
X15181190Y-14425952D01*
X15190714Y-14406905D01*
X15190714Y-14397381D01*
X15181190Y-14378333D01*
X15162143Y-14368809D01*
X15133571Y-14368809D01*
X15114524Y-14359286D01*
X15105000Y-14340238D01*
X15105000Y-14330714D01*
X15114524Y-14311667D01*
X15133571Y-14302143D01*
X15162143Y-14302143D01*
X15181190Y-14311667D01*
X15257381Y-14511667D02*
X15266905Y-14502143D01*
X15285952Y-14473571D01*
X15295476Y-14454524D01*
X15305000Y-14425952D01*
X15314524Y-14378333D01*
X15314524Y-14340238D01*
X15305000Y-14292619D01*
X15295476Y-14264048D01*
X15285952Y-14245000D01*
X15266905Y-14216428D01*
X15257381Y-14206905D01*
D13*
X10295000Y-14609000D02*
G75*
G03*
X10295000Y-14609000I-25000J0D01*
G01*
D11*
X10590714Y-14499476D02*
X10609762Y-14499476D01*
X10628810Y-14509000D01*
X10638333Y-14518524D01*
X10647857Y-14537571D01*
X10657381Y-14575667D01*
X10657381Y-14623286D01*
X10647857Y-14661381D01*
X10638333Y-14680428D01*
X10628810Y-14689952D01*
X10609762Y-14699476D01*
X10590714Y-14699476D01*
X10571667Y-14689952D01*
X10562143Y-14680428D01*
X10552619Y-14661381D01*
X10543095Y-14623286D01*
X10543095Y-14575667D01*
X10552619Y-14537571D01*
X10562143Y-14518524D01*
X10571667Y-14509000D01*
X10590714Y-14499476D01*
X10743095Y-14680428D02*
X10752619Y-14689952D01*
X10743095Y-14699476D01*
X10733571Y-14689952D01*
X10743095Y-14680428D01*
X10743095Y-14699476D01*
X10933571Y-14499476D02*
X10838333Y-14499476D01*
X10828810Y-14594714D01*
X10838333Y-14585190D01*
X10857381Y-14575667D01*
X10905000Y-14575667D01*
X10924048Y-14585190D01*
X10933571Y-14594714D01*
X10943095Y-14613762D01*
X10943095Y-14661381D01*
X10933571Y-14680428D01*
X10924048Y-14689952D01*
X10905000Y-14699476D01*
X10857381Y-14699476D01*
X10838333Y-14689952D01*
X10828810Y-14680428D01*
X11066905Y-14499476D02*
X11085952Y-14499476D01*
X11105000Y-14509000D01*
X11114524Y-14518524D01*
X11124048Y-14537571D01*
X11133571Y-14575667D01*
X11133571Y-14623286D01*
X11124048Y-14661381D01*
X11114524Y-14680428D01*
X11105000Y-14689952D01*
X11085952Y-14699476D01*
X11066905Y-14699476D01*
X11047857Y-14689952D01*
X11038333Y-14680428D01*
X11028810Y-14661381D01*
X11019286Y-14623286D01*
X11019286Y-14575667D01*
X11028810Y-14537571D01*
X11038333Y-14518524D01*
X11047857Y-14509000D01*
X11066905Y-14499476D01*
X11257381Y-14499476D02*
X11276428Y-14499476D01*
X11295476Y-14509000D01*
X11305000Y-14518524D01*
X11314524Y-14537571D01*
X11324048Y-14575667D01*
X11324048Y-14623286D01*
X11314524Y-14661381D01*
X11305000Y-14680428D01*
X11295476Y-14689952D01*
X11276428Y-14699476D01*
X11257381Y-14699476D01*
X11238333Y-14689952D01*
X11228809Y-14680428D01*
X11219286Y-14661381D01*
X11209762Y-14623286D01*
X11209762Y-14575667D01*
X11219286Y-14537571D01*
X11228809Y-14518524D01*
X11238333Y-14509000D01*
X11257381Y-14499476D01*
X11409762Y-14699476D02*
X11409762Y-14566143D01*
X11409762Y-14585190D02*
X11419286Y-14575667D01*
X11438333Y-14566143D01*
X11466905Y-14566143D01*
X11485952Y-14575667D01*
X11495476Y-14594714D01*
X11495476Y-14699476D01*
X11495476Y-14594714D02*
X11505000Y-14575667D01*
X11524048Y-14566143D01*
X11552619Y-14566143D01*
X11571667Y-14575667D01*
X11581190Y-14594714D01*
X11581190Y-14699476D01*
X11676428Y-14699476D02*
X11676428Y-14566143D01*
X11676428Y-14585190D02*
X11685952Y-14575667D01*
X11705000Y-14566143D01*
X11733571Y-14566143D01*
X11752619Y-14575667D01*
X11762143Y-14594714D01*
X11762143Y-14699476D01*
X11762143Y-14594714D02*
X11771667Y-14575667D01*
X11790714Y-14566143D01*
X11819286Y-14566143D01*
X11838333Y-14575667D01*
X11847857Y-14594714D01*
X11847857Y-14699476D01*
X12238333Y-14489952D02*
X12066905Y-14747095D01*
X12495476Y-14499476D02*
X12514524Y-14499476D01*
X12533571Y-14509000D01*
X12543095Y-14518524D01*
X12552619Y-14537571D01*
X12562143Y-14575667D01*
X12562143Y-14623286D01*
X12552619Y-14661381D01*
X12543095Y-14680428D01*
X12533571Y-14689952D01*
X12514524Y-14699476D01*
X12495476Y-14699476D01*
X12476428Y-14689952D01*
X12466905Y-14680428D01*
X12457381Y-14661381D01*
X12447857Y-14623286D01*
X12447857Y-14575667D01*
X12457381Y-14537571D01*
X12466905Y-14518524D01*
X12476428Y-14509000D01*
X12495476Y-14499476D01*
X12647857Y-14680428D02*
X12657381Y-14689952D01*
X12647857Y-14699476D01*
X12638333Y-14689952D01*
X12647857Y-14680428D01*
X12647857Y-14699476D01*
X12781190Y-14499476D02*
X12800238Y-14499476D01*
X12819286Y-14509000D01*
X12828809Y-14518524D01*
X12838333Y-14537571D01*
X12847857Y-14575667D01*
X12847857Y-14623286D01*
X12838333Y-14661381D01*
X12828809Y-14680428D01*
X12819286Y-14689952D01*
X12800238Y-14699476D01*
X12781190Y-14699476D01*
X12762143Y-14689952D01*
X12752619Y-14680428D01*
X12743095Y-14661381D01*
X12733571Y-14623286D01*
X12733571Y-14575667D01*
X12743095Y-14537571D01*
X12752619Y-14518524D01*
X12762143Y-14509000D01*
X12781190Y-14499476D01*
X13038333Y-14699476D02*
X12924048Y-14699476D01*
X12981190Y-14699476D02*
X12981190Y-14499476D01*
X12962143Y-14528048D01*
X12943095Y-14547095D01*
X12924048Y-14556619D01*
X13133571Y-14699476D02*
X13171667Y-14699476D01*
X13190714Y-14689952D01*
X13200238Y-14680428D01*
X13219286Y-14651857D01*
X13228809Y-14613762D01*
X13228809Y-14537571D01*
X13219286Y-14518524D01*
X13209762Y-14509000D01*
X13190714Y-14499476D01*
X13152619Y-14499476D01*
X13133571Y-14509000D01*
X13124048Y-14518524D01*
X13114524Y-14537571D01*
X13114524Y-14585190D01*
X13124048Y-14604238D01*
X13133571Y-14613762D01*
X13152619Y-14623286D01*
X13190714Y-14623286D01*
X13209762Y-14613762D01*
X13219286Y-14604238D01*
X13228809Y-14585190D01*
X13295476Y-14499476D02*
X13428809Y-14499476D01*
X13343095Y-14699476D01*
X13495476Y-14499476D02*
X13495476Y-14537571D01*
X13571667Y-14499476D02*
X13571667Y-14537571D01*
X13866905Y-14775667D02*
X13857381Y-14766143D01*
X13838333Y-14737571D01*
X13828809Y-14718524D01*
X13819286Y-14689952D01*
X13809762Y-14642333D01*
X13809762Y-14604238D01*
X13819286Y-14556619D01*
X13828809Y-14528048D01*
X13838333Y-14509000D01*
X13857381Y-14480428D01*
X13866905Y-14470905D01*
X13924048Y-14499476D02*
X14047857Y-14499476D01*
X13981190Y-14575667D01*
X14009762Y-14575667D01*
X14028809Y-14585190D01*
X14038333Y-14594714D01*
X14047857Y-14613762D01*
X14047857Y-14661381D01*
X14038333Y-14680428D01*
X14028809Y-14689952D01*
X14009762Y-14699476D01*
X13952619Y-14699476D01*
X13933571Y-14689952D01*
X13924048Y-14680428D01*
X14124048Y-14518524D02*
X14133571Y-14509000D01*
X14152619Y-14499476D01*
X14200238Y-14499476D01*
X14219286Y-14509000D01*
X14228809Y-14518524D01*
X14238333Y-14537571D01*
X14238333Y-14556619D01*
X14228809Y-14585190D01*
X14114524Y-14699476D01*
X14238333Y-14699476D01*
X14476428Y-14699476D02*
X14476428Y-14499476D01*
X14562143Y-14699476D02*
X14562143Y-14594714D01*
X14552619Y-14575667D01*
X14533571Y-14566143D01*
X14505000Y-14566143D01*
X14485952Y-14575667D01*
X14476428Y-14585190D01*
X14685952Y-14699476D02*
X14666905Y-14689952D01*
X14657381Y-14680428D01*
X14647857Y-14661381D01*
X14647857Y-14604238D01*
X14657381Y-14585190D01*
X14666905Y-14575667D01*
X14685952Y-14566143D01*
X14714524Y-14566143D01*
X14733571Y-14575667D01*
X14743095Y-14585190D01*
X14752619Y-14604238D01*
X14752619Y-14661381D01*
X14743095Y-14680428D01*
X14733571Y-14689952D01*
X14714524Y-14699476D01*
X14685952Y-14699476D01*
X14866905Y-14699476D02*
X14847857Y-14689952D01*
X14838333Y-14670905D01*
X14838333Y-14499476D01*
X15019286Y-14689952D02*
X15000238Y-14699476D01*
X14962143Y-14699476D01*
X14943095Y-14689952D01*
X14933571Y-14670905D01*
X14933571Y-14594714D01*
X14943095Y-14575667D01*
X14962143Y-14566143D01*
X15000238Y-14566143D01*
X15019286Y-14575667D01*
X15028809Y-14594714D01*
X15028809Y-14613762D01*
X14933571Y-14632809D01*
X15105000Y-14689952D02*
X15124048Y-14699476D01*
X15162143Y-14699476D01*
X15181190Y-14689952D01*
X15190714Y-14670905D01*
X15190714Y-14661381D01*
X15181190Y-14642333D01*
X15162143Y-14632809D01*
X15133571Y-14632809D01*
X15114524Y-14623286D01*
X15105000Y-14604238D01*
X15105000Y-14594714D01*
X15114524Y-14575667D01*
X15133571Y-14566143D01*
X15162143Y-14566143D01*
X15181190Y-14575667D01*
X15257381Y-14775667D02*
X15266905Y-14766143D01*
X15285952Y-14737571D01*
X15295476Y-14718524D01*
X15305000Y-14689952D01*
X15314524Y-14642333D01*
X15314524Y-14604238D01*
X15305000Y-14556619D01*
X15295476Y-14528048D01*
X15285952Y-14509000D01*
X15266905Y-14480428D01*
X15257381Y-14470905D01*
D14*
X10247500Y-14825500D02*
X10247500Y-14920500D01*
X10200000Y-14873000D02*
X10295000Y-14873000D01*
D11*
X10590714Y-14763476D02*
X10609762Y-14763476D01*
X10628810Y-14773000D01*
X10638333Y-14782524D01*
X10647857Y-14801571D01*
X10657381Y-14839667D01*
X10657381Y-14887286D01*
X10647857Y-14925381D01*
X10638333Y-14944428D01*
X10628810Y-14953952D01*
X10609762Y-14963476D01*
X10590714Y-14963476D01*
X10571667Y-14953952D01*
X10562143Y-14944428D01*
X10552619Y-14925381D01*
X10543095Y-14887286D01*
X10543095Y-14839667D01*
X10552619Y-14801571D01*
X10562143Y-14782524D01*
X10571667Y-14773000D01*
X10590714Y-14763476D01*
X10743095Y-14944428D02*
X10752619Y-14953952D01*
X10743095Y-14963476D01*
X10733571Y-14953952D01*
X10743095Y-14944428D01*
X10743095Y-14963476D01*
X10847857Y-14963476D02*
X10885952Y-14963476D01*
X10905000Y-14953952D01*
X10914524Y-14944428D01*
X10933571Y-14915857D01*
X10943095Y-14877762D01*
X10943095Y-14801571D01*
X10933571Y-14782524D01*
X10924048Y-14773000D01*
X10905000Y-14763476D01*
X10866905Y-14763476D01*
X10847857Y-14773000D01*
X10838333Y-14782524D01*
X10828810Y-14801571D01*
X10828810Y-14849190D01*
X10838333Y-14868238D01*
X10847857Y-14877762D01*
X10866905Y-14887286D01*
X10905000Y-14887286D01*
X10924048Y-14877762D01*
X10933571Y-14868238D01*
X10943095Y-14849190D01*
X11124048Y-14763476D02*
X11028810Y-14763476D01*
X11019286Y-14858714D01*
X11028810Y-14849190D01*
X11047857Y-14839667D01*
X11095476Y-14839667D01*
X11114524Y-14849190D01*
X11124048Y-14858714D01*
X11133571Y-14877762D01*
X11133571Y-14925381D01*
X11124048Y-14944428D01*
X11114524Y-14953952D01*
X11095476Y-14963476D01*
X11047857Y-14963476D01*
X11028810Y-14953952D01*
X11019286Y-14944428D01*
X11257381Y-14763476D02*
X11276428Y-14763476D01*
X11295476Y-14773000D01*
X11305000Y-14782524D01*
X11314524Y-14801571D01*
X11324048Y-14839667D01*
X11324048Y-14887286D01*
X11314524Y-14925381D01*
X11305000Y-14944428D01*
X11295476Y-14953952D01*
X11276428Y-14963476D01*
X11257381Y-14963476D01*
X11238333Y-14953952D01*
X11228809Y-14944428D01*
X11219286Y-14925381D01*
X11209762Y-14887286D01*
X11209762Y-14839667D01*
X11219286Y-14801571D01*
X11228809Y-14782524D01*
X11238333Y-14773000D01*
X11257381Y-14763476D01*
X11409762Y-14963476D02*
X11409762Y-14830143D01*
X11409762Y-14849190D02*
X11419286Y-14839667D01*
X11438333Y-14830143D01*
X11466905Y-14830143D01*
X11485952Y-14839667D01*
X11495476Y-14858714D01*
X11495476Y-14963476D01*
X11495476Y-14858714D02*
X11505000Y-14839667D01*
X11524048Y-14830143D01*
X11552619Y-14830143D01*
X11571667Y-14839667D01*
X11581190Y-14858714D01*
X11581190Y-14963476D01*
X11676428Y-14963476D02*
X11676428Y-14830143D01*
X11676428Y-14849190D02*
X11685952Y-14839667D01*
X11705000Y-14830143D01*
X11733571Y-14830143D01*
X11752619Y-14839667D01*
X11762143Y-14858714D01*
X11762143Y-14963476D01*
X11762143Y-14858714D02*
X11771667Y-14839667D01*
X11790714Y-14830143D01*
X11819286Y-14830143D01*
X11838333Y-14839667D01*
X11847857Y-14858714D01*
X11847857Y-14963476D01*
X12238333Y-14753952D02*
X12066905Y-15011095D01*
X12495476Y-14763476D02*
X12514524Y-14763476D01*
X12533571Y-14773000D01*
X12543095Y-14782524D01*
X12552619Y-14801571D01*
X12562143Y-14839667D01*
X12562143Y-14887286D01*
X12552619Y-14925381D01*
X12543095Y-14944428D01*
X12533571Y-14953952D01*
X12514524Y-14963476D01*
X12495476Y-14963476D01*
X12476428Y-14953952D01*
X12466905Y-14944428D01*
X12457381Y-14925381D01*
X12447857Y-14887286D01*
X12447857Y-14839667D01*
X12457381Y-14801571D01*
X12466905Y-14782524D01*
X12476428Y-14773000D01*
X12495476Y-14763476D01*
X12647857Y-14944428D02*
X12657381Y-14953952D01*
X12647857Y-14963476D01*
X12638333Y-14953952D01*
X12647857Y-14944428D01*
X12647857Y-14963476D01*
X12781190Y-14763476D02*
X12800238Y-14763476D01*
X12819286Y-14773000D01*
X12828809Y-14782524D01*
X12838333Y-14801571D01*
X12847857Y-14839667D01*
X12847857Y-14887286D01*
X12838333Y-14925381D01*
X12828809Y-14944428D01*
X12819286Y-14953952D01*
X12800238Y-14963476D01*
X12781190Y-14963476D01*
X12762143Y-14953952D01*
X12752619Y-14944428D01*
X12743095Y-14925381D01*
X12733571Y-14887286D01*
X12733571Y-14839667D01*
X12743095Y-14801571D01*
X12752619Y-14782524D01*
X12762143Y-14773000D01*
X12781190Y-14763476D01*
X12914524Y-14763476D02*
X13038333Y-14763476D01*
X12971667Y-14839667D01*
X13000238Y-14839667D01*
X13019286Y-14849190D01*
X13028809Y-14858714D01*
X13038333Y-14877762D01*
X13038333Y-14925381D01*
X13028809Y-14944428D01*
X13019286Y-14953952D01*
X13000238Y-14963476D01*
X12943095Y-14963476D01*
X12924048Y-14953952D01*
X12914524Y-14944428D01*
X13105000Y-14763476D02*
X13238333Y-14763476D01*
X13152619Y-14963476D01*
X13400238Y-14830143D02*
X13400238Y-14963476D01*
X13352619Y-14753952D02*
X13305000Y-14896809D01*
X13428809Y-14896809D01*
X13495476Y-14763476D02*
X13495476Y-14801571D01*
X13571667Y-14763476D02*
X13571667Y-14801571D01*
X13866905Y-15039667D02*
X13857381Y-15030143D01*
X13838333Y-15001571D01*
X13828809Y-14982524D01*
X13819286Y-14953952D01*
X13809762Y-14906333D01*
X13809762Y-14868238D01*
X13819286Y-14820619D01*
X13828809Y-14792048D01*
X13838333Y-14773000D01*
X13857381Y-14744428D01*
X13866905Y-14734905D01*
X14028809Y-14763476D02*
X13990714Y-14763476D01*
X13971667Y-14773000D01*
X13962143Y-14782524D01*
X13943095Y-14811095D01*
X13933571Y-14849190D01*
X13933571Y-14925381D01*
X13943095Y-14944428D01*
X13952619Y-14953952D01*
X13971667Y-14963476D01*
X14009762Y-14963476D01*
X14028809Y-14953952D01*
X14038333Y-14944428D01*
X14047857Y-14925381D01*
X14047857Y-14877762D01*
X14038333Y-14858714D01*
X14028809Y-14849190D01*
X14009762Y-14839667D01*
X13971667Y-14839667D01*
X13952619Y-14849190D01*
X13943095Y-14858714D01*
X13933571Y-14877762D01*
X14285952Y-14963476D02*
X14285952Y-14763476D01*
X14371667Y-14963476D02*
X14371667Y-14858714D01*
X14362143Y-14839667D01*
X14343095Y-14830143D01*
X14314524Y-14830143D01*
X14295476Y-14839667D01*
X14285952Y-14849190D01*
X14495476Y-14963476D02*
X14476428Y-14953952D01*
X14466905Y-14944428D01*
X14457381Y-14925381D01*
X14457381Y-14868238D01*
X14466905Y-14849190D01*
X14476428Y-14839667D01*
X14495476Y-14830143D01*
X14524048Y-14830143D01*
X14543095Y-14839667D01*
X14552619Y-14849190D01*
X14562143Y-14868238D01*
X14562143Y-14925381D01*
X14552619Y-14944428D01*
X14543095Y-14953952D01*
X14524048Y-14963476D01*
X14495476Y-14963476D01*
X14676428Y-14963476D02*
X14657381Y-14953952D01*
X14647857Y-14934905D01*
X14647857Y-14763476D01*
X14828809Y-14953952D02*
X14809762Y-14963476D01*
X14771667Y-14963476D01*
X14752619Y-14953952D01*
X14743095Y-14934905D01*
X14743095Y-14858714D01*
X14752619Y-14839667D01*
X14771667Y-14830143D01*
X14809762Y-14830143D01*
X14828809Y-14839667D01*
X14838333Y-14858714D01*
X14838333Y-14877762D01*
X14743095Y-14896809D01*
X14914524Y-14953952D02*
X14933571Y-14963476D01*
X14971667Y-14963476D01*
X14990714Y-14953952D01*
X15000238Y-14934905D01*
X15000238Y-14925381D01*
X14990714Y-14906333D01*
X14971667Y-14896809D01*
X14943095Y-14896809D01*
X14924048Y-14887286D01*
X14914524Y-14868238D01*
X14914524Y-14858714D01*
X14924048Y-14839667D01*
X14943095Y-14830143D01*
X14971667Y-14830143D01*
X14990714Y-14839667D01*
X15066905Y-15039667D02*
X15076428Y-15030143D01*
X15095476Y-15001571D01*
X15105000Y-14982524D01*
X15114524Y-14953952D01*
X15124048Y-14906333D01*
X15124048Y-14868238D01*
X15114524Y-14820619D01*
X15105000Y-14792048D01*
X15095476Y-14773000D01*
X15076428Y-14744428D01*
X15066905Y-14734905D01*
D15*
X10280649Y-15171649D02*
X10280649Y-15102351D01*
X10211351Y-15102351D01*
X10211351Y-15171649D01*
X10280649Y-15171649D01*
D11*
X10590714Y-15027476D02*
X10609762Y-15027476D01*
X10628810Y-15037000D01*
X10638333Y-15046524D01*
X10647857Y-15065571D01*
X10657381Y-15103667D01*
X10657381Y-15151286D01*
X10647857Y-15189381D01*
X10638333Y-15208428D01*
X10628810Y-15217952D01*
X10609762Y-15227476D01*
X10590714Y-15227476D01*
X10571667Y-15217952D01*
X10562143Y-15208428D01*
X10552619Y-15189381D01*
X10543095Y-15151286D01*
X10543095Y-15103667D01*
X10552619Y-15065571D01*
X10562143Y-15046524D01*
X10571667Y-15037000D01*
X10590714Y-15027476D01*
X10743095Y-15208428D02*
X10752619Y-15217952D01*
X10743095Y-15227476D01*
X10733571Y-15217952D01*
X10743095Y-15208428D01*
X10743095Y-15227476D01*
X10847857Y-15227476D02*
X10885952Y-15227476D01*
X10905000Y-15217952D01*
X10914524Y-15208428D01*
X10933571Y-15179857D01*
X10943095Y-15141762D01*
X10943095Y-15065571D01*
X10933571Y-15046524D01*
X10924048Y-15037000D01*
X10905000Y-15027476D01*
X10866905Y-15027476D01*
X10847857Y-15037000D01*
X10838333Y-15046524D01*
X10828810Y-15065571D01*
X10828810Y-15113190D01*
X10838333Y-15132238D01*
X10847857Y-15141762D01*
X10866905Y-15151286D01*
X10905000Y-15151286D01*
X10924048Y-15141762D01*
X10933571Y-15132238D01*
X10943095Y-15113190D01*
X11057381Y-15113190D02*
X11038333Y-15103667D01*
X11028810Y-15094143D01*
X11019286Y-15075095D01*
X11019286Y-15065571D01*
X11028810Y-15046524D01*
X11038333Y-15037000D01*
X11057381Y-15027476D01*
X11095476Y-15027476D01*
X11114524Y-15037000D01*
X11124048Y-15046524D01*
X11133571Y-15065571D01*
X11133571Y-15075095D01*
X11124048Y-15094143D01*
X11114524Y-15103667D01*
X11095476Y-15113190D01*
X11057381Y-15113190D01*
X11038333Y-15122714D01*
X11028810Y-15132238D01*
X11019286Y-15151286D01*
X11019286Y-15189381D01*
X11028810Y-15208428D01*
X11038333Y-15217952D01*
X11057381Y-15227476D01*
X11095476Y-15227476D01*
X11114524Y-15217952D01*
X11124048Y-15208428D01*
X11133571Y-15189381D01*
X11133571Y-15151286D01*
X11124048Y-15132238D01*
X11114524Y-15122714D01*
X11095476Y-15113190D01*
X11257381Y-15027476D02*
X11276428Y-15027476D01*
X11295476Y-15037000D01*
X11305000Y-15046524D01*
X11314524Y-15065571D01*
X11324048Y-15103667D01*
X11324048Y-15151286D01*
X11314524Y-15189381D01*
X11305000Y-15208428D01*
X11295476Y-15217952D01*
X11276428Y-15227476D01*
X11257381Y-15227476D01*
X11238333Y-15217952D01*
X11228809Y-15208428D01*
X11219286Y-15189381D01*
X11209762Y-15151286D01*
X11209762Y-15103667D01*
X11219286Y-15065571D01*
X11228809Y-15046524D01*
X11238333Y-15037000D01*
X11257381Y-15027476D01*
X11409762Y-15227476D02*
X11409762Y-15094143D01*
X11409762Y-15113190D02*
X11419286Y-15103667D01*
X11438333Y-15094143D01*
X11466905Y-15094143D01*
X11485952Y-15103667D01*
X11495476Y-15122714D01*
X11495476Y-15227476D01*
X11495476Y-15122714D02*
X11505000Y-15103667D01*
X11524048Y-15094143D01*
X11552619Y-15094143D01*
X11571667Y-15103667D01*
X11581190Y-15122714D01*
X11581190Y-15227476D01*
X11676428Y-15227476D02*
X11676428Y-15094143D01*
X11676428Y-15113190D02*
X11685952Y-15103667D01*
X11705000Y-15094143D01*
X11733571Y-15094143D01*
X11752619Y-15103667D01*
X11762143Y-15122714D01*
X11762143Y-15227476D01*
X11762143Y-15122714D02*
X11771667Y-15103667D01*
X11790714Y-15094143D01*
X11819286Y-15094143D01*
X11838333Y-15103667D01*
X11847857Y-15122714D01*
X11847857Y-15227476D01*
X12238333Y-15017952D02*
X12066905Y-15275095D01*
X12495476Y-15027476D02*
X12514524Y-15027476D01*
X12533571Y-15037000D01*
X12543095Y-15046524D01*
X12552619Y-15065571D01*
X12562143Y-15103667D01*
X12562143Y-15151286D01*
X12552619Y-15189381D01*
X12543095Y-15208428D01*
X12533571Y-15217952D01*
X12514524Y-15227476D01*
X12495476Y-15227476D01*
X12476428Y-15217952D01*
X12466905Y-15208428D01*
X12457381Y-15189381D01*
X12447857Y-15151286D01*
X12447857Y-15103667D01*
X12457381Y-15065571D01*
X12466905Y-15046524D01*
X12476428Y-15037000D01*
X12495476Y-15027476D01*
X12647857Y-15208428D02*
X12657381Y-15217952D01*
X12647857Y-15227476D01*
X12638333Y-15217952D01*
X12647857Y-15208428D01*
X12647857Y-15227476D01*
X12781190Y-15027476D02*
X12800238Y-15027476D01*
X12819286Y-15037000D01*
X12828809Y-15046524D01*
X12838333Y-15065571D01*
X12847857Y-15103667D01*
X12847857Y-15151286D01*
X12838333Y-15189381D01*
X12828809Y-15208428D01*
X12819286Y-15217952D01*
X12800238Y-15227476D01*
X12781190Y-15227476D01*
X12762143Y-15217952D01*
X12752619Y-15208428D01*
X12743095Y-15189381D01*
X12733571Y-15151286D01*
X12733571Y-15103667D01*
X12743095Y-15065571D01*
X12752619Y-15046524D01*
X12762143Y-15037000D01*
X12781190Y-15027476D01*
X12914524Y-15027476D02*
X13038333Y-15027476D01*
X12971667Y-15103667D01*
X13000238Y-15103667D01*
X13019286Y-15113190D01*
X13028809Y-15122714D01*
X13038333Y-15141762D01*
X13038333Y-15189381D01*
X13028809Y-15208428D01*
X13019286Y-15217952D01*
X13000238Y-15227476D01*
X12943095Y-15227476D01*
X12924048Y-15217952D01*
X12914524Y-15208428D01*
X13152619Y-15113190D02*
X13133571Y-15103667D01*
X13124048Y-15094143D01*
X13114524Y-15075095D01*
X13114524Y-15065571D01*
X13124048Y-15046524D01*
X13133571Y-15037000D01*
X13152619Y-15027476D01*
X13190714Y-15027476D01*
X13209762Y-15037000D01*
X13219286Y-15046524D01*
X13228809Y-15065571D01*
X13228809Y-15075095D01*
X13219286Y-15094143D01*
X13209762Y-15103667D01*
X13190714Y-15113190D01*
X13152619Y-15113190D01*
X13133571Y-15122714D01*
X13124048Y-15132238D01*
X13114524Y-15151286D01*
X13114524Y-15189381D01*
X13124048Y-15208428D01*
X13133571Y-15217952D01*
X13152619Y-15227476D01*
X13190714Y-15227476D01*
X13209762Y-15217952D01*
X13219286Y-15208428D01*
X13228809Y-15189381D01*
X13228809Y-15151286D01*
X13219286Y-15132238D01*
X13209762Y-15122714D01*
X13190714Y-15113190D01*
X13400238Y-15027476D02*
X13362143Y-15027476D01*
X13343095Y-15037000D01*
X13333571Y-15046524D01*
X13314524Y-15075095D01*
X13305000Y-15113190D01*
X13305000Y-15189381D01*
X13314524Y-15208428D01*
X13324048Y-15217952D01*
X13343095Y-15227476D01*
X13381190Y-15227476D01*
X13400238Y-15217952D01*
X13409762Y-15208428D01*
X13419286Y-15189381D01*
X13419286Y-15141762D01*
X13409762Y-15122714D01*
X13400238Y-15113190D01*
X13381190Y-15103667D01*
X13343095Y-15103667D01*
X13324048Y-15113190D01*
X13314524Y-15122714D01*
X13305000Y-15141762D01*
X13495476Y-15027476D02*
X13495476Y-15065571D01*
X13571667Y-15027476D02*
X13571667Y-15065571D01*
X13866905Y-15303667D02*
X13857381Y-15294143D01*
X13838333Y-15265571D01*
X13828809Y-15246524D01*
X13819286Y-15217952D01*
X13809762Y-15170333D01*
X13809762Y-15132238D01*
X13819286Y-15084619D01*
X13828809Y-15056048D01*
X13838333Y-15037000D01*
X13857381Y-15008428D01*
X13866905Y-14998905D01*
X13981190Y-15027476D02*
X14000238Y-15027476D01*
X14019286Y-15037000D01*
X14028809Y-15046524D01*
X14038333Y-15065571D01*
X14047857Y-15103667D01*
X14047857Y-15151286D01*
X14038333Y-15189381D01*
X14028809Y-15208428D01*
X14019286Y-15217952D01*
X14000238Y-15227476D01*
X13981190Y-15227476D01*
X13962143Y-15217952D01*
X13952619Y-15208428D01*
X13943095Y-15189381D01*
X13933571Y-15151286D01*
X13933571Y-15103667D01*
X13943095Y-15065571D01*
X13952619Y-15046524D01*
X13962143Y-15037000D01*
X13981190Y-15027476D01*
X14285952Y-15227476D02*
X14285952Y-15027476D01*
X14371667Y-15227476D02*
X14371667Y-15122714D01*
X14362143Y-15103667D01*
X14343095Y-15094143D01*
X14314524Y-15094143D01*
X14295476Y-15103667D01*
X14285952Y-15113190D01*
X14495476Y-15227476D02*
X14476428Y-15217952D01*
X14466905Y-15208428D01*
X14457381Y-15189381D01*
X14457381Y-15132238D01*
X14466905Y-15113190D01*
X14476428Y-15103667D01*
X14495476Y-15094143D01*
X14524048Y-15094143D01*
X14543095Y-15103667D01*
X14552619Y-15113190D01*
X14562143Y-15132238D01*
X14562143Y-15189381D01*
X14552619Y-15208428D01*
X14543095Y-15217952D01*
X14524048Y-15227476D01*
X14495476Y-15227476D01*
X14676428Y-15227476D02*
X14657381Y-15217952D01*
X14647857Y-15198905D01*
X14647857Y-15027476D01*
X14828809Y-15217952D02*
X14809762Y-15227476D01*
X14771667Y-15227476D01*
X14752619Y-15217952D01*
X14743095Y-15198905D01*
X14743095Y-15122714D01*
X14752619Y-15103667D01*
X14771667Y-15094143D01*
X14809762Y-15094143D01*
X14828809Y-15103667D01*
X14838333Y-15122714D01*
X14838333Y-15141762D01*
X14743095Y-15160809D01*
X14914524Y-15217952D02*
X14933571Y-15227476D01*
X14971667Y-15227476D01*
X14990714Y-15217952D01*
X15000238Y-15198905D01*
X15000238Y-15189381D01*
X14990714Y-15170333D01*
X14971667Y-15160809D01*
X14943095Y-15160809D01*
X14924048Y-15151286D01*
X14914524Y-15132238D01*
X14914524Y-15122714D01*
X14924048Y-15103667D01*
X14943095Y-15094143D01*
X14971667Y-15094143D01*
X14990714Y-15103667D01*
X15238333Y-15151286D02*
X15390714Y-15151286D01*
X15314524Y-15227476D02*
X15314524Y-15075095D01*
X15628809Y-15046524D02*
X15638333Y-15037000D01*
X15657381Y-15027476D01*
X15705000Y-15027476D01*
X15724048Y-15037000D01*
X15733571Y-15046524D01*
X15743095Y-15065571D01*
X15743095Y-15084619D01*
X15733571Y-15113190D01*
X15619286Y-15227476D01*
X15743095Y-15227476D01*
X15971667Y-15217952D02*
X15990714Y-15227476D01*
X16028809Y-15227476D01*
X16047857Y-15217952D01*
X16057381Y-15198905D01*
X16057381Y-15189381D01*
X16047857Y-15170333D01*
X16028809Y-15160809D01*
X16000238Y-15160809D01*
X15981190Y-15151286D01*
X15971667Y-15132238D01*
X15971667Y-15122714D01*
X15981190Y-15103667D01*
X16000238Y-15094143D01*
X16028809Y-15094143D01*
X16047857Y-15103667D01*
X16171667Y-15227476D02*
X16152619Y-15217952D01*
X16143095Y-15198905D01*
X16143095Y-15027476D01*
X16276428Y-15227476D02*
X16257381Y-15217952D01*
X16247857Y-15208428D01*
X16238333Y-15189381D01*
X16238333Y-15132238D01*
X16247857Y-15113190D01*
X16257381Y-15103667D01*
X16276428Y-15094143D01*
X16305000Y-15094143D01*
X16324048Y-15103667D01*
X16333571Y-15113190D01*
X16343095Y-15132238D01*
X16343095Y-15189381D01*
X16333571Y-15208428D01*
X16324048Y-15217952D01*
X16305000Y-15227476D01*
X16276428Y-15227476D01*
X16400238Y-15094143D02*
X16476428Y-15094143D01*
X16428809Y-15027476D02*
X16428809Y-15198905D01*
X16438333Y-15217952D01*
X16457381Y-15227476D01*
X16476428Y-15227476D01*
X16533571Y-15217952D02*
X16552619Y-15227476D01*
X16590714Y-15227476D01*
X16609762Y-15217952D01*
X16619286Y-15198905D01*
X16619286Y-15189381D01*
X16609762Y-15170333D01*
X16590714Y-15160809D01*
X16562143Y-15160809D01*
X16543095Y-15151286D01*
X16533571Y-15132238D01*
X16533571Y-15122714D01*
X16543095Y-15103667D01*
X16562143Y-15094143D01*
X16590714Y-15094143D01*
X16609762Y-15103667D01*
X16685952Y-15303667D02*
X16695476Y-15294143D01*
X16714524Y-15265571D01*
X16724048Y-15246524D01*
X16733571Y-15217952D01*
X16743095Y-15170333D01*
X16743095Y-15132238D01*
X16733571Y-15084619D01*
X16724048Y-15056048D01*
X16714524Y-15037000D01*
X16695476Y-15008428D01*
X16685952Y-14998905D01*
D10*
X10245000Y-15451000D02*
X10295000Y-15401000D01*
X10245000Y-15351000D01*
X10195000Y-15401000D01*
X10245000Y-15451000D01*
D11*
X10657381Y-15491476D02*
X10543095Y-15491476D01*
X10600238Y-15491476D02*
X10600238Y-15291476D01*
X10581190Y-15320048D01*
X10562143Y-15339095D01*
X10543095Y-15348619D01*
X10743095Y-15472428D02*
X10752619Y-15481952D01*
X10743095Y-15491476D01*
X10733571Y-15481952D01*
X10743095Y-15472428D01*
X10743095Y-15491476D01*
X10876429Y-15291476D02*
X10895476Y-15291476D01*
X10914524Y-15301000D01*
X10924048Y-15310524D01*
X10933571Y-15329571D01*
X10943095Y-15367667D01*
X10943095Y-15415286D01*
X10933571Y-15453381D01*
X10924048Y-15472428D01*
X10914524Y-15481952D01*
X10895476Y-15491476D01*
X10876429Y-15491476D01*
X10857381Y-15481952D01*
X10847857Y-15472428D01*
X10838333Y-15453381D01*
X10828810Y-15415286D01*
X10828810Y-15367667D01*
X10838333Y-15329571D01*
X10847857Y-15310524D01*
X10857381Y-15301000D01*
X10876429Y-15291476D01*
X11066905Y-15291476D02*
X11085952Y-15291476D01*
X11105000Y-15301000D01*
X11114524Y-15310524D01*
X11124048Y-15329571D01*
X11133571Y-15367667D01*
X11133571Y-15415286D01*
X11124048Y-15453381D01*
X11114524Y-15472428D01*
X11105000Y-15481952D01*
X11085952Y-15491476D01*
X11066905Y-15491476D01*
X11047857Y-15481952D01*
X11038333Y-15472428D01*
X11028810Y-15453381D01*
X11019286Y-15415286D01*
X11019286Y-15367667D01*
X11028810Y-15329571D01*
X11038333Y-15310524D01*
X11047857Y-15301000D01*
X11066905Y-15291476D01*
X11257381Y-15291476D02*
X11276428Y-15291476D01*
X11295476Y-15301000D01*
X11305000Y-15310524D01*
X11314524Y-15329571D01*
X11324048Y-15367667D01*
X11324048Y-15415286D01*
X11314524Y-15453381D01*
X11305000Y-15472428D01*
X11295476Y-15481952D01*
X11276428Y-15491476D01*
X11257381Y-15491476D01*
X11238333Y-15481952D01*
X11228809Y-15472428D01*
X11219286Y-15453381D01*
X11209762Y-15415286D01*
X11209762Y-15367667D01*
X11219286Y-15329571D01*
X11228809Y-15310524D01*
X11238333Y-15301000D01*
X11257381Y-15291476D01*
X11409762Y-15491476D02*
X11409762Y-15358143D01*
X11409762Y-15377190D02*
X11419286Y-15367667D01*
X11438333Y-15358143D01*
X11466905Y-15358143D01*
X11485952Y-15367667D01*
X11495476Y-15386714D01*
X11495476Y-15491476D01*
X11495476Y-15386714D02*
X11505000Y-15367667D01*
X11524048Y-15358143D01*
X11552619Y-15358143D01*
X11571667Y-15367667D01*
X11581190Y-15386714D01*
X11581190Y-15491476D01*
X11676428Y-15491476D02*
X11676428Y-15358143D01*
X11676428Y-15377190D02*
X11685952Y-15367667D01*
X11705000Y-15358143D01*
X11733571Y-15358143D01*
X11752619Y-15367667D01*
X11762143Y-15386714D01*
X11762143Y-15491476D01*
X11762143Y-15386714D02*
X11771667Y-15367667D01*
X11790714Y-15358143D01*
X11819286Y-15358143D01*
X11838333Y-15367667D01*
X11847857Y-15386714D01*
X11847857Y-15491476D01*
X12238333Y-15281952D02*
X12066905Y-15539095D01*
X12495476Y-15291476D02*
X12514524Y-15291476D01*
X12533571Y-15301000D01*
X12543095Y-15310524D01*
X12552619Y-15329571D01*
X12562143Y-15367667D01*
X12562143Y-15415286D01*
X12552619Y-15453381D01*
X12543095Y-15472428D01*
X12533571Y-15481952D01*
X12514524Y-15491476D01*
X12495476Y-15491476D01*
X12476428Y-15481952D01*
X12466905Y-15472428D01*
X12457381Y-15453381D01*
X12447857Y-15415286D01*
X12447857Y-15367667D01*
X12457381Y-15329571D01*
X12466905Y-15310524D01*
X12476428Y-15301000D01*
X12495476Y-15291476D01*
X12647857Y-15472428D02*
X12657381Y-15481952D01*
X12647857Y-15491476D01*
X12638333Y-15481952D01*
X12647857Y-15472428D01*
X12647857Y-15491476D01*
X12781190Y-15291476D02*
X12800238Y-15291476D01*
X12819286Y-15301000D01*
X12828809Y-15310524D01*
X12838333Y-15329571D01*
X12847857Y-15367667D01*
X12847857Y-15415286D01*
X12838333Y-15453381D01*
X12828809Y-15472428D01*
X12819286Y-15481952D01*
X12800238Y-15491476D01*
X12781190Y-15491476D01*
X12762143Y-15481952D01*
X12752619Y-15472428D01*
X12743095Y-15453381D01*
X12733571Y-15415286D01*
X12733571Y-15367667D01*
X12743095Y-15329571D01*
X12752619Y-15310524D01*
X12762143Y-15301000D01*
X12781190Y-15291476D01*
X12914524Y-15291476D02*
X13038333Y-15291476D01*
X12971667Y-15367667D01*
X13000238Y-15367667D01*
X13019286Y-15377190D01*
X13028809Y-15386714D01*
X13038333Y-15405762D01*
X13038333Y-15453381D01*
X13028809Y-15472428D01*
X13019286Y-15481952D01*
X13000238Y-15491476D01*
X12943095Y-15491476D01*
X12924048Y-15481952D01*
X12914524Y-15472428D01*
X13133571Y-15491476D02*
X13171667Y-15491476D01*
X13190714Y-15481952D01*
X13200238Y-15472428D01*
X13219286Y-15443857D01*
X13228809Y-15405762D01*
X13228809Y-15329571D01*
X13219286Y-15310524D01*
X13209762Y-15301000D01*
X13190714Y-15291476D01*
X13152619Y-15291476D01*
X13133571Y-15301000D01*
X13124048Y-15310524D01*
X13114524Y-15329571D01*
X13114524Y-15377190D01*
X13124048Y-15396238D01*
X13133571Y-15405762D01*
X13152619Y-15415286D01*
X13190714Y-15415286D01*
X13209762Y-15405762D01*
X13219286Y-15396238D01*
X13228809Y-15377190D01*
X13400238Y-15358143D02*
X13400238Y-15491476D01*
X13352619Y-15281952D02*
X13305000Y-15424809D01*
X13428809Y-15424809D01*
X13495476Y-15291476D02*
X13495476Y-15329571D01*
X13571667Y-15291476D02*
X13571667Y-15329571D01*
X13866905Y-15567667D02*
X13857381Y-15558143D01*
X13838333Y-15529571D01*
X13828809Y-15510524D01*
X13819286Y-15481952D01*
X13809762Y-15434333D01*
X13809762Y-15396238D01*
X13819286Y-15348619D01*
X13828809Y-15320048D01*
X13838333Y-15301000D01*
X13857381Y-15272428D01*
X13866905Y-15262905D01*
X14047857Y-15491476D02*
X13933571Y-15491476D01*
X13990714Y-15491476D02*
X13990714Y-15291476D01*
X13971667Y-15320048D01*
X13952619Y-15339095D01*
X13933571Y-15348619D01*
X14171667Y-15291476D02*
X14190714Y-15291476D01*
X14209762Y-15301000D01*
X14219286Y-15310524D01*
X14228809Y-15329571D01*
X14238333Y-15367667D01*
X14238333Y-15415286D01*
X14228809Y-15453381D01*
X14219286Y-15472428D01*
X14209762Y-15481952D01*
X14190714Y-15491476D01*
X14171667Y-15491476D01*
X14152619Y-15481952D01*
X14143095Y-15472428D01*
X14133571Y-15453381D01*
X14124048Y-15415286D01*
X14124048Y-15367667D01*
X14133571Y-15329571D01*
X14143095Y-15310524D01*
X14152619Y-15301000D01*
X14171667Y-15291476D01*
X14314524Y-15310524D02*
X14324048Y-15301000D01*
X14343095Y-15291476D01*
X14390714Y-15291476D01*
X14409762Y-15301000D01*
X14419286Y-15310524D01*
X14428809Y-15329571D01*
X14428809Y-15348619D01*
X14419286Y-15377190D01*
X14305000Y-15491476D01*
X14428809Y-15491476D01*
X14666905Y-15491476D02*
X14666905Y-15291476D01*
X14752619Y-15491476D02*
X14752619Y-15386714D01*
X14743095Y-15367667D01*
X14724048Y-15358143D01*
X14695476Y-15358143D01*
X14676428Y-15367667D01*
X14666905Y-15377190D01*
X14876428Y-15491476D02*
X14857381Y-15481952D01*
X14847857Y-15472428D01*
X14838333Y-15453381D01*
X14838333Y-15396238D01*
X14847857Y-15377190D01*
X14857381Y-15367667D01*
X14876428Y-15358143D01*
X14905000Y-15358143D01*
X14924048Y-15367667D01*
X14933571Y-15377190D01*
X14943095Y-15396238D01*
X14943095Y-15453381D01*
X14933571Y-15472428D01*
X14924048Y-15481952D01*
X14905000Y-15491476D01*
X14876428Y-15491476D01*
X15057381Y-15491476D02*
X15038333Y-15481952D01*
X15028809Y-15462905D01*
X15028809Y-15291476D01*
X15209762Y-15481952D02*
X15190714Y-15491476D01*
X15152619Y-15491476D01*
X15133571Y-15481952D01*
X15124048Y-15462905D01*
X15124048Y-15386714D01*
X15133571Y-15367667D01*
X15152619Y-15358143D01*
X15190714Y-15358143D01*
X15209762Y-15367667D01*
X15219286Y-15386714D01*
X15219286Y-15405762D01*
X15124048Y-15424809D01*
X15295476Y-15481952D02*
X15314524Y-15491476D01*
X15352619Y-15491476D01*
X15371667Y-15481952D01*
X15381190Y-15462905D01*
X15381190Y-15453381D01*
X15371667Y-15434333D01*
X15352619Y-15424809D01*
X15324048Y-15424809D01*
X15305000Y-15415286D01*
X15295476Y-15396238D01*
X15295476Y-15386714D01*
X15305000Y-15367667D01*
X15324048Y-15358143D01*
X15352619Y-15358143D01*
X15371667Y-15367667D01*
X15447857Y-15567667D02*
X15457381Y-15558143D01*
X15476428Y-15529571D01*
X15485952Y-15510524D01*
X15495476Y-15481952D01*
X15505000Y-15434333D01*
X15505000Y-15396238D01*
X15495476Y-15348619D01*
X15485952Y-15320048D01*
X15476428Y-15301000D01*
X15457381Y-15272428D01*
X15447857Y-15262905D01*
D16*
X10193000Y-15614000D02*
X10295000Y-15716000D01*
X10295000Y-15614000D02*
X10193000Y-15716000D01*
X10295000Y-15665000D02*
G75*
G03*
X10295000Y-15665000I-51000J0D01*
G01*
D11*
X10657381Y-15755476D02*
X10543095Y-15755476D01*
X10600238Y-15755476D02*
X10600238Y-15555476D01*
X10581190Y-15584048D01*
X10562143Y-15603095D01*
X10543095Y-15612619D01*
X10743095Y-15736428D02*
X10752619Y-15745952D01*
X10743095Y-15755476D01*
X10733571Y-15745952D01*
X10743095Y-15736428D01*
X10743095Y-15755476D01*
X10876429Y-15555476D02*
X10895476Y-15555476D01*
X10914524Y-15565000D01*
X10924048Y-15574524D01*
X10933571Y-15593571D01*
X10943095Y-15631667D01*
X10943095Y-15679286D01*
X10933571Y-15717381D01*
X10924048Y-15736428D01*
X10914524Y-15745952D01*
X10895476Y-15755476D01*
X10876429Y-15755476D01*
X10857381Y-15745952D01*
X10847857Y-15736428D01*
X10838333Y-15717381D01*
X10828810Y-15679286D01*
X10828810Y-15631667D01*
X10838333Y-15593571D01*
X10847857Y-15574524D01*
X10857381Y-15565000D01*
X10876429Y-15555476D01*
X11019286Y-15574524D02*
X11028810Y-15565000D01*
X11047857Y-15555476D01*
X11095476Y-15555476D01*
X11114524Y-15565000D01*
X11124048Y-15574524D01*
X11133571Y-15593571D01*
X11133571Y-15612619D01*
X11124048Y-15641190D01*
X11009762Y-15755476D01*
X11133571Y-15755476D01*
X11257381Y-15555476D02*
X11276428Y-15555476D01*
X11295476Y-15565000D01*
X11305000Y-15574524D01*
X11314524Y-15593571D01*
X11324048Y-15631667D01*
X11324048Y-15679286D01*
X11314524Y-15717381D01*
X11305000Y-15736428D01*
X11295476Y-15745952D01*
X11276428Y-15755476D01*
X11257381Y-15755476D01*
X11238333Y-15745952D01*
X11228809Y-15736428D01*
X11219286Y-15717381D01*
X11209762Y-15679286D01*
X11209762Y-15631667D01*
X11219286Y-15593571D01*
X11228809Y-15574524D01*
X11238333Y-15565000D01*
X11257381Y-15555476D01*
X11409762Y-15755476D02*
X11409762Y-15622143D01*
X11409762Y-15641190D02*
X11419286Y-15631667D01*
X11438333Y-15622143D01*
X11466905Y-15622143D01*
X11485952Y-15631667D01*
X11495476Y-15650714D01*
X11495476Y-15755476D01*
X11495476Y-15650714D02*
X11505000Y-15631667D01*
X11524048Y-15622143D01*
X11552619Y-15622143D01*
X11571667Y-15631667D01*
X11581190Y-15650714D01*
X11581190Y-15755476D01*
X11676428Y-15755476D02*
X11676428Y-15622143D01*
X11676428Y-15641190D02*
X11685952Y-15631667D01*
X11705000Y-15622143D01*
X11733571Y-15622143D01*
X11752619Y-15631667D01*
X11762143Y-15650714D01*
X11762143Y-15755476D01*
X11762143Y-15650714D02*
X11771667Y-15631667D01*
X11790714Y-15622143D01*
X11819286Y-15622143D01*
X11838333Y-15631667D01*
X11847857Y-15650714D01*
X11847857Y-15755476D01*
X12238333Y-15545952D02*
X12066905Y-15803095D01*
X12495476Y-15555476D02*
X12514524Y-15555476D01*
X12533571Y-15565000D01*
X12543095Y-15574524D01*
X12552619Y-15593571D01*
X12562143Y-15631667D01*
X12562143Y-15679286D01*
X12552619Y-15717381D01*
X12543095Y-15736428D01*
X12533571Y-15745952D01*
X12514524Y-15755476D01*
X12495476Y-15755476D01*
X12476428Y-15745952D01*
X12466905Y-15736428D01*
X12457381Y-15717381D01*
X12447857Y-15679286D01*
X12447857Y-15631667D01*
X12457381Y-15593571D01*
X12466905Y-15574524D01*
X12476428Y-15565000D01*
X12495476Y-15555476D01*
X12647857Y-15736428D02*
X12657381Y-15745952D01*
X12647857Y-15755476D01*
X12638333Y-15745952D01*
X12647857Y-15736428D01*
X12647857Y-15755476D01*
X12781190Y-15555476D02*
X12800238Y-15555476D01*
X12819286Y-15565000D01*
X12828809Y-15574524D01*
X12838333Y-15593571D01*
X12847857Y-15631667D01*
X12847857Y-15679286D01*
X12838333Y-15717381D01*
X12828809Y-15736428D01*
X12819286Y-15745952D01*
X12800238Y-15755476D01*
X12781190Y-15755476D01*
X12762143Y-15745952D01*
X12752619Y-15736428D01*
X12743095Y-15717381D01*
X12733571Y-15679286D01*
X12733571Y-15631667D01*
X12743095Y-15593571D01*
X12752619Y-15574524D01*
X12762143Y-15565000D01*
X12781190Y-15555476D01*
X13019286Y-15622143D02*
X13019286Y-15755476D01*
X12971667Y-15545952D02*
X12924048Y-15688809D01*
X13047857Y-15688809D01*
X13162143Y-15555476D02*
X13181190Y-15555476D01*
X13200238Y-15565000D01*
X13209762Y-15574524D01*
X13219286Y-15593571D01*
X13228809Y-15631667D01*
X13228809Y-15679286D01*
X13219286Y-15717381D01*
X13209762Y-15736428D01*
X13200238Y-15745952D01*
X13181190Y-15755476D01*
X13162143Y-15755476D01*
X13143095Y-15745952D01*
X13133571Y-15736428D01*
X13124048Y-15717381D01*
X13114524Y-15679286D01*
X13114524Y-15631667D01*
X13124048Y-15593571D01*
X13133571Y-15574524D01*
X13143095Y-15565000D01*
X13162143Y-15555476D01*
X13305000Y-15574524D02*
X13314524Y-15565000D01*
X13333571Y-15555476D01*
X13381190Y-15555476D01*
X13400238Y-15565000D01*
X13409762Y-15574524D01*
X13419286Y-15593571D01*
X13419286Y-15612619D01*
X13409762Y-15641190D01*
X13295476Y-15755476D01*
X13419286Y-15755476D01*
X13495476Y-15555476D02*
X13495476Y-15593571D01*
X13571667Y-15555476D02*
X13571667Y-15593571D01*
X13866905Y-15831667D02*
X13857381Y-15822143D01*
X13838333Y-15793571D01*
X13828809Y-15774524D01*
X13819286Y-15745952D01*
X13809762Y-15698333D01*
X13809762Y-15660238D01*
X13819286Y-15612619D01*
X13828809Y-15584048D01*
X13838333Y-15565000D01*
X13857381Y-15536428D01*
X13866905Y-15526905D01*
X13924048Y-15555476D02*
X14057381Y-15555476D01*
X13971667Y-15755476D01*
X14219286Y-15555476D02*
X14181190Y-15555476D01*
X14162143Y-15565000D01*
X14152619Y-15574524D01*
X14133571Y-15603095D01*
X14124048Y-15641190D01*
X14124048Y-15717381D01*
X14133571Y-15736428D01*
X14143095Y-15745952D01*
X14162143Y-15755476D01*
X14200238Y-15755476D01*
X14219286Y-15745952D01*
X14228809Y-15736428D01*
X14238333Y-15717381D01*
X14238333Y-15669762D01*
X14228809Y-15650714D01*
X14219286Y-15641190D01*
X14200238Y-15631667D01*
X14162143Y-15631667D01*
X14143095Y-15641190D01*
X14133571Y-15650714D01*
X14124048Y-15669762D01*
X14476428Y-15755476D02*
X14476428Y-15555476D01*
X14562143Y-15755476D02*
X14562143Y-15650714D01*
X14552619Y-15631667D01*
X14533571Y-15622143D01*
X14505000Y-15622143D01*
X14485952Y-15631667D01*
X14476428Y-15641190D01*
X14685952Y-15755476D02*
X14666905Y-15745952D01*
X14657381Y-15736428D01*
X14647857Y-15717381D01*
X14647857Y-15660238D01*
X14657381Y-15641190D01*
X14666905Y-15631667D01*
X14685952Y-15622143D01*
X14714524Y-15622143D01*
X14733571Y-15631667D01*
X14743095Y-15641190D01*
X14752619Y-15660238D01*
X14752619Y-15717381D01*
X14743095Y-15736428D01*
X14733571Y-15745952D01*
X14714524Y-15755476D01*
X14685952Y-15755476D01*
X14866905Y-15755476D02*
X14847857Y-15745952D01*
X14838333Y-15726905D01*
X14838333Y-15555476D01*
X15019286Y-15745952D02*
X15000238Y-15755476D01*
X14962143Y-15755476D01*
X14943095Y-15745952D01*
X14933571Y-15726905D01*
X14933571Y-15650714D01*
X14943095Y-15631667D01*
X14962143Y-15622143D01*
X15000238Y-15622143D01*
X15019286Y-15631667D01*
X15028809Y-15650714D01*
X15028809Y-15669762D01*
X14933571Y-15688809D01*
X15105000Y-15745952D02*
X15124048Y-15755476D01*
X15162143Y-15755476D01*
X15181190Y-15745952D01*
X15190714Y-15726905D01*
X15190714Y-15717381D01*
X15181190Y-15698333D01*
X15162143Y-15688809D01*
X15133571Y-15688809D01*
X15114524Y-15679286D01*
X15105000Y-15660238D01*
X15105000Y-15650714D01*
X15114524Y-15631667D01*
X15133571Y-15622143D01*
X15162143Y-15622143D01*
X15181190Y-15631667D01*
X15257381Y-15831667D02*
X15266905Y-15822143D01*
X15285952Y-15793571D01*
X15295476Y-15774524D01*
X15305000Y-15745952D01*
X15314524Y-15698333D01*
X15314524Y-15660238D01*
X15305000Y-15612619D01*
X15295476Y-15584048D01*
X15285952Y-15565000D01*
X15266905Y-15536428D01*
X15257381Y-15526905D01*
D17*
X10188000Y-15875500D02*
X10295000Y-15982500D01*
X10295000Y-15875500D02*
X10188000Y-15982500D01*
X10241500Y-15875500D02*
X10241500Y-15982500D01*
X10188000Y-15929000D02*
X10295000Y-15929000D01*
D11*
X10657381Y-16019476D02*
X10543095Y-16019476D01*
X10600238Y-16019476D02*
X10600238Y-15819476D01*
X10581190Y-15848048D01*
X10562143Y-15867095D01*
X10543095Y-15876619D01*
X10743095Y-16000428D02*
X10752619Y-16009952D01*
X10743095Y-16019476D01*
X10733571Y-16009952D01*
X10743095Y-16000428D01*
X10743095Y-16019476D01*
X10876429Y-15819476D02*
X10895476Y-15819476D01*
X10914524Y-15829000D01*
X10924048Y-15838524D01*
X10933571Y-15857571D01*
X10943095Y-15895667D01*
X10943095Y-15943286D01*
X10933571Y-15981381D01*
X10924048Y-16000428D01*
X10914524Y-16009952D01*
X10895476Y-16019476D01*
X10876429Y-16019476D01*
X10857381Y-16009952D01*
X10847857Y-16000428D01*
X10838333Y-15981381D01*
X10828810Y-15943286D01*
X10828810Y-15895667D01*
X10838333Y-15857571D01*
X10847857Y-15838524D01*
X10857381Y-15829000D01*
X10876429Y-15819476D01*
X11009762Y-15819476D02*
X11143095Y-15819476D01*
X11057381Y-16019476D01*
X11257381Y-15819476D02*
X11276428Y-15819476D01*
X11295476Y-15829000D01*
X11305000Y-15838524D01*
X11314524Y-15857571D01*
X11324048Y-15895667D01*
X11324048Y-15943286D01*
X11314524Y-15981381D01*
X11305000Y-16000428D01*
X11295476Y-16009952D01*
X11276428Y-16019476D01*
X11257381Y-16019476D01*
X11238333Y-16009952D01*
X11228809Y-16000428D01*
X11219286Y-15981381D01*
X11209762Y-15943286D01*
X11209762Y-15895667D01*
X11219286Y-15857571D01*
X11228809Y-15838524D01*
X11238333Y-15829000D01*
X11257381Y-15819476D01*
X11409762Y-16019476D02*
X11409762Y-15886143D01*
X11409762Y-15905190D02*
X11419286Y-15895667D01*
X11438333Y-15886143D01*
X11466905Y-15886143D01*
X11485952Y-15895667D01*
X11495476Y-15914714D01*
X11495476Y-16019476D01*
X11495476Y-15914714D02*
X11505000Y-15895667D01*
X11524048Y-15886143D01*
X11552619Y-15886143D01*
X11571667Y-15895667D01*
X11581190Y-15914714D01*
X11581190Y-16019476D01*
X11676428Y-16019476D02*
X11676428Y-15886143D01*
X11676428Y-15905190D02*
X11685952Y-15895667D01*
X11705000Y-15886143D01*
X11733571Y-15886143D01*
X11752619Y-15895667D01*
X11762143Y-15914714D01*
X11762143Y-16019476D01*
X11762143Y-15914714D02*
X11771667Y-15895667D01*
X11790714Y-15886143D01*
X11819286Y-15886143D01*
X11838333Y-15895667D01*
X11847857Y-15914714D01*
X11847857Y-16019476D01*
X12238333Y-15809952D02*
X12066905Y-16067095D01*
X12495476Y-15819476D02*
X12514524Y-15819476D01*
X12533571Y-15829000D01*
X12543095Y-15838524D01*
X12552619Y-15857571D01*
X12562143Y-15895667D01*
X12562143Y-15943286D01*
X12552619Y-15981381D01*
X12543095Y-16000428D01*
X12533571Y-16009952D01*
X12514524Y-16019476D01*
X12495476Y-16019476D01*
X12476428Y-16009952D01*
X12466905Y-16000428D01*
X12457381Y-15981381D01*
X12447857Y-15943286D01*
X12447857Y-15895667D01*
X12457381Y-15857571D01*
X12466905Y-15838524D01*
X12476428Y-15829000D01*
X12495476Y-15819476D01*
X12647857Y-16000428D02*
X12657381Y-16009952D01*
X12647857Y-16019476D01*
X12638333Y-16009952D01*
X12647857Y-16000428D01*
X12647857Y-16019476D01*
X12781190Y-15819476D02*
X12800238Y-15819476D01*
X12819286Y-15829000D01*
X12828809Y-15838524D01*
X12838333Y-15857571D01*
X12847857Y-15895667D01*
X12847857Y-15943286D01*
X12838333Y-15981381D01*
X12828809Y-16000428D01*
X12819286Y-16009952D01*
X12800238Y-16019476D01*
X12781190Y-16019476D01*
X12762143Y-16009952D01*
X12752619Y-16000428D01*
X12743095Y-15981381D01*
X12733571Y-15943286D01*
X12733571Y-15895667D01*
X12743095Y-15857571D01*
X12752619Y-15838524D01*
X12762143Y-15829000D01*
X12781190Y-15819476D01*
X13019286Y-15886143D02*
X13019286Y-16019476D01*
X12971667Y-15809952D02*
X12924048Y-15952809D01*
X13047857Y-15952809D01*
X13114524Y-15838524D02*
X13124048Y-15829000D01*
X13143095Y-15819476D01*
X13190714Y-15819476D01*
X13209762Y-15829000D01*
X13219286Y-15838524D01*
X13228809Y-15857571D01*
X13228809Y-15876619D01*
X13219286Y-15905190D01*
X13105000Y-16019476D01*
X13228809Y-16019476D01*
X13419286Y-16019476D02*
X13305000Y-16019476D01*
X13362143Y-16019476D02*
X13362143Y-15819476D01*
X13343095Y-15848048D01*
X13324048Y-15867095D01*
X13305000Y-15876619D01*
X13495476Y-15819476D02*
X13495476Y-15857571D01*
X13571667Y-15819476D02*
X13571667Y-15857571D01*
X13866905Y-16095667D02*
X13857381Y-16086143D01*
X13838333Y-16057571D01*
X13828809Y-16038524D01*
X13819286Y-16009952D01*
X13809762Y-15962333D01*
X13809762Y-15924238D01*
X13819286Y-15876619D01*
X13828809Y-15848048D01*
X13838333Y-15829000D01*
X13857381Y-15800428D01*
X13866905Y-15790905D01*
X13924048Y-15819476D02*
X14047857Y-15819476D01*
X13981190Y-15895667D01*
X14009762Y-15895667D01*
X14028809Y-15905190D01*
X14038333Y-15914714D01*
X14047857Y-15933762D01*
X14047857Y-15981381D01*
X14038333Y-16000428D01*
X14028809Y-16009952D01*
X14009762Y-16019476D01*
X13952619Y-16019476D01*
X13933571Y-16009952D01*
X13924048Y-16000428D01*
X14124048Y-15838524D02*
X14133571Y-15829000D01*
X14152619Y-15819476D01*
X14200238Y-15819476D01*
X14219286Y-15829000D01*
X14228809Y-15838524D01*
X14238333Y-15857571D01*
X14238333Y-15876619D01*
X14228809Y-15905190D01*
X14114524Y-16019476D01*
X14238333Y-16019476D01*
X14476428Y-16019476D02*
X14476428Y-15819476D01*
X14562143Y-16019476D02*
X14562143Y-15914714D01*
X14552619Y-15895667D01*
X14533571Y-15886143D01*
X14505000Y-15886143D01*
X14485952Y-15895667D01*
X14476428Y-15905190D01*
X14685952Y-16019476D02*
X14666905Y-16009952D01*
X14657381Y-16000428D01*
X14647857Y-15981381D01*
X14647857Y-15924238D01*
X14657381Y-15905190D01*
X14666905Y-15895667D01*
X14685952Y-15886143D01*
X14714524Y-15886143D01*
X14733571Y-15895667D01*
X14743095Y-15905190D01*
X14752619Y-15924238D01*
X14752619Y-15981381D01*
X14743095Y-16000428D01*
X14733571Y-16009952D01*
X14714524Y-16019476D01*
X14685952Y-16019476D01*
X14866905Y-16019476D02*
X14847857Y-16009952D01*
X14838333Y-15990905D01*
X14838333Y-15819476D01*
X15019286Y-16009952D02*
X15000238Y-16019476D01*
X14962143Y-16019476D01*
X14943095Y-16009952D01*
X14933571Y-15990905D01*
X14933571Y-15914714D01*
X14943095Y-15895667D01*
X14962143Y-15886143D01*
X15000238Y-15886143D01*
X15019286Y-15895667D01*
X15028809Y-15914714D01*
X15028809Y-15933762D01*
X14933571Y-15952809D01*
X15105000Y-16009952D02*
X15124048Y-16019476D01*
X15162143Y-16019476D01*
X15181190Y-16009952D01*
X15190714Y-15990905D01*
X15190714Y-15981381D01*
X15181190Y-15962333D01*
X15162143Y-15952809D01*
X15133571Y-15952809D01*
X15114524Y-15943286D01*
X15105000Y-15924238D01*
X15105000Y-15914714D01*
X15114524Y-15895667D01*
X15133571Y-15886143D01*
X15162143Y-15886143D01*
X15181190Y-15895667D01*
X15257381Y-16095667D02*
X15266905Y-16086143D01*
X15285952Y-16057571D01*
X15295476Y-16038524D01*
X15305000Y-16009952D01*
X15314524Y-15962333D01*
X15314524Y-15924238D01*
X15305000Y-15876619D01*
X15295476Y-15848048D01*
X15285952Y-15829000D01*
X15266905Y-15800428D01*
X15257381Y-15790905D01*
X10095000Y-16093000D02*
X10295000Y-16293000D01*
X10295000Y-16093000D02*
X10095000Y-16293000D01*
X10265711Y-16263711D02*
X10265711Y-16122289D01*
X10124289Y-16122289D01*
X10124289Y-16263711D01*
X10265711Y-16263711D01*
X10533571Y-16083476D02*
X10657381Y-16083476D01*
X10590714Y-16159667D01*
X10619286Y-16159667D01*
X10638333Y-16169190D01*
X10647857Y-16178714D01*
X10657381Y-16197762D01*
X10657381Y-16245381D01*
X10647857Y-16264428D01*
X10638333Y-16273952D01*
X10619286Y-16283476D01*
X10562143Y-16283476D01*
X10543095Y-16273952D01*
X10533571Y-16264428D01*
X10743095Y-16264428D02*
X10752619Y-16273952D01*
X10743095Y-16283476D01*
X10733571Y-16273952D01*
X10743095Y-16264428D01*
X10743095Y-16283476D01*
X10828810Y-16102524D02*
X10838333Y-16093000D01*
X10857381Y-16083476D01*
X10905000Y-16083476D01*
X10924048Y-16093000D01*
X10933571Y-16102524D01*
X10943095Y-16121571D01*
X10943095Y-16140619D01*
X10933571Y-16169190D01*
X10819286Y-16283476D01*
X10943095Y-16283476D01*
X11066905Y-16083476D02*
X11085952Y-16083476D01*
X11105000Y-16093000D01*
X11114524Y-16102524D01*
X11124048Y-16121571D01*
X11133571Y-16159667D01*
X11133571Y-16207286D01*
X11124048Y-16245381D01*
X11114524Y-16264428D01*
X11105000Y-16273952D01*
X11085952Y-16283476D01*
X11066905Y-16283476D01*
X11047857Y-16273952D01*
X11038333Y-16264428D01*
X11028810Y-16245381D01*
X11019286Y-16207286D01*
X11019286Y-16159667D01*
X11028810Y-16121571D01*
X11038333Y-16102524D01*
X11047857Y-16093000D01*
X11066905Y-16083476D01*
X11257381Y-16083476D02*
X11276428Y-16083476D01*
X11295476Y-16093000D01*
X11305000Y-16102524D01*
X11314524Y-16121571D01*
X11324048Y-16159667D01*
X11324048Y-16207286D01*
X11314524Y-16245381D01*
X11305000Y-16264428D01*
X11295476Y-16273952D01*
X11276428Y-16283476D01*
X11257381Y-16283476D01*
X11238333Y-16273952D01*
X11228809Y-16264428D01*
X11219286Y-16245381D01*
X11209762Y-16207286D01*
X11209762Y-16159667D01*
X11219286Y-16121571D01*
X11228809Y-16102524D01*
X11238333Y-16093000D01*
X11257381Y-16083476D01*
X11409762Y-16283476D02*
X11409762Y-16150143D01*
X11409762Y-16169190D02*
X11419286Y-16159667D01*
X11438333Y-16150143D01*
X11466905Y-16150143D01*
X11485952Y-16159667D01*
X11495476Y-16178714D01*
X11495476Y-16283476D01*
X11495476Y-16178714D02*
X11505000Y-16159667D01*
X11524048Y-16150143D01*
X11552619Y-16150143D01*
X11571667Y-16159667D01*
X11581190Y-16178714D01*
X11581190Y-16283476D01*
X11676428Y-16283476D02*
X11676428Y-16150143D01*
X11676428Y-16169190D02*
X11685952Y-16159667D01*
X11705000Y-16150143D01*
X11733571Y-16150143D01*
X11752619Y-16159667D01*
X11762143Y-16178714D01*
X11762143Y-16283476D01*
X11762143Y-16178714D02*
X11771667Y-16159667D01*
X11790714Y-16150143D01*
X11819286Y-16150143D01*
X11838333Y-16159667D01*
X11847857Y-16178714D01*
X11847857Y-16283476D01*
X12238333Y-16073952D02*
X12066905Y-16331095D01*
X12495476Y-16083476D02*
X12514524Y-16083476D01*
X12533571Y-16093000D01*
X12543095Y-16102524D01*
X12552619Y-16121571D01*
X12562143Y-16159667D01*
X12562143Y-16207286D01*
X12552619Y-16245381D01*
X12543095Y-16264428D01*
X12533571Y-16273952D01*
X12514524Y-16283476D01*
X12495476Y-16283476D01*
X12476428Y-16273952D01*
X12466905Y-16264428D01*
X12457381Y-16245381D01*
X12447857Y-16207286D01*
X12447857Y-16159667D01*
X12457381Y-16121571D01*
X12466905Y-16102524D01*
X12476428Y-16093000D01*
X12495476Y-16083476D01*
X12647857Y-16264428D02*
X12657381Y-16273952D01*
X12647857Y-16283476D01*
X12638333Y-16273952D01*
X12647857Y-16264428D01*
X12647857Y-16283476D01*
X12847857Y-16283476D02*
X12733571Y-16283476D01*
X12790714Y-16283476D02*
X12790714Y-16083476D01*
X12771667Y-16112048D01*
X12752619Y-16131095D01*
X12733571Y-16140619D01*
X12924048Y-16102524D02*
X12933571Y-16093000D01*
X12952619Y-16083476D01*
X13000238Y-16083476D01*
X13019286Y-16093000D01*
X13028809Y-16102524D01*
X13038333Y-16121571D01*
X13038333Y-16140619D01*
X13028809Y-16169190D01*
X12914524Y-16283476D01*
X13038333Y-16283476D01*
X13209762Y-16083476D02*
X13171667Y-16083476D01*
X13152619Y-16093000D01*
X13143095Y-16102524D01*
X13124048Y-16131095D01*
X13114524Y-16169190D01*
X13114524Y-16245381D01*
X13124048Y-16264428D01*
X13133571Y-16273952D01*
X13152619Y-16283476D01*
X13190714Y-16283476D01*
X13209762Y-16273952D01*
X13219286Y-16264428D01*
X13228809Y-16245381D01*
X13228809Y-16197762D01*
X13219286Y-16178714D01*
X13209762Y-16169190D01*
X13190714Y-16159667D01*
X13152619Y-16159667D01*
X13133571Y-16169190D01*
X13124048Y-16178714D01*
X13114524Y-16197762D01*
X13352619Y-16083476D02*
X13371667Y-16083476D01*
X13390714Y-16093000D01*
X13400238Y-16102524D01*
X13409762Y-16121571D01*
X13419286Y-16159667D01*
X13419286Y-16207286D01*
X13409762Y-16245381D01*
X13400238Y-16264428D01*
X13390714Y-16273952D01*
X13371667Y-16283476D01*
X13352619Y-16283476D01*
X13333571Y-16273952D01*
X13324048Y-16264428D01*
X13314524Y-16245381D01*
X13305000Y-16207286D01*
X13305000Y-16159667D01*
X13314524Y-16121571D01*
X13324048Y-16102524D01*
X13333571Y-16093000D01*
X13352619Y-16083476D01*
X13495476Y-16083476D02*
X13495476Y-16121571D01*
X13571667Y-16083476D02*
X13571667Y-16121571D01*
X13866905Y-16359667D02*
X13857381Y-16350143D01*
X13838333Y-16321571D01*
X13828809Y-16302524D01*
X13819286Y-16273952D01*
X13809762Y-16226333D01*
X13809762Y-16188238D01*
X13819286Y-16140619D01*
X13828809Y-16112048D01*
X13838333Y-16093000D01*
X13857381Y-16064428D01*
X13866905Y-16054905D01*
X14028809Y-16150143D02*
X14028809Y-16283476D01*
X13981190Y-16073952D02*
X13933571Y-16216809D01*
X14057381Y-16216809D01*
X14285952Y-16283476D02*
X14285952Y-16083476D01*
X14371667Y-16283476D02*
X14371667Y-16178714D01*
X14362143Y-16159667D01*
X14343095Y-16150143D01*
X14314524Y-16150143D01*
X14295476Y-16159667D01*
X14285952Y-16169190D01*
X14495476Y-16283476D02*
X14476428Y-16273952D01*
X14466905Y-16264428D01*
X14457381Y-16245381D01*
X14457381Y-16188238D01*
X14466905Y-16169190D01*
X14476428Y-16159667D01*
X14495476Y-16150143D01*
X14524048Y-16150143D01*
X14543095Y-16159667D01*
X14552619Y-16169190D01*
X14562143Y-16188238D01*
X14562143Y-16245381D01*
X14552619Y-16264428D01*
X14543095Y-16273952D01*
X14524048Y-16283476D01*
X14495476Y-16283476D01*
X14676428Y-16283476D02*
X14657381Y-16273952D01*
X14647857Y-16254905D01*
X14647857Y-16083476D01*
X14828809Y-16273952D02*
X14809762Y-16283476D01*
X14771667Y-16283476D01*
X14752619Y-16273952D01*
X14743095Y-16254905D01*
X14743095Y-16178714D01*
X14752619Y-16159667D01*
X14771667Y-16150143D01*
X14809762Y-16150143D01*
X14828809Y-16159667D01*
X14838333Y-16178714D01*
X14838333Y-16197762D01*
X14743095Y-16216809D01*
X14914524Y-16273952D02*
X14933571Y-16283476D01*
X14971667Y-16283476D01*
X14990714Y-16273952D01*
X15000238Y-16254905D01*
X15000238Y-16245381D01*
X14990714Y-16226333D01*
X14971667Y-16216809D01*
X14943095Y-16216809D01*
X14924048Y-16207286D01*
X14914524Y-16188238D01*
X14914524Y-16178714D01*
X14924048Y-16159667D01*
X14943095Y-16150143D01*
X14971667Y-16150143D01*
X14990714Y-16159667D01*
X15066905Y-16359667D02*
X15076428Y-16350143D01*
X15095476Y-16321571D01*
X15105000Y-16302524D01*
X15114524Y-16273952D01*
X15124048Y-16226333D01*
X15124048Y-16188238D01*
X15114524Y-16140619D01*
X15105000Y-16112048D01*
X15095476Y-16093000D01*
X15076428Y-16064428D01*
X15066905Y-16054905D01*
M02*
