%TF.GenerationSoftware,KiCad,Pcbnew,(6.0.10)*%
%TF.CreationDate,2023-04-21T16:10:55+03:00*%
%TF.ProjectId,KiCAD design,4b694341-4420-4646-9573-69676e2e6b69,rev?*%
%TF.SameCoordinates,Original*%
%TF.FileFunction,Legend,Top*%
%TF.FilePolarity,Positive*%
%FSLAX46Y46*%
G04 Gerber Fmt 4.6, Leading zero omitted, Abs format (unit mm)*
G04 Created by KiCad (PCBNEW (6.0.10)) date 2023-04-21 16:10:55*
%MOMM*%
%LPD*%
G01*
G04 APERTURE LIST*
%ADD10C,0.150000*%
%ADD11C,0.120000*%
%ADD12C,0.200000*%
%ADD13C,0.127000*%
G04 APERTURE END LIST*
D10*
%TO.C,J204*%
X179184285Y-54622380D02*
X179184285Y-55336666D01*
X179136666Y-55479523D01*
X179041428Y-55574761D01*
X178898571Y-55622380D01*
X178803333Y-55622380D01*
X179612857Y-54717619D02*
X179660476Y-54670000D01*
X179755714Y-54622380D01*
X179993809Y-54622380D01*
X180089047Y-54670000D01*
X180136666Y-54717619D01*
X180184285Y-54812857D01*
X180184285Y-54908095D01*
X180136666Y-55050952D01*
X179565238Y-55622380D01*
X180184285Y-55622380D01*
X180803333Y-54622380D02*
X180898571Y-54622380D01*
X180993809Y-54670000D01*
X181041428Y-54717619D01*
X181089047Y-54812857D01*
X181136666Y-55003333D01*
X181136666Y-55241428D01*
X181089047Y-55431904D01*
X181041428Y-55527142D01*
X180993809Y-55574761D01*
X180898571Y-55622380D01*
X180803333Y-55622380D01*
X180708095Y-55574761D01*
X180660476Y-55527142D01*
X180612857Y-55431904D01*
X180565238Y-55241428D01*
X180565238Y-55003333D01*
X180612857Y-54812857D01*
X180660476Y-54717619D01*
X180708095Y-54670000D01*
X180803333Y-54622380D01*
X181993809Y-54955714D02*
X181993809Y-55622380D01*
X181755714Y-54574761D02*
X181517619Y-55289047D01*
X182136666Y-55289047D01*
%TO.C,C402*%
X135537142Y-111619047D02*
X135584761Y-111666666D01*
X135632380Y-111809523D01*
X135632380Y-111904761D01*
X135584761Y-112047619D01*
X135489523Y-112142857D01*
X135394285Y-112190476D01*
X135203809Y-112238095D01*
X135060952Y-112238095D01*
X134870476Y-112190476D01*
X134775238Y-112142857D01*
X134680000Y-112047619D01*
X134632380Y-111904761D01*
X134632380Y-111809523D01*
X134680000Y-111666666D01*
X134727619Y-111619047D01*
X134965714Y-110761904D02*
X135632380Y-110761904D01*
X134584761Y-111000000D02*
X135299047Y-111238095D01*
X135299047Y-110619047D01*
X134632380Y-110047619D02*
X134632380Y-109952380D01*
X134680000Y-109857142D01*
X134727619Y-109809523D01*
X134822857Y-109761904D01*
X135013333Y-109714285D01*
X135251428Y-109714285D01*
X135441904Y-109761904D01*
X135537142Y-109809523D01*
X135584761Y-109857142D01*
X135632380Y-109952380D01*
X135632380Y-110047619D01*
X135584761Y-110142857D01*
X135537142Y-110190476D01*
X135441904Y-110238095D01*
X135251428Y-110285714D01*
X135013333Y-110285714D01*
X134822857Y-110238095D01*
X134727619Y-110190476D01*
X134680000Y-110142857D01*
X134632380Y-110047619D01*
X134727619Y-109333333D02*
X134680000Y-109285714D01*
X134632380Y-109190476D01*
X134632380Y-108952380D01*
X134680000Y-108857142D01*
X134727619Y-108809523D01*
X134822857Y-108761904D01*
X134918095Y-108761904D01*
X135060952Y-108809523D01*
X135632380Y-109380952D01*
X135632380Y-108761904D01*
%TO.C,J401*%
X191719285Y-121132380D02*
X191719285Y-121846666D01*
X191671666Y-121989523D01*
X191576428Y-122084761D01*
X191433571Y-122132380D01*
X191338333Y-122132380D01*
X192624047Y-121465714D02*
X192624047Y-122132380D01*
X192385952Y-121084761D02*
X192147857Y-121799047D01*
X192766904Y-121799047D01*
X193338333Y-121132380D02*
X193433571Y-121132380D01*
X193528809Y-121180000D01*
X193576428Y-121227619D01*
X193624047Y-121322857D01*
X193671666Y-121513333D01*
X193671666Y-121751428D01*
X193624047Y-121941904D01*
X193576428Y-122037142D01*
X193528809Y-122084761D01*
X193433571Y-122132380D01*
X193338333Y-122132380D01*
X193243095Y-122084761D01*
X193195476Y-122037142D01*
X193147857Y-121941904D01*
X193100238Y-121751428D01*
X193100238Y-121513333D01*
X193147857Y-121322857D01*
X193195476Y-121227619D01*
X193243095Y-121180000D01*
X193338333Y-121132380D01*
X194624047Y-122132380D02*
X194052619Y-122132380D01*
X194338333Y-122132380D02*
X194338333Y-121132380D01*
X194243095Y-121275238D01*
X194147857Y-121370476D01*
X194052619Y-121418095D01*
%TO.C,R402*%
X122602380Y-135119047D02*
X122126190Y-135452380D01*
X122602380Y-135690476D02*
X121602380Y-135690476D01*
X121602380Y-135309523D01*
X121650000Y-135214285D01*
X121697619Y-135166666D01*
X121792857Y-135119047D01*
X121935714Y-135119047D01*
X122030952Y-135166666D01*
X122078571Y-135214285D01*
X122126190Y-135309523D01*
X122126190Y-135690476D01*
X121935714Y-134261904D02*
X122602380Y-134261904D01*
X121554761Y-134500000D02*
X122269047Y-134738095D01*
X122269047Y-134119047D01*
X121602380Y-133547619D02*
X121602380Y-133452380D01*
X121650000Y-133357142D01*
X121697619Y-133309523D01*
X121792857Y-133261904D01*
X121983333Y-133214285D01*
X122221428Y-133214285D01*
X122411904Y-133261904D01*
X122507142Y-133309523D01*
X122554761Y-133357142D01*
X122602380Y-133452380D01*
X122602380Y-133547619D01*
X122554761Y-133642857D01*
X122507142Y-133690476D01*
X122411904Y-133738095D01*
X122221428Y-133785714D01*
X121983333Y-133785714D01*
X121792857Y-133738095D01*
X121697619Y-133690476D01*
X121650000Y-133642857D01*
X121602380Y-133547619D01*
X121697619Y-132833333D02*
X121650000Y-132785714D01*
X121602380Y-132690476D01*
X121602380Y-132452380D01*
X121650000Y-132357142D01*
X121697619Y-132309523D01*
X121792857Y-132261904D01*
X121888095Y-132261904D01*
X122030952Y-132309523D01*
X122602380Y-132880952D01*
X122602380Y-132261904D01*
%TO.C,U401*%
X136285714Y-118852380D02*
X136285714Y-119661904D01*
X136333333Y-119757142D01*
X136380952Y-119804761D01*
X136476190Y-119852380D01*
X136666666Y-119852380D01*
X136761904Y-119804761D01*
X136809523Y-119757142D01*
X136857142Y-119661904D01*
X136857142Y-118852380D01*
X137761904Y-119185714D02*
X137761904Y-119852380D01*
X137523809Y-118804761D02*
X137285714Y-119519047D01*
X137904761Y-119519047D01*
X138476190Y-118852380D02*
X138571428Y-118852380D01*
X138666666Y-118900000D01*
X138714285Y-118947619D01*
X138761904Y-119042857D01*
X138809523Y-119233333D01*
X138809523Y-119471428D01*
X138761904Y-119661904D01*
X138714285Y-119757142D01*
X138666666Y-119804761D01*
X138571428Y-119852380D01*
X138476190Y-119852380D01*
X138380952Y-119804761D01*
X138333333Y-119757142D01*
X138285714Y-119661904D01*
X138238095Y-119471428D01*
X138238095Y-119233333D01*
X138285714Y-119042857D01*
X138333333Y-118947619D01*
X138380952Y-118900000D01*
X138476190Y-118852380D01*
X139761904Y-119852380D02*
X139190476Y-119852380D01*
X139476190Y-119852380D02*
X139476190Y-118852380D01*
X139380952Y-118995238D01*
X139285714Y-119090476D01*
X139190476Y-119138095D01*
%TO.C,C401*%
X123380952Y-119357142D02*
X123333333Y-119404761D01*
X123190476Y-119452380D01*
X123095238Y-119452380D01*
X122952380Y-119404761D01*
X122857142Y-119309523D01*
X122809523Y-119214285D01*
X122761904Y-119023809D01*
X122761904Y-118880952D01*
X122809523Y-118690476D01*
X122857142Y-118595238D01*
X122952380Y-118500000D01*
X123095238Y-118452380D01*
X123190476Y-118452380D01*
X123333333Y-118500000D01*
X123380952Y-118547619D01*
X124238095Y-118785714D02*
X124238095Y-119452380D01*
X124000000Y-118404761D02*
X123761904Y-119119047D01*
X124380952Y-119119047D01*
X124952380Y-118452380D02*
X125047619Y-118452380D01*
X125142857Y-118500000D01*
X125190476Y-118547619D01*
X125238095Y-118642857D01*
X125285714Y-118833333D01*
X125285714Y-119071428D01*
X125238095Y-119261904D01*
X125190476Y-119357142D01*
X125142857Y-119404761D01*
X125047619Y-119452380D01*
X124952380Y-119452380D01*
X124857142Y-119404761D01*
X124809523Y-119357142D01*
X124761904Y-119261904D01*
X124714285Y-119071428D01*
X124714285Y-118833333D01*
X124761904Y-118642857D01*
X124809523Y-118547619D01*
X124857142Y-118500000D01*
X124952380Y-118452380D01*
X126238095Y-119452380D02*
X125666666Y-119452380D01*
X125952380Y-119452380D02*
X125952380Y-118452380D01*
X125857142Y-118595238D01*
X125761904Y-118690476D01*
X125666666Y-118738095D01*
%TO.C,J203*%
X104852380Y-73285714D02*
X105566666Y-73285714D01*
X105709523Y-73333333D01*
X105804761Y-73428571D01*
X105852380Y-73571428D01*
X105852380Y-73666666D01*
X104947619Y-72857142D02*
X104900000Y-72809523D01*
X104852380Y-72714285D01*
X104852380Y-72476190D01*
X104900000Y-72380952D01*
X104947619Y-72333333D01*
X105042857Y-72285714D01*
X105138095Y-72285714D01*
X105280952Y-72333333D01*
X105852380Y-72904761D01*
X105852380Y-72285714D01*
X104852380Y-71666666D02*
X104852380Y-71571428D01*
X104900000Y-71476190D01*
X104947619Y-71428571D01*
X105042857Y-71380952D01*
X105233333Y-71333333D01*
X105471428Y-71333333D01*
X105661904Y-71380952D01*
X105757142Y-71428571D01*
X105804761Y-71476190D01*
X105852380Y-71571428D01*
X105852380Y-71666666D01*
X105804761Y-71761904D01*
X105757142Y-71809523D01*
X105661904Y-71857142D01*
X105471428Y-71904761D01*
X105233333Y-71904761D01*
X105042857Y-71857142D01*
X104947619Y-71809523D01*
X104900000Y-71761904D01*
X104852380Y-71666666D01*
X104852380Y-71000000D02*
X104852380Y-70380952D01*
X105233333Y-70714285D01*
X105233333Y-70571428D01*
X105280952Y-70476190D01*
X105328571Y-70428571D01*
X105423809Y-70380952D01*
X105661904Y-70380952D01*
X105757142Y-70428571D01*
X105804761Y-70476190D01*
X105852380Y-70571428D01*
X105852380Y-70857142D01*
X105804761Y-70952380D01*
X105757142Y-71000000D01*
%TO.C,J206*%
X192714285Y-83052380D02*
X192714285Y-83766666D01*
X192666666Y-83909523D01*
X192571428Y-84004761D01*
X192428571Y-84052380D01*
X192333333Y-84052380D01*
X193142857Y-83147619D02*
X193190476Y-83100000D01*
X193285714Y-83052380D01*
X193523809Y-83052380D01*
X193619047Y-83100000D01*
X193666666Y-83147619D01*
X193714285Y-83242857D01*
X193714285Y-83338095D01*
X193666666Y-83480952D01*
X193095238Y-84052380D01*
X193714285Y-84052380D01*
X194333333Y-83052380D02*
X194428571Y-83052380D01*
X194523809Y-83100000D01*
X194571428Y-83147619D01*
X194619047Y-83242857D01*
X194666666Y-83433333D01*
X194666666Y-83671428D01*
X194619047Y-83861904D01*
X194571428Y-83957142D01*
X194523809Y-84004761D01*
X194428571Y-84052380D01*
X194333333Y-84052380D01*
X194238095Y-84004761D01*
X194190476Y-83957142D01*
X194142857Y-83861904D01*
X194095238Y-83671428D01*
X194095238Y-83433333D01*
X194142857Y-83242857D01*
X194190476Y-83147619D01*
X194238095Y-83100000D01*
X194333333Y-83052380D01*
X195523809Y-83052380D02*
X195333333Y-83052380D01*
X195238095Y-83100000D01*
X195190476Y-83147619D01*
X195095238Y-83290476D01*
X195047619Y-83480952D01*
X195047619Y-83861904D01*
X195095238Y-83957142D01*
X195142857Y-84004761D01*
X195238095Y-84052380D01*
X195428571Y-84052380D01*
X195523809Y-84004761D01*
X195571428Y-83957142D01*
X195619047Y-83861904D01*
X195619047Y-83623809D01*
X195571428Y-83528571D01*
X195523809Y-83480952D01*
X195428571Y-83433333D01*
X195238095Y-83433333D01*
X195142857Y-83480952D01*
X195095238Y-83528571D01*
X195047619Y-83623809D01*
%TO.C,C302*%
X144880952Y-96037142D02*
X144833333Y-96084761D01*
X144690476Y-96132380D01*
X144595238Y-96132380D01*
X144452380Y-96084761D01*
X144357142Y-95989523D01*
X144309523Y-95894285D01*
X144261904Y-95703809D01*
X144261904Y-95560952D01*
X144309523Y-95370476D01*
X144357142Y-95275238D01*
X144452380Y-95180000D01*
X144595238Y-95132380D01*
X144690476Y-95132380D01*
X144833333Y-95180000D01*
X144880952Y-95227619D01*
X145214285Y-95132380D02*
X145833333Y-95132380D01*
X145500000Y-95513333D01*
X145642857Y-95513333D01*
X145738095Y-95560952D01*
X145785714Y-95608571D01*
X145833333Y-95703809D01*
X145833333Y-95941904D01*
X145785714Y-96037142D01*
X145738095Y-96084761D01*
X145642857Y-96132380D01*
X145357142Y-96132380D01*
X145261904Y-96084761D01*
X145214285Y-96037142D01*
X146452380Y-95132380D02*
X146547619Y-95132380D01*
X146642857Y-95180000D01*
X146690476Y-95227619D01*
X146738095Y-95322857D01*
X146785714Y-95513333D01*
X146785714Y-95751428D01*
X146738095Y-95941904D01*
X146690476Y-96037142D01*
X146642857Y-96084761D01*
X146547619Y-96132380D01*
X146452380Y-96132380D01*
X146357142Y-96084761D01*
X146309523Y-96037142D01*
X146261904Y-95941904D01*
X146214285Y-95751428D01*
X146214285Y-95513333D01*
X146261904Y-95322857D01*
X146309523Y-95227619D01*
X146357142Y-95180000D01*
X146452380Y-95132380D01*
X147166666Y-95227619D02*
X147214285Y-95180000D01*
X147309523Y-95132380D01*
X147547619Y-95132380D01*
X147642857Y-95180000D01*
X147690476Y-95227619D01*
X147738095Y-95322857D01*
X147738095Y-95418095D01*
X147690476Y-95560952D01*
X147119047Y-96132380D01*
X147738095Y-96132380D01*
%TO.C,C301*%
X147380952Y-106177142D02*
X147333333Y-106224761D01*
X147190476Y-106272380D01*
X147095238Y-106272380D01*
X146952380Y-106224761D01*
X146857142Y-106129523D01*
X146809523Y-106034285D01*
X146761904Y-105843809D01*
X146761904Y-105700952D01*
X146809523Y-105510476D01*
X146857142Y-105415238D01*
X146952380Y-105320000D01*
X147095238Y-105272380D01*
X147190476Y-105272380D01*
X147333333Y-105320000D01*
X147380952Y-105367619D01*
X147714285Y-105272380D02*
X148333333Y-105272380D01*
X148000000Y-105653333D01*
X148142857Y-105653333D01*
X148238095Y-105700952D01*
X148285714Y-105748571D01*
X148333333Y-105843809D01*
X148333333Y-106081904D01*
X148285714Y-106177142D01*
X148238095Y-106224761D01*
X148142857Y-106272380D01*
X147857142Y-106272380D01*
X147761904Y-106224761D01*
X147714285Y-106177142D01*
X148952380Y-105272380D02*
X149047619Y-105272380D01*
X149142857Y-105320000D01*
X149190476Y-105367619D01*
X149238095Y-105462857D01*
X149285714Y-105653333D01*
X149285714Y-105891428D01*
X149238095Y-106081904D01*
X149190476Y-106177142D01*
X149142857Y-106224761D01*
X149047619Y-106272380D01*
X148952380Y-106272380D01*
X148857142Y-106224761D01*
X148809523Y-106177142D01*
X148761904Y-106081904D01*
X148714285Y-105891428D01*
X148714285Y-105653333D01*
X148761904Y-105462857D01*
X148809523Y-105367619D01*
X148857142Y-105320000D01*
X148952380Y-105272380D01*
X150238095Y-106272380D02*
X149666666Y-106272380D01*
X149952380Y-106272380D02*
X149952380Y-105272380D01*
X149857142Y-105415238D01*
X149761904Y-105510476D01*
X149666666Y-105558095D01*
%TO.C,R403*%
X127602380Y-135119047D02*
X127126190Y-135452380D01*
X127602380Y-135690476D02*
X126602380Y-135690476D01*
X126602380Y-135309523D01*
X126650000Y-135214285D01*
X126697619Y-135166666D01*
X126792857Y-135119047D01*
X126935714Y-135119047D01*
X127030952Y-135166666D01*
X127078571Y-135214285D01*
X127126190Y-135309523D01*
X127126190Y-135690476D01*
X126935714Y-134261904D02*
X127602380Y-134261904D01*
X126554761Y-134500000D02*
X127269047Y-134738095D01*
X127269047Y-134119047D01*
X126602380Y-133547619D02*
X126602380Y-133452380D01*
X126650000Y-133357142D01*
X126697619Y-133309523D01*
X126792857Y-133261904D01*
X126983333Y-133214285D01*
X127221428Y-133214285D01*
X127411904Y-133261904D01*
X127507142Y-133309523D01*
X127554761Y-133357142D01*
X127602380Y-133452380D01*
X127602380Y-133547619D01*
X127554761Y-133642857D01*
X127507142Y-133690476D01*
X127411904Y-133738095D01*
X127221428Y-133785714D01*
X126983333Y-133785714D01*
X126792857Y-133738095D01*
X126697619Y-133690476D01*
X126650000Y-133642857D01*
X126602380Y-133547619D01*
X126602380Y-132880952D02*
X126602380Y-132261904D01*
X126983333Y-132595238D01*
X126983333Y-132452380D01*
X127030952Y-132357142D01*
X127078571Y-132309523D01*
X127173809Y-132261904D01*
X127411904Y-132261904D01*
X127507142Y-132309523D01*
X127554761Y-132357142D01*
X127602380Y-132452380D01*
X127602380Y-132738095D01*
X127554761Y-132833333D01*
X127507142Y-132880952D01*
%TO.C,U301*%
X148785714Y-95952380D02*
X148785714Y-96761904D01*
X148833333Y-96857142D01*
X148880952Y-96904761D01*
X148976190Y-96952380D01*
X149166666Y-96952380D01*
X149261904Y-96904761D01*
X149309523Y-96857142D01*
X149357142Y-96761904D01*
X149357142Y-95952380D01*
X149738095Y-95952380D02*
X150357142Y-95952380D01*
X150023809Y-96333333D01*
X150166666Y-96333333D01*
X150261904Y-96380952D01*
X150309523Y-96428571D01*
X150357142Y-96523809D01*
X150357142Y-96761904D01*
X150309523Y-96857142D01*
X150261904Y-96904761D01*
X150166666Y-96952380D01*
X149880952Y-96952380D01*
X149785714Y-96904761D01*
X149738095Y-96857142D01*
X150976190Y-95952380D02*
X151071428Y-95952380D01*
X151166666Y-96000000D01*
X151214285Y-96047619D01*
X151261904Y-96142857D01*
X151309523Y-96333333D01*
X151309523Y-96571428D01*
X151261904Y-96761904D01*
X151214285Y-96857142D01*
X151166666Y-96904761D01*
X151071428Y-96952380D01*
X150976190Y-96952380D01*
X150880952Y-96904761D01*
X150833333Y-96857142D01*
X150785714Y-96761904D01*
X150738095Y-96571428D01*
X150738095Y-96333333D01*
X150785714Y-96142857D01*
X150833333Y-96047619D01*
X150880952Y-96000000D01*
X150976190Y-95952380D01*
X152261904Y-96952380D02*
X151690476Y-96952380D01*
X151976190Y-96952380D02*
X151976190Y-95952380D01*
X151880952Y-96095238D01*
X151785714Y-96190476D01*
X151690476Y-96238095D01*
%TO.C,C303*%
X164037142Y-108069047D02*
X164084761Y-108116666D01*
X164132380Y-108259523D01*
X164132380Y-108354761D01*
X164084761Y-108497619D01*
X163989523Y-108592857D01*
X163894285Y-108640476D01*
X163703809Y-108688095D01*
X163560952Y-108688095D01*
X163370476Y-108640476D01*
X163275238Y-108592857D01*
X163180000Y-108497619D01*
X163132380Y-108354761D01*
X163132380Y-108259523D01*
X163180000Y-108116666D01*
X163227619Y-108069047D01*
X163132380Y-107735714D02*
X163132380Y-107116666D01*
X163513333Y-107450000D01*
X163513333Y-107307142D01*
X163560952Y-107211904D01*
X163608571Y-107164285D01*
X163703809Y-107116666D01*
X163941904Y-107116666D01*
X164037142Y-107164285D01*
X164084761Y-107211904D01*
X164132380Y-107307142D01*
X164132380Y-107592857D01*
X164084761Y-107688095D01*
X164037142Y-107735714D01*
X163132380Y-106497619D02*
X163132380Y-106402380D01*
X163180000Y-106307142D01*
X163227619Y-106259523D01*
X163322857Y-106211904D01*
X163513333Y-106164285D01*
X163751428Y-106164285D01*
X163941904Y-106211904D01*
X164037142Y-106259523D01*
X164084761Y-106307142D01*
X164132380Y-106402380D01*
X164132380Y-106497619D01*
X164084761Y-106592857D01*
X164037142Y-106640476D01*
X163941904Y-106688095D01*
X163751428Y-106735714D01*
X163513333Y-106735714D01*
X163322857Y-106688095D01*
X163227619Y-106640476D01*
X163180000Y-106592857D01*
X163132380Y-106497619D01*
X163132380Y-105830952D02*
X163132380Y-105211904D01*
X163513333Y-105545238D01*
X163513333Y-105402380D01*
X163560952Y-105307142D01*
X163608571Y-105259523D01*
X163703809Y-105211904D01*
X163941904Y-105211904D01*
X164037142Y-105259523D01*
X164084761Y-105307142D01*
X164132380Y-105402380D01*
X164132380Y-105688095D01*
X164084761Y-105783333D01*
X164037142Y-105830952D01*
%TO.C,J208*%
X192714285Y-84962380D02*
X192714285Y-85676666D01*
X192666666Y-85819523D01*
X192571428Y-85914761D01*
X192428571Y-85962380D01*
X192333333Y-85962380D01*
X193142857Y-85057619D02*
X193190476Y-85010000D01*
X193285714Y-84962380D01*
X193523809Y-84962380D01*
X193619047Y-85010000D01*
X193666666Y-85057619D01*
X193714285Y-85152857D01*
X193714285Y-85248095D01*
X193666666Y-85390952D01*
X193095238Y-85962380D01*
X193714285Y-85962380D01*
X194333333Y-84962380D02*
X194428571Y-84962380D01*
X194523809Y-85010000D01*
X194571428Y-85057619D01*
X194619047Y-85152857D01*
X194666666Y-85343333D01*
X194666666Y-85581428D01*
X194619047Y-85771904D01*
X194571428Y-85867142D01*
X194523809Y-85914761D01*
X194428571Y-85962380D01*
X194333333Y-85962380D01*
X194238095Y-85914761D01*
X194190476Y-85867142D01*
X194142857Y-85771904D01*
X194095238Y-85581428D01*
X194095238Y-85343333D01*
X194142857Y-85152857D01*
X194190476Y-85057619D01*
X194238095Y-85010000D01*
X194333333Y-84962380D01*
X195238095Y-85390952D02*
X195142857Y-85343333D01*
X195095238Y-85295714D01*
X195047619Y-85200476D01*
X195047619Y-85152857D01*
X195095238Y-85057619D01*
X195142857Y-85010000D01*
X195238095Y-84962380D01*
X195428571Y-84962380D01*
X195523809Y-85010000D01*
X195571428Y-85057619D01*
X195619047Y-85152857D01*
X195619047Y-85200476D01*
X195571428Y-85295714D01*
X195523809Y-85343333D01*
X195428571Y-85390952D01*
X195238095Y-85390952D01*
X195142857Y-85438571D01*
X195095238Y-85486190D01*
X195047619Y-85581428D01*
X195047619Y-85771904D01*
X195095238Y-85867142D01*
X195142857Y-85914761D01*
X195238095Y-85962380D01*
X195428571Y-85962380D01*
X195523809Y-85914761D01*
X195571428Y-85867142D01*
X195619047Y-85771904D01*
X195619047Y-85581428D01*
X195571428Y-85486190D01*
X195523809Y-85438571D01*
X195428571Y-85390952D01*
%TO.C,D402*%
X119132380Y-129290476D02*
X118132380Y-129290476D01*
X118132380Y-129052380D01*
X118180000Y-128909523D01*
X118275238Y-128814285D01*
X118370476Y-128766666D01*
X118560952Y-128719047D01*
X118703809Y-128719047D01*
X118894285Y-128766666D01*
X118989523Y-128814285D01*
X119084761Y-128909523D01*
X119132380Y-129052380D01*
X119132380Y-129290476D01*
X118465714Y-127861904D02*
X119132380Y-127861904D01*
X118084761Y-128100000D02*
X118799047Y-128338095D01*
X118799047Y-127719047D01*
X118132380Y-127147619D02*
X118132380Y-127052380D01*
X118180000Y-126957142D01*
X118227619Y-126909523D01*
X118322857Y-126861904D01*
X118513333Y-126814285D01*
X118751428Y-126814285D01*
X118941904Y-126861904D01*
X119037142Y-126909523D01*
X119084761Y-126957142D01*
X119132380Y-127052380D01*
X119132380Y-127147619D01*
X119084761Y-127242857D01*
X119037142Y-127290476D01*
X118941904Y-127338095D01*
X118751428Y-127385714D01*
X118513333Y-127385714D01*
X118322857Y-127338095D01*
X118227619Y-127290476D01*
X118180000Y-127242857D01*
X118132380Y-127147619D01*
X118227619Y-126433333D02*
X118180000Y-126385714D01*
X118132380Y-126290476D01*
X118132380Y-126052380D01*
X118180000Y-125957142D01*
X118227619Y-125909523D01*
X118322857Y-125861904D01*
X118418095Y-125861904D01*
X118560952Y-125909523D01*
X119132380Y-126480952D01*
X119132380Y-125861904D01*
%TO.C,H104*%
X106285714Y-55702380D02*
X106285714Y-54702380D01*
X106285714Y-55178571D02*
X106857142Y-55178571D01*
X106857142Y-55702380D02*
X106857142Y-54702380D01*
X107857142Y-55702380D02*
X107285714Y-55702380D01*
X107571428Y-55702380D02*
X107571428Y-54702380D01*
X107476190Y-54845238D01*
X107380952Y-54940476D01*
X107285714Y-54988095D01*
X108476190Y-54702380D02*
X108571428Y-54702380D01*
X108666666Y-54750000D01*
X108714285Y-54797619D01*
X108761904Y-54892857D01*
X108809523Y-55083333D01*
X108809523Y-55321428D01*
X108761904Y-55511904D01*
X108714285Y-55607142D01*
X108666666Y-55654761D01*
X108571428Y-55702380D01*
X108476190Y-55702380D01*
X108380952Y-55654761D01*
X108333333Y-55607142D01*
X108285714Y-55511904D01*
X108238095Y-55321428D01*
X108238095Y-55083333D01*
X108285714Y-54892857D01*
X108333333Y-54797619D01*
X108380952Y-54750000D01*
X108476190Y-54702380D01*
X109666666Y-55035714D02*
X109666666Y-55702380D01*
X109428571Y-54654761D02*
X109190476Y-55369047D01*
X109809523Y-55369047D01*
%TO.C,J201*%
X118234285Y-54622380D02*
X118234285Y-55336666D01*
X118186666Y-55479523D01*
X118091428Y-55574761D01*
X117948571Y-55622380D01*
X117853333Y-55622380D01*
X118662857Y-54717619D02*
X118710476Y-54670000D01*
X118805714Y-54622380D01*
X119043809Y-54622380D01*
X119139047Y-54670000D01*
X119186666Y-54717619D01*
X119234285Y-54812857D01*
X119234285Y-54908095D01*
X119186666Y-55050952D01*
X118615238Y-55622380D01*
X119234285Y-55622380D01*
X119853333Y-54622380D02*
X119948571Y-54622380D01*
X120043809Y-54670000D01*
X120091428Y-54717619D01*
X120139047Y-54812857D01*
X120186666Y-55003333D01*
X120186666Y-55241428D01*
X120139047Y-55431904D01*
X120091428Y-55527142D01*
X120043809Y-55574761D01*
X119948571Y-55622380D01*
X119853333Y-55622380D01*
X119758095Y-55574761D01*
X119710476Y-55527142D01*
X119662857Y-55431904D01*
X119615238Y-55241428D01*
X119615238Y-55003333D01*
X119662857Y-54812857D01*
X119710476Y-54717619D01*
X119758095Y-54670000D01*
X119853333Y-54622380D01*
X121139047Y-55622380D02*
X120567619Y-55622380D01*
X120853333Y-55622380D02*
X120853333Y-54622380D01*
X120758095Y-54765238D01*
X120662857Y-54860476D01*
X120567619Y-54908095D01*
%TO.C,H102*%
X106285714Y-127702380D02*
X106285714Y-126702380D01*
X106285714Y-127178571D02*
X106857142Y-127178571D01*
X106857142Y-127702380D02*
X106857142Y-126702380D01*
X107857142Y-127702380D02*
X107285714Y-127702380D01*
X107571428Y-127702380D02*
X107571428Y-126702380D01*
X107476190Y-126845238D01*
X107380952Y-126940476D01*
X107285714Y-126988095D01*
X108476190Y-126702380D02*
X108571428Y-126702380D01*
X108666666Y-126750000D01*
X108714285Y-126797619D01*
X108761904Y-126892857D01*
X108809523Y-127083333D01*
X108809523Y-127321428D01*
X108761904Y-127511904D01*
X108714285Y-127607142D01*
X108666666Y-127654761D01*
X108571428Y-127702380D01*
X108476190Y-127702380D01*
X108380952Y-127654761D01*
X108333333Y-127607142D01*
X108285714Y-127511904D01*
X108238095Y-127321428D01*
X108238095Y-127083333D01*
X108285714Y-126892857D01*
X108333333Y-126797619D01*
X108380952Y-126750000D01*
X108476190Y-126702380D01*
X109190476Y-126797619D02*
X109238095Y-126750000D01*
X109333333Y-126702380D01*
X109571428Y-126702380D01*
X109666666Y-126750000D01*
X109714285Y-126797619D01*
X109761904Y-126892857D01*
X109761904Y-126988095D01*
X109714285Y-127130952D01*
X109142857Y-127702380D01*
X109761904Y-127702380D01*
%TO.C,R401*%
X186102380Y-134469047D02*
X185626190Y-134802380D01*
X186102380Y-135040476D02*
X185102380Y-135040476D01*
X185102380Y-134659523D01*
X185150000Y-134564285D01*
X185197619Y-134516666D01*
X185292857Y-134469047D01*
X185435714Y-134469047D01*
X185530952Y-134516666D01*
X185578571Y-134564285D01*
X185626190Y-134659523D01*
X185626190Y-135040476D01*
X185435714Y-133611904D02*
X186102380Y-133611904D01*
X185054761Y-133850000D02*
X185769047Y-134088095D01*
X185769047Y-133469047D01*
X185102380Y-132897619D02*
X185102380Y-132802380D01*
X185150000Y-132707142D01*
X185197619Y-132659523D01*
X185292857Y-132611904D01*
X185483333Y-132564285D01*
X185721428Y-132564285D01*
X185911904Y-132611904D01*
X186007142Y-132659523D01*
X186054761Y-132707142D01*
X186102380Y-132802380D01*
X186102380Y-132897619D01*
X186054761Y-132992857D01*
X186007142Y-133040476D01*
X185911904Y-133088095D01*
X185721428Y-133135714D01*
X185483333Y-133135714D01*
X185292857Y-133088095D01*
X185197619Y-133040476D01*
X185150000Y-132992857D01*
X185102380Y-132897619D01*
X186102380Y-131611904D02*
X186102380Y-132183333D01*
X186102380Y-131897619D02*
X185102380Y-131897619D01*
X185245238Y-131992857D01*
X185340476Y-132088095D01*
X185388095Y-132183333D01*
%TO.C,R405*%
X127952380Y-111619047D02*
X127476190Y-111952380D01*
X127952380Y-112190476D02*
X126952380Y-112190476D01*
X126952380Y-111809523D01*
X127000000Y-111714285D01*
X127047619Y-111666666D01*
X127142857Y-111619047D01*
X127285714Y-111619047D01*
X127380952Y-111666666D01*
X127428571Y-111714285D01*
X127476190Y-111809523D01*
X127476190Y-112190476D01*
X127285714Y-110761904D02*
X127952380Y-110761904D01*
X126904761Y-111000000D02*
X127619047Y-111238095D01*
X127619047Y-110619047D01*
X126952380Y-110047619D02*
X126952380Y-109952380D01*
X127000000Y-109857142D01*
X127047619Y-109809523D01*
X127142857Y-109761904D01*
X127333333Y-109714285D01*
X127571428Y-109714285D01*
X127761904Y-109761904D01*
X127857142Y-109809523D01*
X127904761Y-109857142D01*
X127952380Y-109952380D01*
X127952380Y-110047619D01*
X127904761Y-110142857D01*
X127857142Y-110190476D01*
X127761904Y-110238095D01*
X127571428Y-110285714D01*
X127333333Y-110285714D01*
X127142857Y-110238095D01*
X127047619Y-110190476D01*
X127000000Y-110142857D01*
X126952380Y-110047619D01*
X126952380Y-108809523D02*
X126952380Y-109285714D01*
X127428571Y-109333333D01*
X127380952Y-109285714D01*
X127333333Y-109190476D01*
X127333333Y-108952380D01*
X127380952Y-108857142D01*
X127428571Y-108809523D01*
X127523809Y-108761904D01*
X127761904Y-108761904D01*
X127857142Y-108809523D01*
X127904761Y-108857142D01*
X127952380Y-108952380D01*
X127952380Y-109190476D01*
X127904761Y-109285714D01*
X127857142Y-109333333D01*
%TO.C,H103*%
X190285714Y-127702380D02*
X190285714Y-126702380D01*
X190285714Y-127178571D02*
X190857142Y-127178571D01*
X190857142Y-127702380D02*
X190857142Y-126702380D01*
X191857142Y-127702380D02*
X191285714Y-127702380D01*
X191571428Y-127702380D02*
X191571428Y-126702380D01*
X191476190Y-126845238D01*
X191380952Y-126940476D01*
X191285714Y-126988095D01*
X192476190Y-126702380D02*
X192571428Y-126702380D01*
X192666666Y-126750000D01*
X192714285Y-126797619D01*
X192761904Y-126892857D01*
X192809523Y-127083333D01*
X192809523Y-127321428D01*
X192761904Y-127511904D01*
X192714285Y-127607142D01*
X192666666Y-127654761D01*
X192571428Y-127702380D01*
X192476190Y-127702380D01*
X192380952Y-127654761D01*
X192333333Y-127607142D01*
X192285714Y-127511904D01*
X192238095Y-127321428D01*
X192238095Y-127083333D01*
X192285714Y-126892857D01*
X192333333Y-126797619D01*
X192380952Y-126750000D01*
X192476190Y-126702380D01*
X193142857Y-126702380D02*
X193761904Y-126702380D01*
X193428571Y-127083333D01*
X193571428Y-127083333D01*
X193666666Y-127130952D01*
X193714285Y-127178571D01*
X193761904Y-127273809D01*
X193761904Y-127511904D01*
X193714285Y-127607142D01*
X193666666Y-127654761D01*
X193571428Y-127702380D01*
X193285714Y-127702380D01*
X193190476Y-127654761D01*
X193142857Y-127607142D01*
%TO.C,D401*%
X182632380Y-128040476D02*
X181632380Y-128040476D01*
X181632380Y-127802380D01*
X181680000Y-127659523D01*
X181775238Y-127564285D01*
X181870476Y-127516666D01*
X182060952Y-127469047D01*
X182203809Y-127469047D01*
X182394285Y-127516666D01*
X182489523Y-127564285D01*
X182584761Y-127659523D01*
X182632380Y-127802380D01*
X182632380Y-128040476D01*
X181965714Y-126611904D02*
X182632380Y-126611904D01*
X181584761Y-126850000D02*
X182299047Y-127088095D01*
X182299047Y-126469047D01*
X181632380Y-125897619D02*
X181632380Y-125802380D01*
X181680000Y-125707142D01*
X181727619Y-125659523D01*
X181822857Y-125611904D01*
X182013333Y-125564285D01*
X182251428Y-125564285D01*
X182441904Y-125611904D01*
X182537142Y-125659523D01*
X182584761Y-125707142D01*
X182632380Y-125802380D01*
X182632380Y-125897619D01*
X182584761Y-125992857D01*
X182537142Y-126040476D01*
X182441904Y-126088095D01*
X182251428Y-126135714D01*
X182013333Y-126135714D01*
X181822857Y-126088095D01*
X181727619Y-126040476D01*
X181680000Y-125992857D01*
X181632380Y-125897619D01*
X182632380Y-124611904D02*
X182632380Y-125183333D01*
X182632380Y-124897619D02*
X181632380Y-124897619D01*
X181775238Y-124992857D01*
X181870476Y-125088095D01*
X181918095Y-125183333D01*
%TO.C,SW301*%
X155039285Y-135539761D02*
X155182142Y-135587380D01*
X155420238Y-135587380D01*
X155515476Y-135539761D01*
X155563095Y-135492142D01*
X155610714Y-135396904D01*
X155610714Y-135301666D01*
X155563095Y-135206428D01*
X155515476Y-135158809D01*
X155420238Y-135111190D01*
X155229761Y-135063571D01*
X155134523Y-135015952D01*
X155086904Y-134968333D01*
X155039285Y-134873095D01*
X155039285Y-134777857D01*
X155086904Y-134682619D01*
X155134523Y-134635000D01*
X155229761Y-134587380D01*
X155467857Y-134587380D01*
X155610714Y-134635000D01*
X155944047Y-134587380D02*
X156182142Y-135587380D01*
X156372619Y-134873095D01*
X156563095Y-135587380D01*
X156801190Y-134587380D01*
X157086904Y-134587380D02*
X157705952Y-134587380D01*
X157372619Y-134968333D01*
X157515476Y-134968333D01*
X157610714Y-135015952D01*
X157658333Y-135063571D01*
X157705952Y-135158809D01*
X157705952Y-135396904D01*
X157658333Y-135492142D01*
X157610714Y-135539761D01*
X157515476Y-135587380D01*
X157229761Y-135587380D01*
X157134523Y-135539761D01*
X157086904Y-135492142D01*
X158325000Y-134587380D02*
X158420238Y-134587380D01*
X158515476Y-134635000D01*
X158563095Y-134682619D01*
X158610714Y-134777857D01*
X158658333Y-134968333D01*
X158658333Y-135206428D01*
X158610714Y-135396904D01*
X158563095Y-135492142D01*
X158515476Y-135539761D01*
X158420238Y-135587380D01*
X158325000Y-135587380D01*
X158229761Y-135539761D01*
X158182142Y-135492142D01*
X158134523Y-135396904D01*
X158086904Y-135206428D01*
X158086904Y-134968333D01*
X158134523Y-134777857D01*
X158182142Y-134682619D01*
X158229761Y-134635000D01*
X158325000Y-134587380D01*
X159610714Y-135587380D02*
X159039285Y-135587380D01*
X159325000Y-135587380D02*
X159325000Y-134587380D01*
X159229761Y-134730238D01*
X159134523Y-134825476D01*
X159039285Y-134873095D01*
%TO.C,D403*%
X124132380Y-129290476D02*
X123132380Y-129290476D01*
X123132380Y-129052380D01*
X123180000Y-128909523D01*
X123275238Y-128814285D01*
X123370476Y-128766666D01*
X123560952Y-128719047D01*
X123703809Y-128719047D01*
X123894285Y-128766666D01*
X123989523Y-128814285D01*
X124084761Y-128909523D01*
X124132380Y-129052380D01*
X124132380Y-129290476D01*
X123465714Y-127861904D02*
X124132380Y-127861904D01*
X123084761Y-128100000D02*
X123799047Y-128338095D01*
X123799047Y-127719047D01*
X123132380Y-127147619D02*
X123132380Y-127052380D01*
X123180000Y-126957142D01*
X123227619Y-126909523D01*
X123322857Y-126861904D01*
X123513333Y-126814285D01*
X123751428Y-126814285D01*
X123941904Y-126861904D01*
X124037142Y-126909523D01*
X124084761Y-126957142D01*
X124132380Y-127052380D01*
X124132380Y-127147619D01*
X124084761Y-127242857D01*
X124037142Y-127290476D01*
X123941904Y-127338095D01*
X123751428Y-127385714D01*
X123513333Y-127385714D01*
X123322857Y-127338095D01*
X123227619Y-127290476D01*
X123180000Y-127242857D01*
X123132380Y-127147619D01*
X123132380Y-126480952D02*
X123132380Y-125861904D01*
X123513333Y-126195238D01*
X123513333Y-126052380D01*
X123560952Y-125957142D01*
X123608571Y-125909523D01*
X123703809Y-125861904D01*
X123941904Y-125861904D01*
X124037142Y-125909523D01*
X124084761Y-125957142D01*
X124132380Y-126052380D01*
X124132380Y-126338095D01*
X124084761Y-126433333D01*
X124037142Y-126480952D01*
%TO.C,C304*%
X157177142Y-96619047D02*
X157224761Y-96666666D01*
X157272380Y-96809523D01*
X157272380Y-96904761D01*
X157224761Y-97047619D01*
X157129523Y-97142857D01*
X157034285Y-97190476D01*
X156843809Y-97238095D01*
X156700952Y-97238095D01*
X156510476Y-97190476D01*
X156415238Y-97142857D01*
X156320000Y-97047619D01*
X156272380Y-96904761D01*
X156272380Y-96809523D01*
X156320000Y-96666666D01*
X156367619Y-96619047D01*
X156272380Y-96285714D02*
X156272380Y-95666666D01*
X156653333Y-96000000D01*
X156653333Y-95857142D01*
X156700952Y-95761904D01*
X156748571Y-95714285D01*
X156843809Y-95666666D01*
X157081904Y-95666666D01*
X157177142Y-95714285D01*
X157224761Y-95761904D01*
X157272380Y-95857142D01*
X157272380Y-96142857D01*
X157224761Y-96238095D01*
X157177142Y-96285714D01*
X156272380Y-95047619D02*
X156272380Y-94952380D01*
X156320000Y-94857142D01*
X156367619Y-94809523D01*
X156462857Y-94761904D01*
X156653333Y-94714285D01*
X156891428Y-94714285D01*
X157081904Y-94761904D01*
X157177142Y-94809523D01*
X157224761Y-94857142D01*
X157272380Y-94952380D01*
X157272380Y-95047619D01*
X157224761Y-95142857D01*
X157177142Y-95190476D01*
X157081904Y-95238095D01*
X156891428Y-95285714D01*
X156653333Y-95285714D01*
X156462857Y-95238095D01*
X156367619Y-95190476D01*
X156320000Y-95142857D01*
X156272380Y-95047619D01*
X156605714Y-93857142D02*
X157272380Y-93857142D01*
X156224761Y-94095238D02*
X156939047Y-94333333D01*
X156939047Y-93714285D01*
%TO.C,J205*%
X169152380Y-129685714D02*
X169866666Y-129685714D01*
X170009523Y-129733333D01*
X170104761Y-129828571D01*
X170152380Y-129971428D01*
X170152380Y-130066666D01*
X169247619Y-129257142D02*
X169200000Y-129209523D01*
X169152380Y-129114285D01*
X169152380Y-128876190D01*
X169200000Y-128780952D01*
X169247619Y-128733333D01*
X169342857Y-128685714D01*
X169438095Y-128685714D01*
X169580952Y-128733333D01*
X170152380Y-129304761D01*
X170152380Y-128685714D01*
X169152380Y-128066666D02*
X169152380Y-127971428D01*
X169200000Y-127876190D01*
X169247619Y-127828571D01*
X169342857Y-127780952D01*
X169533333Y-127733333D01*
X169771428Y-127733333D01*
X169961904Y-127780952D01*
X170057142Y-127828571D01*
X170104761Y-127876190D01*
X170152380Y-127971428D01*
X170152380Y-128066666D01*
X170104761Y-128161904D01*
X170057142Y-128209523D01*
X169961904Y-128257142D01*
X169771428Y-128304761D01*
X169533333Y-128304761D01*
X169342857Y-128257142D01*
X169247619Y-128209523D01*
X169200000Y-128161904D01*
X169152380Y-128066666D01*
X169152380Y-126828571D02*
X169152380Y-127304761D01*
X169628571Y-127352380D01*
X169580952Y-127304761D01*
X169533333Y-127209523D01*
X169533333Y-126971428D01*
X169580952Y-126876190D01*
X169628571Y-126828571D01*
X169723809Y-126780952D01*
X169961904Y-126780952D01*
X170057142Y-126828571D01*
X170104761Y-126876190D01*
X170152380Y-126971428D01*
X170152380Y-127209523D01*
X170104761Y-127304761D01*
X170057142Y-127352380D01*
%TO.C,J202*%
X104852380Y-87285714D02*
X105566666Y-87285714D01*
X105709523Y-87333333D01*
X105804761Y-87428571D01*
X105852380Y-87571428D01*
X105852380Y-87666666D01*
X104947619Y-86857142D02*
X104900000Y-86809523D01*
X104852380Y-86714285D01*
X104852380Y-86476190D01*
X104900000Y-86380952D01*
X104947619Y-86333333D01*
X105042857Y-86285714D01*
X105138095Y-86285714D01*
X105280952Y-86333333D01*
X105852380Y-86904761D01*
X105852380Y-86285714D01*
X104852380Y-85666666D02*
X104852380Y-85571428D01*
X104900000Y-85476190D01*
X104947619Y-85428571D01*
X105042857Y-85380952D01*
X105233333Y-85333333D01*
X105471428Y-85333333D01*
X105661904Y-85380952D01*
X105757142Y-85428571D01*
X105804761Y-85476190D01*
X105852380Y-85571428D01*
X105852380Y-85666666D01*
X105804761Y-85761904D01*
X105757142Y-85809523D01*
X105661904Y-85857142D01*
X105471428Y-85904761D01*
X105233333Y-85904761D01*
X105042857Y-85857142D01*
X104947619Y-85809523D01*
X104900000Y-85761904D01*
X104852380Y-85666666D01*
X104947619Y-84952380D02*
X104900000Y-84904761D01*
X104852380Y-84809523D01*
X104852380Y-84571428D01*
X104900000Y-84476190D01*
X104947619Y-84428571D01*
X105042857Y-84380952D01*
X105138095Y-84380952D01*
X105280952Y-84428571D01*
X105852380Y-85000000D01*
X105852380Y-84380952D01*
%TO.C,R404*%
X123380952Y-115952380D02*
X123047619Y-115476190D01*
X122809523Y-115952380D02*
X122809523Y-114952380D01*
X123190476Y-114952380D01*
X123285714Y-115000000D01*
X123333333Y-115047619D01*
X123380952Y-115142857D01*
X123380952Y-115285714D01*
X123333333Y-115380952D01*
X123285714Y-115428571D01*
X123190476Y-115476190D01*
X122809523Y-115476190D01*
X124238095Y-115285714D02*
X124238095Y-115952380D01*
X124000000Y-114904761D02*
X123761904Y-115619047D01*
X124380952Y-115619047D01*
X124952380Y-114952380D02*
X125047619Y-114952380D01*
X125142857Y-115000000D01*
X125190476Y-115047619D01*
X125238095Y-115142857D01*
X125285714Y-115333333D01*
X125285714Y-115571428D01*
X125238095Y-115761904D01*
X125190476Y-115857142D01*
X125142857Y-115904761D01*
X125047619Y-115952380D01*
X124952380Y-115952380D01*
X124857142Y-115904761D01*
X124809523Y-115857142D01*
X124761904Y-115761904D01*
X124714285Y-115571428D01*
X124714285Y-115333333D01*
X124761904Y-115142857D01*
X124809523Y-115047619D01*
X124857142Y-115000000D01*
X124952380Y-114952380D01*
X126142857Y-115285714D02*
X126142857Y-115952380D01*
X125904761Y-114904761D02*
X125666666Y-115619047D01*
X126285714Y-115619047D01*
%TO.C,U302*%
X157777380Y-102664285D02*
X158586904Y-102664285D01*
X158682142Y-102616666D01*
X158729761Y-102569047D01*
X158777380Y-102473809D01*
X158777380Y-102283333D01*
X158729761Y-102188095D01*
X158682142Y-102140476D01*
X158586904Y-102092857D01*
X157777380Y-102092857D01*
X157777380Y-101711904D02*
X157777380Y-101092857D01*
X158158333Y-101426190D01*
X158158333Y-101283333D01*
X158205952Y-101188095D01*
X158253571Y-101140476D01*
X158348809Y-101092857D01*
X158586904Y-101092857D01*
X158682142Y-101140476D01*
X158729761Y-101188095D01*
X158777380Y-101283333D01*
X158777380Y-101569047D01*
X158729761Y-101664285D01*
X158682142Y-101711904D01*
X157777380Y-100473809D02*
X157777380Y-100378571D01*
X157825000Y-100283333D01*
X157872619Y-100235714D01*
X157967857Y-100188095D01*
X158158333Y-100140476D01*
X158396428Y-100140476D01*
X158586904Y-100188095D01*
X158682142Y-100235714D01*
X158729761Y-100283333D01*
X158777380Y-100378571D01*
X158777380Y-100473809D01*
X158729761Y-100569047D01*
X158682142Y-100616666D01*
X158586904Y-100664285D01*
X158396428Y-100711904D01*
X158158333Y-100711904D01*
X157967857Y-100664285D01*
X157872619Y-100616666D01*
X157825000Y-100569047D01*
X157777380Y-100473809D01*
X157872619Y-99759523D02*
X157825000Y-99711904D01*
X157777380Y-99616666D01*
X157777380Y-99378571D01*
X157825000Y-99283333D01*
X157872619Y-99235714D01*
X157967857Y-99188095D01*
X158063095Y-99188095D01*
X158205952Y-99235714D01*
X158777380Y-99807142D01*
X158777380Y-99188095D01*
D11*
%TO.C,J204*%
X177870000Y-57500000D02*
X177870000Y-56170000D01*
X177870000Y-56170000D02*
X179200000Y-56170000D01*
X183070000Y-56170000D02*
X183070000Y-104550000D01*
X177870000Y-58770000D02*
X177870000Y-104550000D01*
X180470000Y-58770000D02*
X180470000Y-56170000D01*
X180470000Y-56170000D02*
X183070000Y-56170000D01*
X177870000Y-104550000D02*
X183070000Y-104550000D01*
X177870000Y-58770000D02*
X180470000Y-58770000D01*
%TO.C,C402*%
X134235000Y-110238748D02*
X134235000Y-110761252D01*
X132765000Y-110238748D02*
X132765000Y-110761252D01*
%TO.C,J401*%
X195605000Y-118080000D02*
X195605000Y-105320000D01*
X195605000Y-120680000D02*
X194275000Y-120680000D01*
X193005000Y-118080000D02*
X193005000Y-120680000D01*
X195605000Y-105320000D02*
X190405000Y-105320000D01*
X195605000Y-118080000D02*
X193005000Y-118080000D01*
X193005000Y-120680000D02*
X190405000Y-120680000D01*
X190405000Y-120680000D02*
X190405000Y-105320000D01*
X195605000Y-119350000D02*
X195605000Y-120680000D01*
%TO.C,R402*%
X119765000Y-133772936D02*
X119765000Y-134227064D01*
X121235000Y-133772936D02*
X121235000Y-134227064D01*
%TO.C,U401*%
X138000000Y-113440000D02*
X136050000Y-113440000D01*
X138000000Y-118560000D02*
X141450000Y-118560000D01*
X138000000Y-113440000D02*
X139950000Y-113440000D01*
X138000000Y-118560000D02*
X136050000Y-118560000D01*
%TO.C,C401*%
X128238748Y-118265000D02*
X128761252Y-118265000D01*
X128238748Y-119735000D02*
X128761252Y-119735000D01*
%TO.C,J203*%
X106990000Y-67390000D02*
X108200000Y-67390000D01*
X110810000Y-77410000D02*
X110810000Y-74910000D01*
X109010000Y-67890000D02*
X110510000Y-67890000D01*
X108200000Y-67390000D02*
X108200000Y-66890000D01*
X108310000Y-77410000D02*
X110810000Y-77410000D01*
X106990000Y-76610000D02*
X106990000Y-67390000D01*
X106490000Y-66890000D02*
X106490000Y-77110000D01*
X110510000Y-77110000D02*
X110510000Y-66890000D01*
X109010000Y-77110000D02*
X109010000Y-76110000D01*
X106490000Y-77110000D02*
X110510000Y-77110000D01*
X109010000Y-76110000D02*
X110510000Y-76110000D01*
X109010000Y-66890000D02*
X109010000Y-67890000D01*
X108200000Y-77110000D02*
X108200000Y-76610000D01*
X108200000Y-76610000D02*
X106990000Y-76610000D01*
X110510000Y-66890000D02*
X106490000Y-66890000D01*
%TO.C,J206*%
X195330000Y-81270000D02*
X195330000Y-82600000D01*
X195330000Y-80000000D02*
X192670000Y-80000000D01*
X192670000Y-80000000D02*
X192670000Y-67240000D01*
X195330000Y-82600000D02*
X194000000Y-82600000D01*
X195330000Y-80000000D02*
X195330000Y-67240000D01*
X195330000Y-67240000D02*
X192670000Y-67240000D01*
%TO.C,C302*%
X146261252Y-93265000D02*
X145738748Y-93265000D01*
X146261252Y-94735000D02*
X145738748Y-94735000D01*
%TO.C,C301*%
X148238748Y-108235000D02*
X148761252Y-108235000D01*
X148238748Y-106765000D02*
X148761252Y-106765000D01*
%TO.C,R403*%
X124765000Y-133772936D02*
X124765000Y-134227064D01*
X126235000Y-133772936D02*
X126235000Y-134227064D01*
%TO.C,U301*%
X152410000Y-97590000D02*
X152410000Y-98850000D01*
X152410000Y-104410000D02*
X152410000Y-103150000D01*
X148650000Y-104410000D02*
X152410000Y-104410000D01*
X146400000Y-97590000D02*
X152410000Y-97590000D01*
%TO.C,C303*%
X162735000Y-106688748D02*
X162735000Y-107211252D01*
X161265000Y-106688748D02*
X161265000Y-107211252D01*
%TO.C,J208*%
X195330000Y-89110000D02*
X195330000Y-101870000D01*
X192670000Y-89110000D02*
X192670000Y-101870000D01*
X192670000Y-86510000D02*
X194000000Y-86510000D01*
X192670000Y-101870000D02*
X195330000Y-101870000D01*
X192670000Y-89110000D02*
X195330000Y-89110000D01*
X192670000Y-87840000D02*
X192670000Y-86510000D01*
%TO.C,D402*%
X119365000Y-126000000D02*
X119365000Y-129885000D01*
X121635000Y-129885000D02*
X121635000Y-126000000D01*
X119365000Y-129885000D02*
X121635000Y-129885000D01*
%TO.C,J201*%
X116920000Y-104550000D02*
X122120000Y-104550000D01*
X116920000Y-57500000D02*
X116920000Y-56170000D01*
X122120000Y-56170000D02*
X122120000Y-104550000D01*
X119520000Y-58770000D02*
X119520000Y-56170000D01*
X119520000Y-56170000D02*
X122120000Y-56170000D01*
X116920000Y-58770000D02*
X116920000Y-104550000D01*
X116920000Y-58770000D02*
X119520000Y-58770000D01*
X116920000Y-56170000D02*
X118250000Y-56170000D01*
%TO.C,R401*%
X184735000Y-133122936D02*
X184735000Y-133577064D01*
X183265000Y-133122936D02*
X183265000Y-133577064D01*
%TO.C,R405*%
X130235000Y-110727064D02*
X130235000Y-110272936D01*
X128765000Y-110727064D02*
X128765000Y-110272936D01*
%TO.C,D401*%
X182865000Y-124750000D02*
X182865000Y-128635000D01*
X185135000Y-128635000D02*
X185135000Y-124750000D01*
X182865000Y-128635000D02*
X185135000Y-128635000D01*
D12*
%TO.C,SW301*%
X169400000Y-122000000D02*
G75*
G03*
X169400000Y-122000000I-100000J0D01*
G01*
D13*
X168500000Y-122000000D02*
G75*
G03*
X168500000Y-122000000I-11500000J0D01*
G01*
D11*
%TO.C,D403*%
X124365000Y-129885000D02*
X126635000Y-129885000D01*
X124365000Y-126000000D02*
X124365000Y-129885000D01*
X126635000Y-129885000D02*
X126635000Y-126000000D01*
%TO.C,C304*%
X159235000Y-95761252D02*
X159235000Y-95238748D01*
X157765000Y-95761252D02*
X157765000Y-95238748D01*
%TO.C,J205*%
X173400000Y-136250000D02*
X176550000Y-136250000D01*
X179150000Y-133400000D02*
X179150000Y-120550000D01*
X176550000Y-136250000D02*
X179150000Y-133400000D01*
X170850000Y-133400000D02*
X173400000Y-136250000D01*
X170850000Y-120550000D02*
X170850000Y-133400000D01*
X179150000Y-120550000D02*
X170850000Y-120550000D01*
%TO.C,J202*%
X106990000Y-90610000D02*
X106990000Y-81390000D01*
X108310000Y-91410000D02*
X110810000Y-91410000D01*
X106490000Y-91110000D02*
X110510000Y-91110000D01*
X109010000Y-91110000D02*
X109010000Y-90110000D01*
X110810000Y-91410000D02*
X110810000Y-88910000D01*
X108200000Y-90610000D02*
X106990000Y-90610000D01*
X108200000Y-81390000D02*
X108200000Y-80890000D01*
X106490000Y-80890000D02*
X106490000Y-91110000D01*
X109010000Y-81890000D02*
X110510000Y-81890000D01*
X109010000Y-80890000D02*
X109010000Y-81890000D01*
X110510000Y-91110000D02*
X110510000Y-80890000D01*
X106990000Y-81390000D02*
X108200000Y-81390000D01*
X110510000Y-80890000D02*
X106490000Y-80890000D01*
X109010000Y-90110000D02*
X110510000Y-90110000D01*
X108200000Y-91110000D02*
X108200000Y-90610000D01*
%TO.C,R404*%
X128727064Y-114765000D02*
X128272936Y-114765000D01*
X128727064Y-116235000D02*
X128272936Y-116235000D01*
%TO.C,U302*%
X162285000Y-100950000D02*
X162285000Y-101750000D01*
X159165000Y-100950000D02*
X159165000Y-100150000D01*
X162285000Y-100950000D02*
X162285000Y-100150000D01*
X159165000Y-100950000D02*
X159165000Y-102750000D01*
%TD*%
M02*
