%TF.GenerationSoftware,KiCad,Pcbnew,(6.0.10)*%
%TF.CreationDate,2023-04-26T13:07:06+03:00*%
%TF.ProjectId,KiCAD design,4b694341-4420-4646-9573-69676e2e6b69,rev?*%
%TF.SameCoordinates,Original*%
%TF.FileFunction,Drillmap*%
%TF.FilePolarity,Positive*%
%FSLAX45Y45*%
G04 Gerber Fmt 4.5, Leading zero omitted, Abs format (unit mm)*
G04 Created by KiCad (PCBNEW (6.0.10)) date 2023-04-26 13:07:06*
%MOMM*%
%LPD*%
G01*
G04 APERTURE LIST*
%ADD10C,0.100000*%
%ADD11C,0.200000*%
G04 APERTURE END LIST*
D10*
X19875000Y-5175000D02*
X19875000Y-13800000D01*
X10200000Y-5175000D02*
X19875000Y-5175000D01*
X10200000Y-5175000D02*
X10200000Y-13800000D01*
X10200000Y-13800000D02*
X19875000Y-13800000D01*
D11*
X10452619Y-14115476D02*
X10452619Y-13915476D01*
X10500238Y-13915476D01*
X10528810Y-13925000D01*
X10547857Y-13944048D01*
X10557381Y-13963095D01*
X10566905Y-14001190D01*
X10566905Y-14029762D01*
X10557381Y-14067857D01*
X10547857Y-14086905D01*
X10528810Y-14105952D01*
X10500238Y-14115476D01*
X10452619Y-14115476D01*
X10652619Y-14115476D02*
X10652619Y-13982143D01*
X10652619Y-14020238D02*
X10662143Y-14001190D01*
X10671667Y-13991667D01*
X10690714Y-13982143D01*
X10709762Y-13982143D01*
X10776429Y-14115476D02*
X10776429Y-13982143D01*
X10776429Y-13915476D02*
X10766905Y-13925000D01*
X10776429Y-13934524D01*
X10785952Y-13925000D01*
X10776429Y-13915476D01*
X10776429Y-13934524D01*
X10900238Y-14115476D02*
X10881190Y-14105952D01*
X10871667Y-14086905D01*
X10871667Y-13915476D01*
X11005000Y-14115476D02*
X10985952Y-14105952D01*
X10976429Y-14086905D01*
X10976429Y-13915476D01*
X11233571Y-14115476D02*
X11233571Y-13915476D01*
X11300238Y-14058333D01*
X11366905Y-13915476D01*
X11366905Y-14115476D01*
X11547857Y-14115476D02*
X11547857Y-14010714D01*
X11538333Y-13991667D01*
X11519286Y-13982143D01*
X11481190Y-13982143D01*
X11462143Y-13991667D01*
X11547857Y-14105952D02*
X11528809Y-14115476D01*
X11481190Y-14115476D01*
X11462143Y-14105952D01*
X11452619Y-14086905D01*
X11452619Y-14067857D01*
X11462143Y-14048809D01*
X11481190Y-14039286D01*
X11528809Y-14039286D01*
X11547857Y-14029762D01*
X11643095Y-13982143D02*
X11643095Y-14182143D01*
X11643095Y-13991667D02*
X11662143Y-13982143D01*
X11700238Y-13982143D01*
X11719286Y-13991667D01*
X11728809Y-14001190D01*
X11738333Y-14020238D01*
X11738333Y-14077381D01*
X11728809Y-14096428D01*
X11719286Y-14105952D01*
X11700238Y-14115476D01*
X11662143Y-14115476D01*
X11643095Y-14105952D01*
X11824048Y-14096428D02*
X11833571Y-14105952D01*
X11824048Y-14115476D01*
X11814524Y-14105952D01*
X11824048Y-14096428D01*
X11824048Y-14115476D01*
X11824048Y-13991667D02*
X11833571Y-14001190D01*
X11824048Y-14010714D01*
X11814524Y-14001190D01*
X11824048Y-13991667D01*
X11824048Y-14010714D01*
M02*
