%TF.GenerationSoftware,KiCad,Pcbnew,(6.0.10)*%
%TF.CreationDate,2023-04-26T13:06:59+03:00*%
%TF.ProjectId,KiCAD design,4b694341-4420-4646-9573-69676e2e6b69,rev?*%
%TF.SameCoordinates,Original*%
%TF.FileFunction,Soldermask,Top*%
%TF.FilePolarity,Negative*%
%FSLAX46Y46*%
G04 Gerber Fmt 4.6, Leading zero omitted, Abs format (unit mm)*
G04 Created by KiCad (PCBNEW (6.0.10)) date 2023-04-26 13:06:59*
%MOMM*%
%LPD*%
G01*
G04 APERTURE LIST*
G04 Aperture macros list*
%AMRoundRect*
0 Rectangle with rounded corners*
0 $1 Rounding radius*
0 $2 $3 $4 $5 $6 $7 $8 $9 X,Y pos of 4 corners*
0 Add a 4 corners polygon primitive as box body*
4,1,4,$2,$3,$4,$5,$6,$7,$8,$9,$2,$3,0*
0 Add four circle primitives for the rounded corners*
1,1,$1+$1,$2,$3*
1,1,$1+$1,$4,$5*
1,1,$1+$1,$6,$7*
1,1,$1+$1,$8,$9*
0 Add four rect primitives between the rounded corners*
20,1,$1+$1,$2,$3,$4,$5,0*
20,1,$1+$1,$4,$5,$6,$7,0*
20,1,$1+$1,$6,$7,$8,$9,0*
20,1,$1+$1,$8,$9,$2,$3,0*%
G04 Aperture macros list end*
%ADD10R,1.700000X1.700000*%
%ADD11O,1.700000X1.700000*%
%ADD12RoundRect,0.487500X-0.537500X0.487500X-0.537500X-0.487500X0.537500X-0.487500X0.537500X0.487500X0*%
%ADD13RoundRect,0.487500X-0.562500X0.487500X-0.562500X-0.487500X0.562500X-0.487500X0.562500X0.487500X0*%
%ADD14RoundRect,0.414633X-0.585367X0.435367X-0.585367X-0.435367X0.585367X-0.435367X0.585367X0.435367X0*%
%ADD15RoundRect,0.426829X-0.573171X0.448171X-0.573171X-0.448171X0.573171X-0.448171X0.573171X0.448171X0*%
%ADD16RoundRect,0.151250X1.098750X0.151250X-1.098750X0.151250X-1.098750X-0.151250X1.098750X-0.151250X0*%
%ADD17RoundRect,0.158750X1.091250X0.158750X-1.091250X0.158750X-1.091250X-0.158750X1.091250X-0.158750X0*%
%ADD18RoundRect,0.153750X1.071250X0.153750X-1.071250X0.153750X-1.071250X-0.153750X1.071250X-0.153750X0*%
%ADD19RoundRect,0.148750X1.101250X0.148750X-1.101250X0.148750X-1.101250X-0.148750X1.101250X-0.148750X0*%
%ADD20RoundRect,0.161250X1.113750X0.161250X-1.113750X0.161250X-1.113750X-0.161250X1.113750X-0.161250X0*%
%ADD21RoundRect,0.150000X1.150000X0.150000X-1.150000X0.150000X-1.150000X-0.150000X1.150000X-0.150000X0*%
%ADD22RoundRect,0.146250X1.178750X0.146250X-1.178750X0.146250X-1.178750X-0.146250X1.178750X-0.146250X0*%
%ADD23RoundRect,0.151250X1.148750X0.151250X-1.148750X0.151250X-1.148750X-0.151250X1.148750X-0.151250X0*%
%ADD24RoundRect,0.487500X-0.487500X-0.562500X0.487500X-0.562500X0.487500X0.562500X-0.487500X0.562500X0*%
%ADD25RoundRect,0.500000X-0.525000X-0.500000X0.525000X-0.500000X0.525000X0.500000X-0.525000X0.500000X0*%
%ADD26RoundRect,0.250000X0.725000X-0.600000X0.725000X0.600000X-0.725000X0.600000X-0.725000X-0.600000X0*%
%ADD27O,1.950000X1.700000*%
%ADD28RoundRect,0.425000X0.425000X0.600000X-0.425000X0.600000X-0.425000X-0.600000X0.425000X-0.600000X0*%
%ADD29RoundRect,0.437500X0.437500X0.587500X-0.437500X0.587500X-0.437500X-0.587500X0.437500X-0.587500X0*%
%ADD30RoundRect,0.475000X-0.475000X-0.550000X0.475000X-0.550000X0.475000X0.550000X-0.475000X0.550000X0*%
%ADD31RoundRect,0.487500X-0.487500X-0.512500X0.487500X-0.512500X0.487500X0.512500X-0.487500X0.512500X0*%
%ADD32RoundRect,0.402438X-0.597562X0.422562X-0.597562X-0.422562X0.597562X-0.422562X0.597562X0.422562X0*%
%ADD33R,3.050000X1.550000*%
%ADD34R,2.950000X1.450000*%
%ADD35R,3.650000X3.900000*%
%ADD36R,2.950000X1.550000*%
%ADD37RoundRect,0.475000X-0.550000X0.475000X-0.550000X-0.475000X0.550000X-0.475000X0.550000X0.475000X0*%
%ADD38RoundRect,0.487500X-0.512500X0.487500X-0.512500X-0.487500X0.512500X-0.487500X0.512500X0.487500X0*%
%ADD39RoundRect,0.435000X0.790000X-0.652500X0.790000X0.652500X-0.790000X0.652500X-0.790000X-0.652500X0*%
%ADD40RoundRect,0.415000X0.735000X-0.622500X0.735000X0.622500X-0.735000X0.622500X-0.735000X-0.622500X0*%
%ADD41C,7.500000*%
%ADD42RoundRect,0.463414X-0.536586X0.486586X-0.536586X-0.486586X0.536586X-0.486586X0.536586X0.486586X0*%
%ADD43RoundRect,0.475609X-0.524391X0.499391X-0.524391X-0.499391X0.524391X-0.499391X0.524391X0.499391X0*%
%ADD44RoundRect,0.487804X0.512196X-0.512196X0.512196X0.512196X-0.512196X0.512196X-0.512196X-0.512196X0*%
%ADD45RoundRect,0.475609X0.499391X-0.524391X0.499391X0.524391X-0.499391X0.524391X-0.499391X-0.524391X0*%
%ADD46RoundRect,0.480000X0.720000X-0.732500X0.720000X0.732500X-0.720000X0.732500X-0.720000X-0.732500X0*%
%ADD47RoundRect,0.445000X0.705000X-0.667500X0.705000X0.667500X-0.705000X0.667500X-0.705000X-0.667500X0*%
%ADD48O,3.260000X6.520000*%
%ADD49RoundRect,0.425000X0.750000X-0.637500X0.750000X0.637500X-0.750000X0.637500X-0.750000X-0.637500X0*%
%ADD50RoundRect,0.425000X0.600000X-0.425000X0.600000X0.425000X-0.600000X0.425000X-0.600000X-0.425000X0*%
%ADD51RoundRect,0.462500X0.562500X-0.462500X0.562500X0.462500X-0.562500X0.462500X-0.562500X-0.462500X0*%
%ADD52RoundRect,1.500000X1.500000X-1.500000X1.500000X1.500000X-1.500000X1.500000X-1.500000X-1.500000X0*%
%ADD53C,6.000000*%
%ADD54RoundRect,0.463414X0.561586X0.486586X-0.561586X0.486586X-0.561586X-0.486586X0.561586X-0.486586X0*%
%ADD55RoundRect,0.475609X0.524391X0.499391X-0.524391X0.499391X-0.524391X-0.499391X0.524391X-0.499391X0*%
%ADD56RoundRect,0.150000X0.150000X-0.837500X0.150000X0.837500X-0.150000X0.837500X-0.150000X-0.837500X0*%
%ADD57RoundRect,0.162500X0.162500X-0.800000X0.162500X0.800000X-0.162500X0.800000X-0.162500X-0.800000X0*%
%ADD58RoundRect,0.150000X0.150000X-0.787500X0.150000X0.787500X-0.150000X0.787500X-0.150000X-0.787500X0*%
G04 APERTURE END LIST*
D10*
%TO.C,J204*%
X179200000Y-57500000D03*
D11*
X181740000Y-57500000D03*
X179200000Y-60040000D03*
X181740000Y-60040000D03*
X179200000Y-62580000D03*
X181740000Y-62580000D03*
X179200000Y-65120000D03*
X181740000Y-65120000D03*
X179200000Y-67660000D03*
X181740000Y-67660000D03*
X179200000Y-70200000D03*
X181740000Y-70200000D03*
X179200000Y-72740000D03*
X181740000Y-72740000D03*
X179200000Y-75280000D03*
X181740000Y-75280000D03*
X179200000Y-77820000D03*
X181740000Y-77820000D03*
X179200000Y-80360000D03*
X181740000Y-80360000D03*
X179200000Y-82900000D03*
X181740000Y-82900000D03*
X179200000Y-85440000D03*
X181740000Y-85440000D03*
X179200000Y-87980000D03*
X181740000Y-87980000D03*
X179200000Y-90520000D03*
X181740000Y-90520000D03*
X179200000Y-93060000D03*
X181740000Y-93060000D03*
X179200000Y-95600000D03*
X181740000Y-95600000D03*
X179200000Y-98140000D03*
X181740000Y-98140000D03*
X179200000Y-100680000D03*
X181740000Y-100680000D03*
X179200000Y-103220000D03*
X181740000Y-103220000D03*
%TD*%
D12*
%TO.C,C402*%
X133525000Y-109075000D03*
D13*
X133550000Y-111925000D03*
%TD*%
D10*
%TO.C,J401*%
X194275000Y-119350000D03*
D11*
X191735000Y-119350000D03*
X194275000Y-116810000D03*
X191735000Y-116810000D03*
X194275000Y-114270000D03*
X191735000Y-114270000D03*
X194275000Y-111730000D03*
X191735000Y-111730000D03*
X194275000Y-109190000D03*
X191735000Y-109190000D03*
X194275000Y-106650000D03*
X191735000Y-106650000D03*
%TD*%
D14*
%TO.C,R402*%
X118500000Y-132750000D03*
D15*
X118500000Y-135275000D03*
%TD*%
D16*
%TO.C,U401*%
X140750000Y-117902500D03*
D17*
X140750000Y-116617500D03*
D18*
X140725000Y-115357500D03*
D19*
X140750000Y-114097500D03*
D20*
X135225000Y-114072500D03*
D21*
X135200000Y-115365000D03*
D22*
X135175000Y-116642500D03*
D23*
X135200000Y-117902500D03*
%TD*%
D24*
%TO.C,C401*%
X127075000Y-119000000D03*
D25*
X129975000Y-119000000D03*
%TD*%
D26*
%TO.C,J203*%
X108200000Y-95045001D03*
D27*
X108200000Y-92545001D03*
X108200000Y-90045001D03*
%TD*%
D10*
%TO.C,J206*%
X194000000Y-81270000D03*
D11*
X194000000Y-78730000D03*
X194000000Y-76190000D03*
X194000000Y-73650000D03*
X194000000Y-71110000D03*
X194000000Y-68570000D03*
%TD*%
D28*
%TO.C,C302*%
X147300000Y-94025000D03*
D29*
X144675000Y-94025000D03*
%TD*%
D30*
%TO.C,C301*%
X148000000Y-107500000D03*
D31*
X150825000Y-107525000D03*
%TD*%
D32*
%TO.C,R403*%
X124000000Y-132775000D03*
D15*
X124000000Y-135275000D03*
%TD*%
D33*
%TO.C,U301*%
X146825000Y-98725000D03*
D34*
X146875000Y-100975000D03*
D35*
X154475000Y-100950000D03*
D36*
X146875000Y-103325000D03*
%TD*%
D37*
%TO.C,C303*%
X161525000Y-106175000D03*
D38*
X161500000Y-109000000D03*
%TD*%
D10*
%TO.C,J208*%
X194000000Y-87840000D03*
D11*
X194000000Y-90380000D03*
X194000000Y-92920000D03*
X194000000Y-95460000D03*
X194000000Y-98000000D03*
X194000000Y-100540000D03*
%TD*%
D39*
%TO.C,D402*%
X118525000Y-129462500D03*
D40*
X118500000Y-125787500D03*
%TD*%
D41*
%TO.C,H104*%
X108000000Y-60000000D03*
%TD*%
D10*
%TO.C,J201*%
X118250000Y-57500000D03*
D11*
X120790000Y-57500000D03*
X118250000Y-60040000D03*
X120790000Y-60040000D03*
X118250000Y-62580000D03*
X120790000Y-62580000D03*
X118250000Y-65120000D03*
X120790000Y-65120000D03*
X118250000Y-67660000D03*
X120790000Y-67660000D03*
X118250000Y-70200000D03*
X120790000Y-70200000D03*
X118250000Y-72740000D03*
X120790000Y-72740000D03*
X118250000Y-75280000D03*
X120790000Y-75280000D03*
X118250000Y-77820000D03*
X120790000Y-77820000D03*
X118250000Y-80360000D03*
X120790000Y-80360000D03*
X118250000Y-82900000D03*
X120790000Y-82900000D03*
X118250000Y-85440000D03*
X120790000Y-85440000D03*
X118250000Y-87980000D03*
X120790000Y-87980000D03*
X118250000Y-90520000D03*
X120790000Y-90520000D03*
X118250000Y-93060000D03*
X120790000Y-93060000D03*
X118250000Y-95600000D03*
X120790000Y-95600000D03*
X118250000Y-98140000D03*
X120790000Y-98140000D03*
X118250000Y-100680000D03*
X120790000Y-100680000D03*
X118250000Y-103220000D03*
X120790000Y-103220000D03*
%TD*%
D41*
%TO.C,H102*%
X108000000Y-132000000D03*
%TD*%
D42*
%TO.C,R401*%
X184000000Y-132000000D03*
D43*
X184000000Y-134725000D03*
%TD*%
D44*
%TO.C,R405*%
X129500000Y-111900000D03*
D45*
X129475000Y-109100000D03*
%TD*%
D41*
%TO.C,H103*%
X192000000Y-132000000D03*
%TD*%
D46*
%TO.C,D401*%
X184000000Y-128337500D03*
D47*
X184000000Y-124462500D03*
%TD*%
D48*
%TO.C,SW301*%
X162000000Y-124000000D03*
X155000000Y-124000000D03*
%TD*%
D49*
%TO.C,D403*%
X123975000Y-129437500D03*
D47*
X124000000Y-125712500D03*
%TD*%
D50*
%TO.C,C304*%
X161800000Y-95500000D03*
D51*
X161750000Y-92825000D03*
%TD*%
D52*
%TO.C,J205*%
X175000000Y-132000000D03*
D53*
X175000000Y-124800000D03*
%TD*%
D26*
%TO.C,J202*%
X108200000Y-109045001D03*
D27*
X108200000Y-106545001D03*
X108200000Y-104045001D03*
%TD*%
D54*
%TO.C,R404*%
X129925000Y-115500000D03*
D55*
X127100000Y-115475000D03*
%TD*%
D56*
%TO.C,U302*%
X159775000Y-102412500D03*
X160725000Y-102412500D03*
D57*
X161650000Y-102387500D03*
D58*
X161675000Y-99537500D03*
X159775000Y-99537500D03*
%TD*%
D41*
%TO.C,H101*%
X192000000Y-60000000D03*
%TD*%
M02*
