%TF.GenerationSoftware,KiCad,Pcbnew,(6.0.10)*%
%TF.CreationDate,2023-04-26T13:06:59+03:00*%
%TF.ProjectId,KiCAD design,4b694341-4420-4646-9573-69676e2e6b69,rev?*%
%TF.SameCoordinates,Original*%
%TF.FileFunction,Soldermask,Bot*%
%TF.FilePolarity,Negative*%
%FSLAX46Y46*%
G04 Gerber Fmt 4.6, Leading zero omitted, Abs format (unit mm)*
G04 Created by KiCad (PCBNEW (6.0.10)) date 2023-04-26 13:06:59*
%MOMM*%
%LPD*%
G01*
G04 APERTURE LIST*
G04 Aperture macros list*
%AMRoundRect*
0 Rectangle with rounded corners*
0 $1 Rounding radius*
0 $2 $3 $4 $5 $6 $7 $8 $9 X,Y pos of 4 corners*
0 Add a 4 corners polygon primitive as box body*
4,1,4,$2,$3,$4,$5,$6,$7,$8,$9,$2,$3,0*
0 Add four circle primitives for the rounded corners*
1,1,$1+$1,$2,$3*
1,1,$1+$1,$4,$5*
1,1,$1+$1,$6,$7*
1,1,$1+$1,$8,$9*
0 Add four rect primitives between the rounded corners*
20,1,$1+$1,$2,$3,$4,$5,0*
20,1,$1+$1,$4,$5,$6,$7,0*
20,1,$1+$1,$6,$7,$8,$9,0*
20,1,$1+$1,$8,$9,$2,$3,0*%
G04 Aperture macros list end*
%ADD10R,1.700000X1.700000*%
%ADD11O,1.700000X1.700000*%
%ADD12RoundRect,0.250000X0.725000X-0.600000X0.725000X0.600000X-0.725000X0.600000X-0.725000X-0.600000X0*%
%ADD13O,1.950000X1.700000*%
%ADD14C,7.500000*%
%ADD15O,3.260000X6.520000*%
%ADD16RoundRect,1.500000X1.500000X-1.500000X1.500000X1.500000X-1.500000X1.500000X-1.500000X-1.500000X0*%
%ADD17C,6.000000*%
G04 APERTURE END LIST*
D10*
%TO.C,J204*%
X179200000Y-57500000D03*
D11*
X181740000Y-57500000D03*
X179200000Y-60040000D03*
X181740000Y-60040000D03*
X179200000Y-62580000D03*
X181740000Y-62580000D03*
X179200000Y-65120000D03*
X181740000Y-65120000D03*
X179200000Y-67660000D03*
X181740000Y-67660000D03*
X179200000Y-70200000D03*
X181740000Y-70200000D03*
X179200000Y-72740000D03*
X181740000Y-72740000D03*
X179200000Y-75280000D03*
X181740000Y-75280000D03*
X179200000Y-77820000D03*
X181740000Y-77820000D03*
X179200000Y-80360000D03*
X181740000Y-80360000D03*
X179200000Y-82900000D03*
X181740000Y-82900000D03*
X179200000Y-85440000D03*
X181740000Y-85440000D03*
X179200000Y-87980000D03*
X181740000Y-87980000D03*
X179200000Y-90520000D03*
X181740000Y-90520000D03*
X179200000Y-93060000D03*
X181740000Y-93060000D03*
X179200000Y-95600000D03*
X181740000Y-95600000D03*
X179200000Y-98140000D03*
X181740000Y-98140000D03*
X179200000Y-100680000D03*
X181740000Y-100680000D03*
X179200000Y-103220000D03*
X181740000Y-103220000D03*
%TD*%
D10*
%TO.C,J401*%
X194275000Y-119350000D03*
D11*
X191735000Y-119350000D03*
X194275000Y-116810000D03*
X191735000Y-116810000D03*
X194275000Y-114270000D03*
X191735000Y-114270000D03*
X194275000Y-111730000D03*
X191735000Y-111730000D03*
X194275000Y-109190000D03*
X191735000Y-109190000D03*
X194275000Y-106650000D03*
X191735000Y-106650000D03*
%TD*%
D12*
%TO.C,J203*%
X108200000Y-95045001D03*
D13*
X108200000Y-92545001D03*
X108200000Y-90045001D03*
%TD*%
D10*
%TO.C,J206*%
X194000000Y-81270000D03*
D11*
X194000000Y-78730000D03*
X194000000Y-76190000D03*
X194000000Y-73650000D03*
X194000000Y-71110000D03*
X194000000Y-68570000D03*
%TD*%
D10*
%TO.C,J208*%
X194000000Y-87840000D03*
D11*
X194000000Y-90380000D03*
X194000000Y-92920000D03*
X194000000Y-95460000D03*
X194000000Y-98000000D03*
X194000000Y-100540000D03*
%TD*%
D14*
%TO.C,H104*%
X108000000Y-60000000D03*
%TD*%
D10*
%TO.C,J201*%
X118250000Y-57500000D03*
D11*
X120790000Y-57500000D03*
X118250000Y-60040000D03*
X120790000Y-60040000D03*
X118250000Y-62580000D03*
X120790000Y-62580000D03*
X118250000Y-65120000D03*
X120790000Y-65120000D03*
X118250000Y-67660000D03*
X120790000Y-67660000D03*
X118250000Y-70200000D03*
X120790000Y-70200000D03*
X118250000Y-72740000D03*
X120790000Y-72740000D03*
X118250000Y-75280000D03*
X120790000Y-75280000D03*
X118250000Y-77820000D03*
X120790000Y-77820000D03*
X118250000Y-80360000D03*
X120790000Y-80360000D03*
X118250000Y-82900000D03*
X120790000Y-82900000D03*
X118250000Y-85440000D03*
X120790000Y-85440000D03*
X118250000Y-87980000D03*
X120790000Y-87980000D03*
X118250000Y-90520000D03*
X120790000Y-90520000D03*
X118250000Y-93060000D03*
X120790000Y-93060000D03*
X118250000Y-95600000D03*
X120790000Y-95600000D03*
X118250000Y-98140000D03*
X120790000Y-98140000D03*
X118250000Y-100680000D03*
X120790000Y-100680000D03*
X118250000Y-103220000D03*
X120790000Y-103220000D03*
%TD*%
D14*
%TO.C,H102*%
X108000000Y-132000000D03*
%TD*%
%TO.C,H103*%
X192000000Y-132000000D03*
%TD*%
D15*
%TO.C,SW301*%
X162000000Y-124000000D03*
X155000000Y-124000000D03*
%TD*%
D16*
%TO.C,J205*%
X175000000Y-132000000D03*
D17*
X175000000Y-124800000D03*
%TD*%
D12*
%TO.C,J202*%
X108200000Y-109045001D03*
D13*
X108200000Y-106545001D03*
X108200000Y-104045001D03*
%TD*%
D14*
%TO.C,H101*%
X192000000Y-60000000D03*
%TD*%
M02*
