%TF.GenerationSoftware,KiCad,Pcbnew,(6.0.7)*%
%TF.CreationDate,2023-04-14T09:22:28+03:00*%
%TF.ProjectId,KiCAD design,4b694341-4420-4646-9573-69676e2e6b69,rev?*%
%TF.SameCoordinates,Original*%
%TF.FileFunction,Soldermask,Top*%
%TF.FilePolarity,Negative*%
%FSLAX46Y46*%
G04 Gerber Fmt 4.6, Leading zero omitted, Abs format (unit mm)*
G04 Created by KiCad (PCBNEW (6.0.7)) date 2023-04-14 09:22:28*
%MOMM*%
%LPD*%
G01*
G04 APERTURE LIST*
G04 Aperture macros list*
%AMRoundRect*
0 Rectangle with rounded corners*
0 $1 Rounding radius*
0 $2 $3 $4 $5 $6 $7 $8 $9 X,Y pos of 4 corners*
0 Add a 4 corners polygon primitive as box body*
4,1,4,$2,$3,$4,$5,$6,$7,$8,$9,$2,$3,0*
0 Add four circle primitives for the rounded corners*
1,1,$1+$1,$2,$3*
1,1,$1+$1,$4,$5*
1,1,$1+$1,$6,$7*
1,1,$1+$1,$8,$9*
0 Add four rect primitives between the rounded corners*
20,1,$1+$1,$2,$3,$4,$5,0*
20,1,$1+$1,$4,$5,$6,$7,0*
20,1,$1+$1,$6,$7,$8,$9,0*
20,1,$1+$1,$8,$9,$2,$3,0*%
G04 Aperture macros list end*
%ADD10R,1.700000X1.700000*%
%ADD11O,1.700000X1.700000*%
%ADD12RoundRect,0.250000X-0.475000X0.250000X-0.475000X-0.250000X0.475000X-0.250000X0.475000X0.250000X0*%
%ADD13RoundRect,0.250000X-0.450000X0.262500X-0.450000X-0.262500X0.450000X-0.262500X0.450000X0.262500X0*%
%ADD14RoundRect,0.150000X0.825000X0.150000X-0.825000X0.150000X-0.825000X-0.150000X0.825000X-0.150000X0*%
%ADD15RoundRect,0.250000X-0.250000X-0.475000X0.250000X-0.475000X0.250000X0.475000X-0.250000X0.475000X0*%
%ADD16RoundRect,0.250000X0.725000X-0.600000X0.725000X0.600000X-0.725000X0.600000X-0.725000X-0.600000X0*%
%ADD17O,1.950000X1.700000*%
%ADD18RoundRect,0.250000X0.250000X0.475000X-0.250000X0.475000X-0.250000X-0.475000X0.250000X-0.475000X0*%
%ADD19C,0.800000*%
%ADD20C,6.400000*%
%ADD21R,2.000000X1.500000*%
%ADD22R,2.000000X3.800000*%
%ADD23RoundRect,0.250000X0.625000X-0.375000X0.625000X0.375000X-0.625000X0.375000X-0.625000X-0.375000X0*%
%ADD24RoundRect,0.250000X0.450000X-0.262500X0.450000X0.262500X-0.450000X0.262500X-0.450000X-0.262500X0*%
%ADD25O,3.260000X6.520000*%
%ADD26C,3.000000*%
%ADD27R,1.605000X1.605000*%
%ADD28C,1.605000*%
%ADD29R,1.530000X1.530000*%
%ADD30C,1.530000*%
%ADD31RoundRect,0.250000X0.475000X-0.250000X0.475000X0.250000X-0.475000X0.250000X-0.475000X-0.250000X0*%
%ADD32RoundRect,0.250000X-0.600000X-0.750000X0.600000X-0.750000X0.600000X0.750000X-0.600000X0.750000X0*%
%ADD33O,1.700000X2.000000*%
%ADD34RoundRect,0.250000X0.262500X0.450000X-0.262500X0.450000X-0.262500X-0.450000X0.262500X-0.450000X0*%
%ADD35RoundRect,0.150000X0.150000X-0.512500X0.150000X0.512500X-0.150000X0.512500X-0.150000X-0.512500X0*%
G04 APERTURE END LIST*
D10*
%TO.C,J204*%
X179200000Y-57500000D03*
D11*
X181740000Y-57500000D03*
X179200000Y-60040000D03*
X181740000Y-60040000D03*
X179200000Y-62580000D03*
X181740000Y-62580000D03*
X179200000Y-65120000D03*
X181740000Y-65120000D03*
X179200000Y-67660000D03*
X181740000Y-67660000D03*
X179200000Y-70200000D03*
X181740000Y-70200000D03*
X179200000Y-72740000D03*
X181740000Y-72740000D03*
X179200000Y-75280000D03*
X181740000Y-75280000D03*
X179200000Y-77820000D03*
X181740000Y-77820000D03*
X179200000Y-80360000D03*
X181740000Y-80360000D03*
X179200000Y-82900000D03*
X181740000Y-82900000D03*
X179200000Y-85440000D03*
X181740000Y-85440000D03*
X179200000Y-87980000D03*
X181740000Y-87980000D03*
X179200000Y-90520000D03*
X181740000Y-90520000D03*
X179200000Y-93060000D03*
X181740000Y-93060000D03*
X179200000Y-95600000D03*
X181740000Y-95600000D03*
X179200000Y-98140000D03*
X181740000Y-98140000D03*
X179200000Y-100680000D03*
X181740000Y-100680000D03*
X179200000Y-103220000D03*
X181740000Y-103220000D03*
%TD*%
D12*
%TO.C,C402*%
X133000000Y-110050000D03*
X133000000Y-111950000D03*
%TD*%
D10*
%TO.C,J401*%
X194275000Y-119350000D03*
D11*
X191735000Y-119350000D03*
X194275000Y-116810000D03*
X191735000Y-116810000D03*
X194275000Y-114270000D03*
X191735000Y-114270000D03*
X194275000Y-111730000D03*
X191735000Y-111730000D03*
X194275000Y-109190000D03*
X191735000Y-109190000D03*
X194275000Y-106650000D03*
X191735000Y-106650000D03*
%TD*%
D13*
%TO.C,R402*%
X120500000Y-131687500D03*
X120500000Y-133512500D03*
%TD*%
D14*
%TO.C,U401*%
X140475000Y-117905000D03*
X140475000Y-116635000D03*
X140475000Y-115365000D03*
X140475000Y-114095000D03*
X135525000Y-114095000D03*
X135525000Y-115365000D03*
X135525000Y-116635000D03*
X135525000Y-117905000D03*
%TD*%
D15*
%TO.C,C401*%
X130050000Y-118000000D03*
X131950000Y-118000000D03*
%TD*%
D16*
%TO.C,J203*%
X108200000Y-74500000D03*
D17*
X108200000Y-72000000D03*
X108200000Y-69500000D03*
%TD*%
D10*
%TO.C,J206*%
X194000000Y-81270000D03*
D11*
X194000000Y-78730000D03*
X194000000Y-76190000D03*
X194000000Y-73650000D03*
X194000000Y-71110000D03*
X194000000Y-68570000D03*
%TD*%
D18*
%TO.C,C302*%
X147400000Y-95000000D03*
X145500000Y-95000000D03*
%TD*%
D19*
%TO.C,H101*%
X191697056Y-61697056D03*
X191697056Y-58302944D03*
X187600000Y-60000000D03*
X192400000Y-60000000D03*
X188302944Y-61697056D03*
X188302944Y-58302944D03*
X190000000Y-57600000D03*
X190000000Y-62400000D03*
D20*
X190000000Y-60000000D03*
%TD*%
D15*
%TO.C,C301*%
X147550000Y-107500000D03*
X149450000Y-107500000D03*
%TD*%
D13*
%TO.C,R403*%
X125500000Y-131687500D03*
X125500000Y-133512500D03*
%TD*%
D21*
%TO.C,U301*%
X147350000Y-98700000D03*
X147350000Y-101000000D03*
D22*
X153650000Y-101000000D03*
D21*
X147350000Y-103300000D03*
%TD*%
D12*
%TO.C,C303*%
X162000000Y-106000000D03*
X162000000Y-107900000D03*
%TD*%
D10*
%TO.C,J208*%
X194000000Y-87840000D03*
D11*
X194000000Y-90380000D03*
X194000000Y-92920000D03*
X194000000Y-95460000D03*
X194000000Y-98000000D03*
X194000000Y-100540000D03*
%TD*%
D23*
%TO.C,D402*%
X120500000Y-129000000D03*
X120500000Y-126200000D03*
%TD*%
D19*
%TO.C,H104*%
X111697056Y-58302944D03*
X110000000Y-62400000D03*
X112400000Y-60000000D03*
D20*
X110000000Y-60000000D03*
D19*
X108302944Y-61697056D03*
X111697056Y-61697056D03*
X108302944Y-58302944D03*
X107600000Y-60000000D03*
X110000000Y-57600000D03*
%TD*%
D10*
%TO.C,J201*%
X118250000Y-57500000D03*
D11*
X120790000Y-57500000D03*
X118250000Y-60040000D03*
X120790000Y-60040000D03*
X118250000Y-62580000D03*
X120790000Y-62580000D03*
X118250000Y-65120000D03*
X120790000Y-65120000D03*
X118250000Y-67660000D03*
X120790000Y-67660000D03*
X118250000Y-70200000D03*
X120790000Y-70200000D03*
X118250000Y-72740000D03*
X120790000Y-72740000D03*
X118250000Y-75280000D03*
X120790000Y-75280000D03*
X118250000Y-77820000D03*
X120790000Y-77820000D03*
X118250000Y-80360000D03*
X120790000Y-80360000D03*
X118250000Y-82900000D03*
X120790000Y-82900000D03*
X118250000Y-85440000D03*
X120790000Y-85440000D03*
X118250000Y-87980000D03*
X120790000Y-87980000D03*
X118250000Y-90520000D03*
X120790000Y-90520000D03*
X118250000Y-93060000D03*
X120790000Y-93060000D03*
X118250000Y-95600000D03*
X120790000Y-95600000D03*
X118250000Y-98140000D03*
X120790000Y-98140000D03*
X118250000Y-100680000D03*
X120790000Y-100680000D03*
X118250000Y-103220000D03*
X120790000Y-103220000D03*
%TD*%
D19*
%TO.C,H102*%
X111697056Y-131697056D03*
D20*
X110000000Y-130000000D03*
D19*
X111697056Y-128302944D03*
X108302944Y-131697056D03*
X107600000Y-130000000D03*
X110000000Y-132400000D03*
X108302944Y-128302944D03*
X112400000Y-130000000D03*
X110000000Y-127600000D03*
%TD*%
D13*
%TO.C,R401*%
X182500000Y-132587500D03*
X182500000Y-134412500D03*
%TD*%
D24*
%TO.C,R405*%
X130000000Y-111912500D03*
X130000000Y-110087500D03*
%TD*%
D19*
%TO.C,H103*%
X191697056Y-131697056D03*
X187600000Y-130000000D03*
X188302944Y-128302944D03*
X190000000Y-127600000D03*
X188302944Y-131697056D03*
X192400000Y-130000000D03*
X191697056Y-128302944D03*
X190000000Y-132400000D03*
D20*
X190000000Y-130000000D03*
%TD*%
D23*
%TO.C,D401*%
X182500000Y-129900000D03*
X182500000Y-127100000D03*
%TD*%
D25*
%TO.C,SW301*%
X164000000Y-122000000D03*
X157000000Y-122000000D03*
%TD*%
D26*
%TO.C,U101*%
X71390000Y-105250000D03*
X38370000Y-53180000D03*
X86630000Y-54450000D03*
D27*
X86630000Y-80870000D03*
D28*
X86630000Y-78330000D03*
X86630000Y-75790000D03*
X86630000Y-73250000D03*
X86630000Y-70710000D03*
X86630000Y-68170000D03*
X86630000Y-65630000D03*
X86630000Y-63090000D03*
X86630000Y-60550000D03*
X86630000Y-58010000D03*
D27*
X38370000Y-67150000D03*
D28*
X38370000Y-69690000D03*
X38370000Y-72230000D03*
X38370000Y-74770000D03*
X38370000Y-77310000D03*
X38370000Y-79850000D03*
X38370000Y-82390000D03*
X38370000Y-84930000D03*
D29*
X30750000Y-56990000D03*
D30*
X33290000Y-56990000D03*
X30750000Y-59530000D03*
X33290000Y-59530000D03*
X30750000Y-62070000D03*
X33290000Y-62070000D03*
X30750000Y-64610000D03*
X33290000Y-64610000D03*
X30750000Y-67150000D03*
X33290000Y-67150000D03*
X30750000Y-69690000D03*
X33290000Y-69690000D03*
X30750000Y-72230000D03*
X33290000Y-72230000D03*
X30750000Y-74770000D03*
X33290000Y-74770000D03*
X30750000Y-77310000D03*
X33290000Y-77310000D03*
X30750000Y-79850000D03*
X33290000Y-79850000D03*
X30750000Y-82390000D03*
X33290000Y-82390000D03*
X30750000Y-84930000D03*
X33290000Y-84930000D03*
X30750000Y-87470000D03*
X33290000Y-87470000D03*
X30750000Y-90010000D03*
X33290000Y-90010000D03*
X30750000Y-92550000D03*
X33290000Y-92550000D03*
X30750000Y-95090000D03*
X33290000Y-95090000D03*
X30750000Y-97630000D03*
X33290000Y-97630000D03*
X30750000Y-100170000D03*
X33290000Y-100170000D03*
X30750000Y-102710000D03*
X33290000Y-102710000D03*
D27*
X38370000Y-90010000D03*
D28*
X38370000Y-92550000D03*
X38370000Y-95090000D03*
X38370000Y-97630000D03*
X38370000Y-100170000D03*
X38370000Y-102710000D03*
D27*
X86630000Y-102710000D03*
D28*
X86630000Y-100170000D03*
X86630000Y-97630000D03*
X86630000Y-95090000D03*
X86630000Y-92550000D03*
X86630000Y-90010000D03*
X86630000Y-87470000D03*
X86630000Y-84930000D03*
D29*
X91710000Y-56990000D03*
D30*
X94250000Y-56990000D03*
X91710000Y-59530000D03*
X94250000Y-59530000D03*
X91710000Y-62070000D03*
X94250000Y-62070000D03*
X91710000Y-64610000D03*
X94250000Y-64610000D03*
X91710000Y-67150000D03*
X94250000Y-67150000D03*
X91710000Y-69690000D03*
X94250000Y-69690000D03*
X91710000Y-72230000D03*
X94250000Y-72230000D03*
X91710000Y-74770000D03*
X94250000Y-74770000D03*
X91710000Y-77310000D03*
X94250000Y-77310000D03*
X91710000Y-79850000D03*
X94250000Y-79850000D03*
X91710000Y-82390000D03*
X94250000Y-82390000D03*
X91710000Y-84930000D03*
X94250000Y-84930000D03*
X91710000Y-87470000D03*
X94250000Y-87470000D03*
X91710000Y-90010000D03*
X94250000Y-90010000D03*
X91710000Y-92550000D03*
X94250000Y-92550000D03*
X91710000Y-95090000D03*
X94250000Y-95090000D03*
X91710000Y-97630000D03*
X94250000Y-97630000D03*
X91710000Y-100170000D03*
X94250000Y-100170000D03*
X91710000Y-102710000D03*
X94250000Y-102710000D03*
%TD*%
D23*
%TO.C,D403*%
X125500000Y-129000000D03*
X125500000Y-126200000D03*
%TD*%
D31*
%TO.C,C304*%
X159000000Y-96950000D03*
X159000000Y-95050000D03*
%TD*%
D32*
%TO.C,J205*%
X172250000Y-129975000D03*
D33*
X174750000Y-129975000D03*
%TD*%
D16*
%TO.C,J202*%
X108200000Y-88500000D03*
D17*
X108200000Y-86000000D03*
X108200000Y-83500000D03*
%TD*%
D34*
%TO.C,R404*%
X131912500Y-115000000D03*
X130087500Y-115000000D03*
%TD*%
D35*
%TO.C,U302*%
X159775000Y-102087500D03*
X160725000Y-102087500D03*
X161675000Y-102087500D03*
X161675000Y-99812500D03*
X159775000Y-99812500D03*
%TD*%
M02*
